<svg width="22" height="32" viewBox="0 0 22 32" fill="none" xmlns="http://www.w3.org/2000/svg">
<path d="M5.66634 31.9998C8.61034 31.9998 10.9997 29.6104 10.9997 26.6665V21.3331H5.66634C2.72234 21.3331 0.333008 23.7225 0.333008 26.6665C0.333008 29.6104 2.72234 31.9998 5.66634 31.9998Z" fill="#0ACF83"/>
<path d="M0.333008 15.9997C0.333008 13.0557 2.72234 10.6664 5.66634 10.6664H10.9997V21.333H5.66634C2.72234 21.333 0.333008 18.9437 0.333008 15.9997Z" fill="#A259FF"/>
<path d="M0.333008 5.33309C0.333008 2.38909 2.72234 -0.000244141 5.66634 -0.000244141H10.9997V10.6664H5.66634C2.72234 10.6664 0.333008 8.27708 0.333008 5.33309Z" fill="#F24E1E"/>
<path d="M11 -0.000244141H16.3333C19.2773 -0.000244141 21.6667 2.38909 21.6667 5.33309C21.6667 8.27708 19.2773 10.6664 16.3333 10.6664H11V-0.000244141Z" fill="#FF7262"/>
<path d="M21.6667 15.9997C21.6667 18.9437 19.2773 21.333 16.3333 21.333C13.3893 21.333 11 18.9437 11 15.9997C11 13.0557 13.3893 10.6664 16.3333 10.6664C19.2773 10.6664 21.6667 13.0557 21.6667 15.9997Z" fill="#1ABCFE"/>
</svg>

