<svg width="32" height="32" viewBox="0 0 32 32" fill="none" xmlns="http://www.w3.org/2000/svg">
<path d="M18.8423 0C18.6109 0 18.396 0.049781 18.1977 0.116152C18.6191 0.398235 18.8505 0.771584 18.9662 1.19471C18.9745 1.25278 18.991 1.29427 18.9993 1.35234C19.0076 1.40212 19.0158 1.4519 19.0158 1.50168C19.0489 2.23178 18.8257 2.32304 18.6687 2.75447C18.429 3.31034 18.4952 3.90769 18.7844 4.3889C18.8092 4.44697 18.8423 4.51334 18.8836 4.57142C18.5695 2.47238 20.3133 2.15711 20.6356 1.50168C20.6604 0.929217 20.1893 0.547574 19.8174 0.282083C19.4621 0.0663729 19.1398 0 18.8423 0ZM21.4703 0.472906C21.4372 0.663727 21.462 0.613947 21.4538 0.713507C21.4455 0.779878 21.4455 0.862846 21.4372 0.929218C21.4207 0.995591 21.4042 1.06196 21.3794 1.12834C21.3629 1.19471 21.3381 1.26108 21.3133 1.32745C21.2802 1.39383 21.2554 1.4519 21.2224 1.51828C21.1976 1.55148 21.181 1.58465 21.1563 1.61784C21.1397 1.64272 21.1232 1.66761 21.1067 1.6925C21.0654 1.75058 21.024 1.80866 20.9827 1.85844C20.9331 1.90822 20.8918 1.96629 20.8339 2.00778C20.8339 2.01608 20.8339 2.01608 20.8339 2.01608C20.7844 2.05757 20.7348 2.10735 20.6769 2.14883C20.5034 2.28157 20.305 2.38113 20.1232 2.50558C20.0654 2.54706 20.0075 2.58025 19.9579 2.63003C19.9001 2.67151 19.8505 2.71299 19.8009 2.76277C19.7431 2.81255 19.7018 2.86233 19.6522 2.92041C19.6109 2.97019 19.5613 3.02827 19.5282 3.08634C19.4869 3.14442 19.4456 3.20249 19.4125 3.26057C19.3794 3.32694 19.3547 3.38502 19.3216 3.45139C19.2968 3.51776 19.272 3.57584 19.2555 3.64221C19.2307 3.71688 19.2142 3.78325 19.1976 3.84963C19.1894 3.88283 19.1894 3.9243 19.1811 3.95748C19.1728 3.99068 19.1728 4.02385 19.1646 4.05704C19.1646 4.12341 19.1563 4.19808 19.1563 4.26446C19.1563 4.31424 19.1563 4.36402 19.1646 4.4138C19.1646 4.48017 19.1729 4.54654 19.1894 4.62121C19.1977 4.68758 19.2142 4.75395 19.2307 4.82033C19.2555 4.8867 19.2721 4.95307 19.2968 5.01944C19.3134 5.06093 19.3382 5.10241 19.3547 5.1356L17.4539 4.3972C17.1316 4.30594 16.8176 4.22297 16.4953 4.1483C16.3217 4.10682 16.1482 4.06534 15.9746 4.02386C15.4788 3.9243 14.9747 3.84963 14.4706 3.79985C14.454 3.79985 14.4458 3.79154 14.4292 3.79154C13.9334 3.74176 13.4458 3.71687 12.95 3.71687C12.5863 3.71687 12.2227 3.73345 11.8673 3.75835C11.3632 3.79155 10.8591 3.85791 10.355 3.94088C10.231 3.95746 10.1071 3.98236 9.98311 4.00725C9.72692 4.05703 9.479 4.11511 9.23934 4.17319C9.11537 4.20639 8.99141 4.23956 8.86745 4.27274C8.74349 4.32252 8.62779 4.3806 8.51209 4.43038C8.42118 4.47186 8.33028 4.51334 8.23937 4.55483C8.22286 4.56314 8.2063 4.56314 8.19805 4.57141C8.11541 4.61289 8.04103 4.64607 7.96666 4.68756C7.94186 4.69587 7.92533 4.70414 7.9088 4.71245C7.8179 4.75393 7.72699 4.80371 7.65262 4.8452C7.59476 4.87008 7.53692 4.90327 7.48733 4.92816C7.46254 4.94474 7.42948 4.96136 7.41295 4.96964C7.33858 5.01113 7.2642 5.05261 7.19809 5.09409C7.12371 5.13558 7.05759 5.17706 6.99974 5.21854C6.9419 5.26003 6.88405 5.29321 6.83446 5.33469C6.82618 5.343 6.81794 5.343 6.80967 5.35127C6.76008 5.38447 6.70224 5.42594 6.65265 5.46743C6.65265 5.46743 6.64437 5.47573 6.63613 5.48401C6.59481 5.51721 6.55349 5.55038 6.51217 5.58356C6.49566 5.59187 6.4791 5.60845 6.46258 5.61676C6.42127 5.64996 6.37995 5.69143 6.33863 5.72462C6.33035 5.7412 6.31383 5.74951 6.30556 5.75782C6.25597 5.8076 6.20638 5.84908 6.1568 5.89886C6.14852 5.89886 6.14852 5.90717 6.14028 5.91544C6.0907 5.95692 6.04111 6.0067 5.99153 6.05648C5.98325 6.06479 5.98325 6.07306 5.97501 6.07306C5.93369 6.11455 5.89237 6.15603 5.85105 6.20581C5.83453 6.22239 5.80973 6.23901 5.7932 6.25559C5.75188 6.30537 5.7023 6.35515 5.65271 6.40493C5.64443 6.42151 5.62792 6.42982 5.61964 6.44641C5.55353 6.51279 5.49568 6.57916 5.42956 6.64553C5.42129 6.65384 5.41305 6.66211 5.40477 6.67042C5.27254 6.81146 5.13205 6.9525 4.9833 7.07695C4.83454 7.20969 4.67753 7.33414 4.5205 7.442C4.35522 7.55815 4.1982 7.65771 4.02465 7.75727C3.85937 7.84853 3.68582 7.9315 3.50401 8.00617C3.33046 8.08084 3.14865 8.14721 2.96684 8.20529C2.61974 8.27995 2.26438 8.421 1.95861 8.44589C1.8925 8.44589 1.81812 8.46247 1.75201 8.47078C1.67763 8.48736 1.61151 8.50397 1.5454 8.52056C1.47929 8.54544 1.41317 8.57034 1.34706 8.59522C1.28095 8.62011 1.21483 8.6533 1.14872 8.68649C1.09087 8.72797 1.02476 8.76116 0.966908 8.80264C0.90906 8.84412 0.85121 8.8939 0.801624 8.94368C0.743777 8.98517 0.685926 9.04324 0.636341 9.09302C0.586755 9.1511 0.53717 9.20088 0.49585 9.25895C0.45453 9.32532 0.404945 9.3834 0.371886 9.44977C0.330566 9.50785 0.289247 9.57422 0.256188 9.64059C0.223118 9.71527 0.190076 9.78164 0.165283 9.85631C0.14049 9.92268 0.115698 9.99735 0.0909048 10.072C0.0743894 10.1384 0.057835 10.2048 0.049585 10.2711C0.049585 10.2795 0.0413081 10.2877 0.0413081 10.296C0.0247926 10.3707 0.0247926 10.4703 0.0165153 10.52C0.00823844 10.5781 0 10.6279 0 10.686C0 10.7192 0 10.7606 0.00827689 10.7938C0.0165538 10.8519 0.0247922 10.9017 0.0413468 10.9515C0.0578622 11.0012 0.0744167 11.051 0.0991938 11.1008C0.0991938 11.1091 0.0991938 11.1091 0.0991938 11.1091C0.123987 11.1589 0.157045 11.2087 0.190099 11.2584C0.223169 11.3082 0.256216 11.358 0.297536 11.4078C0.338855 11.4493 0.388441 11.499 0.438026 11.5405C0.487612 11.5903 0.537197 11.6318 0.595044 11.6733C0.793386 11.8475 0.842971 11.9056 1.09916 12.0383C1.14048 12.0632 1.1818 12.0798 1.23139 12.1047C1.23967 12.1047 1.2479 12.113 1.25618 12.113C1.25618 12.1296 1.25618 12.1379 1.26446 12.1545C1.27274 12.2209 1.28925 12.2872 1.30578 12.3536C1.3223 12.4283 1.3471 12.4947 1.3719 12.5527C1.39669 12.6025 1.41322 12.6523 1.43801 12.7021C1.44629 12.7186 1.45453 12.7353 1.4628 12.7435C1.49587 12.8099 1.52891 12.868 1.56197 12.9261C1.60329 12.9841 1.64461 13.0422 1.68593 13.1003C1.72725 13.1501 1.77684 13.2082 1.82642 13.2579C1.87601 13.3077 1.92559 13.3492 1.98345 13.399C1.98345 13.399 1.99172 13.4073 1.99996 13.4073C2.04955 13.4488 2.09913 13.4903 2.14872 13.5234C2.20656 13.5649 2.26441 13.5981 2.33053 13.6313C2.38838 13.6645 2.45449 13.6977 2.5206 13.7226C2.57019 13.7475 2.62804 13.764 2.68589 13.7806C2.69417 13.789 2.7024 13.789 2.71896 13.7972C2.75203 13.8055 2.79333 13.8138 2.82639 13.8221C2.8016 14.2701 2.79332 14.6933 2.85946 14.8426C2.93383 15.0085 3.29746 14.5024 3.66108 13.9217C3.6115 14.4941 3.57844 15.1662 3.66108 15.3653C3.75199 15.5727 4.24784 14.9256 4.67758 14.2121C10.5369 12.8514 15.8838 16.9167 16.4458 22.658C16.3383 21.7619 15.2392 21.2641 14.7351 21.3886C14.4872 22.0025 14.0657 22.7907 13.388 23.2802C13.4459 22.7326 13.4211 22.1685 13.3054 21.6209C13.1236 22.3842 12.7682 23.0977 12.2806 23.7116C11.4955 23.7697 10.7104 23.3881 10.2972 22.8156C10.2641 22.7907 10.2559 22.7409 10.2311 22.7078C10.2063 22.6497 10.1815 22.5916 10.165 22.5335C10.1402 22.4754 10.1237 22.4174 10.1154 22.3593C10.1071 22.3012 10.1071 22.2431 10.1071 22.1768C10.1071 22.1353 10.1071 22.0938 10.1071 22.0523C10.1154 21.9942 10.1319 21.9362 10.1484 21.8781C10.165 21.82 10.1815 21.7619 10.2063 21.7039C10.2394 21.6458 10.2641 21.5877 10.3055 21.5296C10.446 21.1314 10.446 20.8078 10.1898 20.617C10.1402 20.5838 10.0906 20.5589 10.0327 20.534C9.99968 20.5257 9.95837 20.5092 9.92531 20.5008C9.90052 20.4925 9.88399 20.4843 9.8592 20.476C9.80135 20.4594 9.7435 20.4428 9.68565 20.4345C9.6278 20.4179 9.56995 20.4096 9.5121 20.4096C9.45426 20.4013 9.38814 20.393 9.33029 20.393C9.28897 20.393 9.24765 20.4013 9.20633 20.4013C9.14022 20.4013 9.08237 20.4096 9.02452 20.4262C8.96667 20.4345 8.90882 20.4428 8.85097 20.4594C8.79312 20.476 8.73527 20.4926 8.67742 20.5175C8.61957 20.5424 8.56999 20.5673 8.51214 20.5921C8.46256 20.617 8.41297 20.6502 8.35512 20.6751C6.42957 21.9362 7.57829 24.8898 8.89229 25.7443C8.39644 25.8356 7.89233 25.9434 7.75184 26.0513C7.74356 26.0596 7.73532 26.0679 7.73532 26.0679C8.09068 26.2836 8.46257 26.4661 8.85098 26.6237C9.37989 26.798 9.94185 26.9556 10.1898 27.022V27.0303C10.8757 27.1713 11.5699 27.2211 12.2724 27.1796C15.9334 26.9224 18.9333 24.1265 19.4787 20.4428C19.4952 20.5175 19.5118 20.5838 19.5283 20.6585C19.5531 20.8079 19.5862 20.9655 19.6027 21.1231C19.6027 21.1231 19.6027 21.1231 19.6027 21.1314C19.6192 21.2061 19.6275 21.2808 19.6357 21.3472C19.6357 21.3637 19.6357 21.372 19.6357 21.3804C19.644 21.455 19.6523 21.5297 19.6523 21.5961C19.6605 21.6873 19.6688 21.7786 19.6688 21.8699C19.6688 21.9113 19.6688 21.9528 19.6688 22.0026C19.6688 22.0441 19.6771 22.0939 19.6771 22.1353C19.6771 22.1851 19.6688 22.2349 19.6688 22.2847C19.6688 22.3262 19.6688 22.3677 19.6688 22.4008C19.6688 22.4589 19.6605 22.5087 19.6605 22.5668C19.6605 22.6 19.6605 22.6331 19.6522 22.6746C19.6522 22.7327 19.6439 22.7908 19.6439 22.8571C19.6357 22.882 19.6357 22.9069 19.6357 22.9318C19.6274 22.9982 19.6191 23.0563 19.6109 23.1226C19.6109 23.1475 19.6109 23.1724 19.6026 23.1973C19.5943 23.2803 19.5778 23.3549 19.5695 23.4379V23.4462V23.4545C19.553 23.5292 19.5365 23.6122 19.5199 23.6868C19.5199 23.6951 19.5199 23.7034 19.5199 23.7117C19.5034 23.7864 19.4869 23.8611 19.4704 23.9357C19.4704 23.9441 19.4621 23.9606 19.4621 23.9689C19.4456 24.0436 19.429 24.1183 19.4042 24.1929C19.4042 24.2013 19.4042 24.2095 19.4042 24.2178C19.3794 24.3008 19.3546 24.3755 19.3381 24.4501C19.3298 24.4584 19.3298 24.4667 19.3298 24.4667C19.305 24.5497 19.2803 24.6326 19.2555 24.7156C19.2224 24.7986 19.1976 24.8732 19.1646 24.9562C19.1315 25.0392 19.1067 25.1222 19.0737 25.1968C19.0406 25.2798 19.0075 25.3545 18.9745 25.4374H18.9662C18.9331 25.5121 18.9001 25.5951 18.8588 25.6697C18.8505 25.6946 18.8422 25.7112 18.834 25.7278C18.8257 25.7361 18.8257 25.7444 18.8174 25.7527C18.2803 26.8395 17.4869 27.7936 16.4952 28.5403C16.4291 28.5818 16.363 28.6316 16.2969 28.6814C16.2804 28.698 16.2556 28.7063 16.239 28.7229C16.1812 28.7643 16.1233 28.8058 16.0572 28.8473L16.082 28.8971H16.0903C16.206 28.8805 16.3217 28.8639 16.4374 28.8473H16.4457C16.6605 28.8141 16.8754 28.7726 17.0903 28.7312C17.1481 28.7228 17.2142 28.7063 17.2721 28.6897C17.3134 28.6814 17.3464 28.6731 17.3878 28.6648C17.4456 28.6565 17.5035 28.6399 17.5613 28.6316C17.6109 28.615 17.6605 28.6067 17.7101 28.5901C18.5365 28.391 19.3381 28.1172 20.1067 27.7936C18.7927 29.594 17.0324 31.0459 14.9746 32C15.925 31.9336 16.8754 31.776 17.7927 31.5105C21.1232 30.5232 23.9247 28.2748 25.6024 25.2466C25.2635 27.1631 24.5032 28.9883 23.3793 30.5813C24.1809 30.0503 24.9164 29.4364 25.5858 28.7394C27.437 26.798 28.6518 24.334 29.0651 21.6873C29.346 22.9982 29.4287 24.3506 29.3047 25.6863C35.2714 17.3316 29.8006 8.67 27.5114 6.38844C27.5031 6.37186 27.4949 6.36355 27.4949 6.34696C27.4866 6.35527 27.4866 6.35527 27.4866 6.36354C27.4866 6.35523 27.4866 6.35523 27.4783 6.34696C27.4783 6.44652 27.47 6.54608 27.4618 6.64564C27.437 6.83646 27.4122 7.01898 27.3792 7.20151C27.3378 7.38403 27.2882 7.56655 27.2387 7.74908C27.1808 7.92331 27.1147 8.10583 27.0403 8.28006C26.9659 8.44599 26.8833 8.62022 26.7924 8.78616C26.7015 8.94379 26.6023 9.10972 26.4949 9.25906C26.3875 9.4167 26.2718 9.56603 26.1561 9.70707C26.0321 9.85642 25.8999 9.98916 25.7676 10.1219C25.685 10.1966 25.6106 10.2629 25.528 10.3293C25.4619 10.3874 25.404 10.4372 25.3379 10.4952C25.1891 10.6114 25.0404 10.7193 24.8751 10.8188C24.7181 10.9184 24.5528 11.0179 24.3875 11.1009C24.214 11.1839 24.0404 11.2585 23.8669 11.3332C23.6933 11.3996 23.5115 11.4577 23.3297 11.5074C23.1479 11.5572 22.9578 11.5987 22.776 11.6319C22.5859 11.6651 22.3959 11.6817 22.214 11.6983C22.0818 11.7066 21.9496 11.7148 21.8174 11.7148C21.6273 11.7148 21.4372 11.6983 21.2554 11.6816C21.0653 11.6651 20.8752 11.6402 20.6934 11.5987C20.5034 11.5655 20.3215 11.5157 20.1397 11.4576H20.1315C20.3133 11.441 20.4951 11.4244 20.6769 11.3913C20.867 11.3581 21.0488 11.3166 21.2306 11.2668C21.4124 11.217 21.5942 11.1589 21.7678 11.0926C21.9496 11.0262 22.1231 10.9432 22.2884 10.8603C22.462 10.7773 22.619 10.686 22.7843 10.5865C22.9413 10.4786 23.0983 10.3708 23.2471 10.2546C23.3958 10.1385 23.5363 10.014 23.6685 9.88128C23.809 9.75683 23.933 9.61579 24.0569 9.47474C24.1809 9.32541 24.2966 9.17607 24.404 9.02673C24.4206 9.00184 24.4371 8.96866 24.4536 8.94376C24.5363 8.81102 24.6189 8.67827 24.6933 8.54553C24.7842 8.37959 24.8668 8.21366 24.9412 8.03944C25.0156 7.86521 25.0817 7.69098 25.1395 7.50845C25.1974 7.33422 25.2387 7.1517 25.28 6.96918C25.3131 6.77836 25.3462 6.59583 25.3627 6.4133C25.3792 6.22248 25.3958 6.03166 25.3958 5.84914C25.3958 5.71639 25.3875 5.58365 25.3792 5.4509C25.3627 5.26008 25.3379 5.07755 25.3131 4.89503C25.2801 4.70421 25.2387 4.52169 25.1892 4.33916C25.1313 4.16493 25.0735 3.98241 25.0074 3.80818C24.9412 3.63395 24.8586 3.45972 24.7759 3.29379C24.685 3.12786 24.5941 2.96193 24.495 2.80429C24.3875 2.64666 24.2801 2.49732 24.1644 2.34798C24.0404 2.20694 23.9165 2.0659 23.7842 1.92485C23.7181 1.85848 23.6438 1.78381 23.5694 1.71744C23.1975 1.42706 22.8091 1.15327 22.4207 0.904374C22.3628 0.871176 22.3132 0.846298 22.2554 0.821406C21.9827 0.64718 21.7265 0.555869 21.4703 0.472906Z" fill="#E0234E"/>
</svg>

