<svg width="32" height="32" viewBox="0 0 32 32" fill="none" xmlns="http://www.w3.org/2000/svg">
<path d="M28.6633 6.22042C26.729 3.71566 24.0954 1.84077 21.0955 0.832881C18.0956 -0.175011 14.8642 -0.270633 11.81 0.558108C8.75575 1.38685 6.01587 3.10273 3.93688 5.48873C1.85788 7.87474 0.533149 10.8237 0.130224 13.9626C-0.272702 17.1016 0.264277 20.2895 1.67325 23.1233C3.08222 25.957 5.2999 28.3092 8.0458 29.8825C10.7917 31.4558 13.9425 32.1794 17.0997 31.9619C20.2569 31.7444 23.2786 30.5954 25.7828 28.6604C32.7728 23.2584 34.0627 13.2129 28.6628 6.22042H28.6633Z" fill="#FF6C37"/>
<path d="M21.396 10.1944L14.6496 16.9944L12.7432 15.0344C19.3831 8.39443 20.0496 8.99443 21.3965 10.1944H21.396Z" fill="white"/>
<path d="M14.6503 17.1804C14.5905 17.1789 14.5335 17.1552 14.4903 17.1139L12.5703 15.1939C12.5271 15.1492 12.5029 15.0894 12.5029 15.0272C12.5029 14.9649 12.5271 14.9052 12.5703 14.8604C19.1168 8.31392 20.0103 8.62042 21.5567 10.0204C21.5826 10.0411 21.6033 10.0676 21.6172 10.0977C21.6311 10.1278 21.6378 10.1608 21.6367 10.1939C21.6467 10.2589 21.6217 10.3254 21.5702 10.3674L14.8238 17.1144C14.7765 17.1578 14.7145 17.1816 14.6503 17.1809V17.1804ZM13.0768 15.0339L14.6503 16.6074L21.0502 10.2074C20.8293 9.93049 20.514 9.74474 20.1646 9.68571C19.8153 9.62667 19.4565 9.69849 19.1568 9.88742C17.9968 10.4074 16.1303 11.9939 13.0768 15.0339Z" fill="#FF6C37"/>
<path d="M16.5832 18.8744L14.7432 16.9944L21.4896 10.3275C23.3031 12.1009 20.6096 15.0609 16.5832 18.8739V18.8744Z" fill="white"/>
<path d="M16.5836 19.1144C16.5246 19.1097 16.4686 19.0864 16.4236 19.0479L14.5436 17.2079C14.5154 17.1395 14.5154 17.0628 14.5436 16.9944C14.5236 16.9383 14.5236 16.877 14.5436 16.8209L21.2901 10.0744C21.337 10.0303 21.3989 10.0058 21.4633 10.0058C21.5277 10.0058 21.5896 10.0303 21.6366 10.0744C21.855 10.2755 22.0276 10.5213 22.1427 10.7951C22.2577 11.0688 22.3124 11.3641 22.303 11.6609C22.303 13.4609 20.2496 15.7274 16.7566 19.0344C16.7099 19.0806 16.6485 19.1089 16.5831 19.1144H16.5836ZM15.0901 16.9944L16.5966 18.5004C19.2631 15.9804 21.8101 13.3804 21.8231 11.6204C21.8376 11.2473 21.7142 10.8819 21.4766 10.5939L15.0901 16.9944Z" fill="#FF6C37"/>
<path d="M12.7968 15.0744L14.1303 16.4079C14.1388 16.4154 14.1457 16.4246 14.1503 16.435C14.155 16.4453 14.1574 16.4566 14.1574 16.4679C14.1574 16.4793 14.155 16.4905 14.1503 16.5008C14.1457 16.5112 14.1388 16.5204 14.1303 16.5279L11.3169 17.1279C11.2601 17.1402 11.2008 17.1335 11.1482 17.109C11.0955 17.0845 11.0523 17.0434 11.0251 16.9921C10.9979 16.9407 10.9883 16.8819 10.9976 16.8245C11.007 16.7672 11.0348 16.7145 11.0769 16.6744L12.7168 15.0479C12.7168 15.0479 12.7703 15.0479 12.7968 15.0744Z" fill="white"/>
<path d="M11.25 17.3944C11.1611 17.3933 11.074 17.3694 10.997 17.325C10.92 17.2807 10.8556 17.2173 10.81 17.1409C10.7588 17.0442 10.7402 16.9335 10.757 16.8254C10.7739 16.7172 10.8253 16.6174 10.9035 16.5409L12.53 14.9009C12.5887 14.8485 12.6646 14.8195 12.7433 14.8195C12.8219 14.8195 12.8979 14.8485 12.9565 14.9009L14.29 16.2344C14.369 16.3094 14.4 16.4229 14.37 16.5279C14.34 16.6329 14.252 16.7164 14.1435 16.7414L11.33 17.3414L11.25 17.3944ZM12.7435 15.3679L11.237 16.8744L13.7305 16.3409L12.7435 15.3679Z" fill="#FF6C37"/>
<path d="M24.983 6.44742C24.018 5.51642 22.502 5.47742 21.49 6.35592C20.478 7.23442 20.305 8.74242 21.093 9.82742C21.881 10.9124 23.3665 11.2164 24.5165 10.5274L22.703 8.71392L24.983 6.44742Z" fill="white"/>
<path d="M23.183 11.1404C22.6286 11.1333 22.0885 10.9632 21.6301 10.6513C21.1717 10.3394 20.8152 9.89952 20.605 9.38642C20.395 8.87372 20.3399 8.31069 20.4465 7.767C20.5532 7.2233 20.8169 6.72281 21.205 6.32742C21.7388 5.80341 22.457 5.50983 23.205 5.50983C23.953 5.50983 24.6712 5.80341 25.205 6.32742C25.256 6.37042 25.285 6.43392 25.285 6.50092C25.2849 6.53388 25.2777 6.56644 25.2639 6.59637C25.2501 6.62631 25.23 6.65292 25.205 6.67442L23.045 8.71442L24.685 10.3279C24.7116 10.3533 24.7315 10.3848 24.7431 10.4197C24.7547 10.4545 24.7576 10.4917 24.7515 10.5279C24.7476 10.5629 24.736 10.5965 24.7176 10.6265C24.6992 10.6565 24.6744 10.6821 24.645 10.7014C24.2044 10.9768 23.6979 11.1288 23.1785 11.1414L23.183 11.1404ZM23.183 5.96692C22.233 5.97192 21.383 6.54342 21.0265 7.41692C20.67 8.29042 20.864 9.29592 21.53 9.96693C21.8613 10.3001 22.2854 10.5255 22.747 10.6136C23.2085 10.7016 23.6858 10.6482 24.1165 10.4604L22.543 8.88692C22.518 8.86692 22.4978 8.84155 22.4839 8.81268C22.47 8.78382 22.4628 8.7522 22.4628 8.72017C22.4628 8.68815 22.47 8.65653 22.4839 8.62766C22.4978 8.5988 22.518 8.57343 22.543 8.55342L24.623 6.45992C24.2095 6.14304 23.7039 5.96976 23.183 5.96642V5.96692Z" fill="#FF6C37"/>
<path d="M25.0231 6.48743L22.7432 8.75392L24.5566 10.5674C24.7391 10.4626 24.9091 10.3373 25.0631 10.1939C25.5384 9.69153 25.7999 9.02413 25.7925 8.33258C25.785 7.64103 25.5091 6.97944 25.0231 6.48743Z" fill="white"/>
<path d="M24.5165 10.7674C24.4866 10.7691 24.4567 10.7639 24.429 10.7524C24.4013 10.7409 24.3765 10.7233 24.3565 10.7009L22.5431 8.88743C22.518 8.86743 22.4979 8.84206 22.484 8.81319C22.4701 8.78433 22.4629 8.75271 22.4629 8.72068C22.4629 8.68865 22.4701 8.65704 22.484 8.62817C22.4979 8.59931 22.518 8.57393 22.5431 8.55393L24.8095 6.32743C24.8314 6.29442 24.8612 6.26735 24.8961 6.24862C24.9309 6.22989 24.9699 6.22009 25.0095 6.22009C25.0491 6.22009 25.0881 6.22989 25.123 6.24862C25.1579 6.26735 25.1876 6.29442 25.2095 6.32743C25.4756 6.58813 25.687 6.89931 25.8313 7.24273C25.9756 7.58615 26.0499 7.95492 26.0499 8.32743C26.0499 8.69994 25.9756 9.06871 25.8313 9.41213C25.687 9.75556 25.4756 10.0667 25.2095 10.3274C25.0526 10.4939 24.873 10.6375 24.676 10.7539C24.6265 10.7789 24.5691 10.7838 24.516 10.7674H24.5165ZM23.0501 8.71443L24.5565 10.2209C24.6602 10.1483 24.7583 10.0681 24.85 9.98094C25.2929 9.53928 25.5423 8.93988 25.5435 8.31443C25.5446 7.7547 25.3405 7.21398 24.97 6.79443L23.0501 8.71443Z" fill="#FF6C37"/>
<path d="M21.6767 10.4744C21.4961 10.3048 21.2576 10.2104 21.0099 10.2104C20.7622 10.2104 20.5238 10.3048 20.3432 10.4744L14.3037 16.5005L15.3037 17.514L21.6902 11.9139C21.7876 11.8206 21.8648 11.7083 21.9172 11.584C21.9695 11.4596 21.9959 11.3259 21.9946 11.191C21.9934 11.0561 21.9645 10.9229 21.9098 10.7996C21.8551 10.6763 21.7758 10.5654 21.6767 10.4739V10.4744Z" fill="white"/>
<path d="M15.2497 17.7544C15.1899 17.753 15.1329 17.7292 15.0897 17.6879L14.0762 16.6744C14.033 16.6297 14.0088 16.5699 14.0088 16.5077C14.0088 16.4455 14.033 16.3857 14.0762 16.3409L20.1161 10.3274C20.2901 10.1537 20.5123 10.0362 20.7538 9.99021C20.9953 9.94423 21.2451 9.97189 21.4708 10.0696C21.6964 10.1673 21.8875 10.3305 22.0192 10.5381C22.151 10.7458 22.2173 10.9882 22.2096 11.2339C22.2027 11.4007 22.1625 11.5645 22.0915 11.7156C22.0205 11.8667 21.9201 12.0021 21.7961 12.1139L15.4097 17.7139C15.3632 17.7468 15.3061 17.7611 15.2497 17.7539V17.7544ZM14.5432 16.5004L15.2097 17.1804L21.4761 11.7269C21.6311 11.5919 21.7236 11.3989 21.7296 11.1934C21.7356 10.9879 21.6546 10.7869 21.5031 10.6469C21.3632 10.5076 21.1738 10.4294 20.9764 10.4294C20.7789 10.4294 20.5895 10.5076 20.4496 10.6469L14.5432 16.5004Z" fill="#FF6C37"/>
<path d="M9.62358 23.3674C9.60652 23.3906 9.59732 23.4186 9.59732 23.4474C9.59732 23.4762 9.60652 23.5042 9.62358 23.5274L9.89007 24.6874C9.90075 24.7557 9.89063 24.8256 9.86102 24.888C9.83141 24.9504 9.78369 25.0025 9.72408 25.0374C9.66467 25.0722 9.59578 25.0872 9.52731 25.0803C9.45884 25.0733 9.39433 25.0449 9.34308 24.9989L7.5166 23.2389L13.21 17.5004H15.1835L16.517 18.8339C14.4369 20.6526 12.1175 22.178 9.62358 23.3674Z" fill="white"/>
<path d="M9.50302 25.3274C9.35202 25.3244 9.20302 25.2624 9.10302 25.1539L7.35654 23.4074C7.33152 23.3874 7.31133 23.362 7.29745 23.3332C7.28357 23.3043 7.27637 23.2727 7.27637 23.2407C7.27637 23.2086 7.28357 23.177 7.29745 23.1482C7.31133 23.1193 7.33152 23.0939 7.35654 23.0739L13.0895 17.3274C13.1216 17.2933 13.1635 17.2701 13.2095 17.2609H15.196C15.2477 17.2426 15.3042 17.2426 15.356 17.2609L16.6895 18.5944C16.7148 18.6178 16.7341 18.647 16.7457 18.6795C16.7573 18.712 16.7608 18.7468 16.756 18.7809C16.7569 18.814 16.7502 18.8469 16.7363 18.877C16.7224 18.9071 16.7018 18.9336 16.676 18.9544L16.5695 19.0479C14.4809 20.7891 12.1832 22.2626 9.72952 23.4344L9.98301 24.5144C10.0026 24.5977 10.0034 24.6844 9.98521 24.768C9.96706 24.8516 9.93047 24.9302 9.8781 24.9979C9.82574 25.0656 9.75892 25.1207 9.68252 25.1593C9.60613 25.1979 9.52208 25.2189 9.43652 25.2209L9.50302 25.3274ZM7.87653 23.2339L9.44952 24.8204C9.46418 24.8335 9.48313 24.8407 9.50277 24.8407C9.52241 24.8407 9.54136 24.8335 9.55602 24.8204C9.56582 24.8068 9.5711 24.7904 9.5711 24.7737C9.5711 24.7569 9.56582 24.7405 9.55602 24.7269L9.28952 23.5669C9.26852 23.4837 9.27696 23.3957 9.31341 23.318C9.34986 23.2402 9.41208 23.1775 9.48952 23.1404C11.8772 21.9843 14.1157 20.5426 16.156 18.8469L15.0625 17.7534H13.276L7.87653 23.2339Z" fill="#FF6C37"/>
<path d="M6.14321 24.6074L7.4767 23.2739L9.53018 25.3274L6.26371 25.1009C6.20763 25.0965 6.15437 25.0745 6.11153 25.0381C6.06869 25.0016 6.03846 24.9525 6.02515 24.8979C6.01185 24.8432 6.01615 24.7858 6.03744 24.7337C6.05873 24.6816 6.09592 24.6376 6.14371 24.6079L6.14321 24.6074Z" fill="white"/>
<path d="M9.57009 25.5274L6.31663 25.3009C6.12363 25.2829 5.95764 25.1509 5.88964 24.9744C5.82164 24.7979 5.86314 24.5884 5.99664 24.4474L7.33012 23.1139C7.37487 23.0707 7.43465 23.0465 7.49687 23.0465C7.55908 23.0465 7.61887 23.0707 7.66362 23.1139L9.70359 25.1539C9.73183 25.1926 9.74705 25.2393 9.74705 25.2872C9.74705 25.3351 9.73183 25.3817 9.70359 25.4204C9.67275 25.4703 9.62557 25.5079 9.57009 25.5269V25.5274ZM6.31663 24.7809L8.9831 24.9544L7.51662 23.5809L6.31663 24.7809Z" fill="#FF6C37"/>
<path d="M15.3702 17.6614L12.6768 18.0749L14.2367 16.5284L15.3702 17.6614Z" fill="white"/>
<path d="M12.6761 18.3274C12.6314 18.3286 12.5873 18.3166 12.5493 18.2928C12.5113 18.2691 12.4812 18.2347 12.4626 18.1939C12.4343 18.1553 12.4189 18.1086 12.4189 18.0607C12.4189 18.0127 12.4343 17.966 12.4626 17.9274L14.0091 16.3674C14.056 16.3233 14.118 16.2988 14.1824 16.2988C14.2467 16.2988 14.3087 16.3233 14.3556 16.3674L15.4896 17.5004C15.5122 17.5363 15.5243 17.5779 15.5243 17.6204C15.5243 17.6629 15.5122 17.7045 15.4896 17.7404C15.4785 17.7842 15.455 17.8239 15.4219 17.8546C15.3888 17.8854 15.3476 17.906 15.3031 17.9139L12.6366 18.3274H12.6761ZM14.2361 16.8739L13.3696 17.7404L14.8631 17.5139L14.2361 16.8739Z" fill="#FF6C37"/>
<path d="M15.3703 17.6604L13.4904 17.9004C13.4401 17.9119 13.3874 17.9068 13.3402 17.8859C13.2931 17.865 13.2538 17.8295 13.2284 17.7846C13.203 17.7398 13.1927 17.6879 13.1991 17.6367C13.2055 17.5855 13.2282 17.5377 13.2639 17.5004L14.2374 16.5269L15.3703 17.6604Z" fill="white"/>
<path d="M13.4365 18.1545C13.3494 18.1536 13.264 18.1297 13.1891 18.0852C13.1142 18.0407 13.0524 17.9771 13.01 17.901C12.9591 17.8097 12.9394 17.7043 12.9538 17.6008C12.9683 17.4973 13.0161 17.4013 13.09 17.3275L14.0635 16.354C14.1104 16.3099 14.1724 16.2853 14.2368 16.2853C14.3012 16.2853 14.3631 16.3099 14.41 16.354L15.5435 17.4875C15.5772 17.5194 15.6009 17.5604 15.6118 17.6056C15.6227 17.6507 15.6202 17.6981 15.6047 17.7418C15.5892 17.7856 15.5613 17.8239 15.5244 17.8522C15.4876 17.8804 15.4433 17.8974 15.397 17.901L13.5305 18.141L13.4365 18.1545ZM13.4365 17.661L14.85 17.4875L14.2235 16.861L13.4235 17.661H13.4365ZM25.0364 8.02094C25.0113 7.97887 24.9716 7.94748 24.9249 7.93273C24.8782 7.91799 24.8277 7.92091 24.7829 7.94094C24.7609 7.95213 24.7413 7.96763 24.7253 7.98652C24.7093 8.00541 24.6973 8.02732 24.6899 8.05094C24.6751 8.09861 24.6798 8.15022 24.7029 8.19444C24.7964 8.39094 24.7704 8.62344 24.6364 8.79444C24.6198 8.81092 24.6068 8.83067 24.5981 8.85244C24.5895 8.87422 24.5856 8.89755 24.5864 8.92094C24.5869 8.96784 24.6047 9.01289 24.6364 9.04745C24.6706 9.06095 24.7087 9.06095 24.7429 9.04745C24.774 9.05525 24.8066 9.05439 24.8372 9.04496C24.8678 9.03552 24.8952 9.01788 24.9164 8.99395C25.0262 8.85952 25.0958 8.69678 25.117 8.52452C25.1382 8.35226 25.1103 8.17751 25.0364 8.02044V8.02094Z" fill="#FF6C37"/>
</svg>
