<svg width="28" height="32" viewBox="0 0 28 32" fill="none" xmlns="http://www.w3.org/2000/svg">
<path fill-rule="evenodd" clip-rule="evenodd" d="M27.158 24.3795L16.0838 1.00943C15.9462 0.721814 15.7329 0.476521 15.4665 0.299512C15.2001 0.122504 14.8905 0.020365 14.5705 0.00390713C14.2499 -0.0174396 13.9295 0.0489793 13.6442 0.19594C13.3589 0.342901 13.1197 0.564778 12.9524 0.83744L0.941292 20.1695C0.758643 20.4614 0.663524 20.799 0.667089 21.1427C0.670653 21.4864 0.772753 21.822 0.961416 22.1101L6.83377 31.147C7.05594 31.4862 7.38251 31.745 7.76477 31.8847C8.14704 32.0244 8.56451 32.0375 8.9549 31.9221L25.9964 26.9129C26.253 26.8384 26.4905 26.71 26.6928 26.5364C26.8952 26.3628 27.0576 26.148 27.1693 25.9066C27.2793 25.6665 27.3354 25.4054 27.3336 25.1415C27.3318 24.8777 27.2722 24.6174 27.1588 24.3787L27.158 24.3795ZM24.6786 25.3819L10.2179 29.6311C9.77679 29.7615 9.35337 29.3815 9.44514 28.9392L14.6115 4.35636C14.7081 3.89639 15.3473 3.8236 15.5493 4.24917L25.1133 24.4315C25.1556 24.5215 25.1778 24.6195 25.1783 24.7187C25.1787 24.818 25.1576 24.9162 25.1162 25.0065C25.0748 25.0969 25.0141 25.1772 24.9385 25.242C24.8628 25.3068 24.7739 25.3545 24.6778 25.3819H24.6786Z" fill="#2F855A"/>
</svg>
