<svg width="32" height="32" viewBox="0 0 32 32" fill="none" xmlns="http://www.w3.org/2000/svg">
<path d="M15.9999 18.8209C17.5095 18.8209 18.7333 17.5578 18.7333 15.9997C18.7333 14.4416 17.5095 13.1785 15.9999 13.1785C14.4904 13.1785 13.2666 14.4416 13.2666 15.9997C13.2666 17.5578 14.4904 18.8209 15.9999 18.8209Z" fill="#61DAFB"/>
<path d="M16.0007 21.7798C24.1008 21.7798 30.6673 19.192 30.6673 15.9998C30.6673 12.8076 24.1008 10.2198 16.0007 10.2198C7.90048 10.2198 1.33398 12.8076 1.33398 15.9998C1.33398 19.192 7.90048 21.7798 16.0007 21.7798Z" stroke="#61DAFB"/>
<path d="M11.1495 18.8898C15.1996 26.1302 20.6541 30.7059 23.3325 29.1097C26.011 27.5136 24.899 20.3502 20.849 13.1097C16.7989 5.8693 11.3443 1.29365 8.66588 2.88976C5.98744 4.48587 7.09939 11.6493 11.1495 18.8898Z" stroke="#61DAFB"/>
<path d="M11.1508 13.1098C7.10069 20.3502 5.98875 27.5137 8.66719 29.1098C11.3456 30.7059 16.8002 26.1302 20.8503 18.8898C24.9003 11.6493 26.0123 4.48589 23.3339 2.88978C20.6554 1.29368 15.2009 5.86932 11.1508 13.1098Z" stroke="#61DAFB"/>
</svg>
