<svg width="31" height="33" viewBox="0 0 31 33" fill="none" xmlns="http://www.w3.org/2000/svg">
<path d="M30.1434 0.0647583L27.4711 28.8614L15.4588 32.0648L3.47957 28.8659L0.810059 0.0647583H30.1434Z" fill="#264DE4"/>
<path d="M25.1833 27.0277L27.467 2.41968H15.4768V29.6163L25.1833 27.0277Z" fill="#2965F1"/>
<path d="M6.92993 13.1016L7.25906 16.6339H15.4768V13.1016H6.92993Z" fill="#EBEBEB"/>
<path d="M15.4768 5.95202H15.4641H6.26855L6.60237 9.48441H15.4768V5.95202Z" fill="#EBEBEB"/>
<path d="M15.4768 25.9505V22.2754L15.4607 22.2795L11.3709 21.2173L11.1094 18.4001H9.12212H7.4231L7.93757 23.9464L15.4599 25.9551L15.4768 25.9505Z" fill="#EBEBEB"/>
<path d="M19.986 16.6339L19.5598 21.2151L15.4641 22.2784V25.9534L22.9924 23.9464L23.0476 23.3496L23.9105 14.0501L24.0001 13.1016L24.6631 5.95202H15.4641V9.48441H20.6386L20.3045 13.1016H15.4641V16.6339H19.986Z" fill="white"/>
</svg>
