<svg width="29" height="21" viewBox="0 0 29 21" fill="none" xmlns="http://www.w3.org/2000/svg">
<path d="M28.6387 7.9274C28.5627 7.86437 27.8538 7.3049 26.3588 7.3049C25.964 7.3067 25.5701 7.34209 25.1808 7.41073C24.8915 5.33784 23.2518 4.3272 23.1782 4.28186L22.7768 4.03989L22.5127 4.43811C22.1821 4.97304 21.9407 5.56273 21.799 6.18212C21.5313 7.36539 21.6941 8.47679 22.2692 9.42694C21.5747 9.83143 20.4607 9.93099 20.2353 9.9398H1.79127C1.30952 9.94049 0.918597 10.3474 0.915971 10.8509C0.894458 12.5397 1.16821 14.2184 1.72375 15.8044C2.35911 17.5459 3.30436 18.8287 4.53413 19.6138C5.91219 20.4959 8.15108 20.9999 10.689 20.9999C11.8355 21.0037 12.9798 20.8952 14.107 20.6761C15.6739 20.3754 17.1816 19.803 18.5679 18.9824C19.7101 18.2911 20.7381 17.4116 21.6122 16.3778C23.0734 14.6489 23.9439 12.7234 24.5913 11.0122H24.8493C26.4492 11.0122 27.4331 10.343 27.9756 9.78228C28.3361 9.42465 28.6176 8.98899 28.8003 8.50579L28.9148 8.15549L28.6387 7.9274Z" fill="#2496ED"/>
<path d="M3.50095 9.37529H5.97253C6.09174 9.37529 6.18833 9.2743 6.18833 9.14975V6.84873C6.189 6.72414 6.09291 6.62261 5.97375 6.62191C5.97335 6.62191 5.97292 6.62191 5.97253 6.62191H3.50095C3.38175 6.62191 3.28516 6.72291 3.28516 6.84746V6.84873V9.14971C3.28516 9.2743 3.38175 9.37529 3.50095 9.37529V9.37529Z" fill="#2496ED"/>
<path d="M6.90675 9.37529H9.37833C9.49753 9.37529 9.59412 9.2743 9.59412 9.14975V6.84873C9.59479 6.72414 9.49871 6.62261 9.3795 6.62191C9.37911 6.62191 9.37868 6.62191 9.37829 6.62191H6.90671C6.78684 6.62191 6.6897 6.72344 6.6897 6.84873V9.14971C6.6904 9.2745 6.78735 9.37529 6.90675 9.37529" fill="#2496ED"/>
<path d="M10.3645 9.37529H12.8361C12.9553 9.37529 13.0519 9.2743 13.0519 9.14975V6.84873C13.0526 6.72414 12.9565 6.62261 12.8373 6.62191C12.8369 6.62191 12.8364 6.62191 12.8361 6.62191H10.3645C10.2453 6.62191 10.1487 6.72291 10.1487 6.84746V6.84873V9.14971C10.1487 9.2743 10.2454 9.37529 10.3645 9.37529V9.37529Z" fill="#2496ED"/>
<path d="M13.7815 9.37529H16.253C16.3724 9.37529 16.4694 9.27454 16.4701 9.14975V6.84873C16.4701 6.72344 16.3729 6.62191 16.253 6.62191H13.7815C13.6623 6.62191 13.5657 6.72291 13.5657 6.84746V6.84873V9.14971C13.5657 9.2743 13.6623 9.37529 13.7815 9.37529V9.37529Z" fill="#2496ED"/>
<path d="M6.90671 6.06496H9.37829C9.49765 6.06426 9.59408 5.96289 9.59408 5.83814V3.53716C9.59408 3.41257 9.49745 3.31161 9.37829 3.31161H6.90671C6.78735 3.31161 6.69036 3.41237 6.6897 3.53716V5.83814C6.69036 5.96314 6.78711 6.06426 6.90671 6.06496Z" fill="#2496ED"/>
<path d="M10.3645 6.06496H12.8361C12.9554 6.06426 13.0519 5.96289 13.0519 5.83814V3.53716C13.0519 3.41257 12.9552 3.31161 12.8361 3.31161H10.3645C10.2453 3.31161 10.1487 3.41261 10.1487 3.53716V5.83814C10.1487 5.96289 10.2451 6.06426 10.3645 6.06496Z" fill="#2496ED"/>
<path d="M13.7815 6.06496H16.253C16.3726 6.06426 16.4694 5.96314 16.4701 5.83814V3.53716C16.4694 3.41237 16.3724 3.31161 16.253 3.31161H13.7815C13.6623 3.31161 13.5657 3.41261 13.5657 3.53716V5.83814C13.5657 5.96289 13.6621 6.06426 13.7815 6.06496Z" fill="#2496ED"/>
<path d="M13.7815 2.75338H16.253C16.3724 2.75338 16.4694 2.65259 16.4701 2.52784V0.225548C16.4694 0.100753 16.3724 0 16.253 0H13.7815C13.6623 0 13.5657 0.100958 13.5657 0.225548V2.5278C13.5657 2.65239 13.6623 2.75338 13.7815 2.75338Z" fill="#2496ED"/>
<path d="M17.2285 9.37529H19.7001C19.8195 9.37529 19.9164 9.27454 19.9171 9.14975V6.84873C19.9171 6.72344 19.8199 6.62191 19.7001 6.62191H17.2285C17.1093 6.62191 17.0127 6.72291 17.0127 6.84746V6.84873V9.14971C17.0127 9.2743 17.1093 9.37529 17.2285 9.37529" fill="#2496ED"/>
</svg>
