<svg  viewBox="0 0 25 25" fill="none" xmlns="http://www.w3.org/2000/svg">
<path d="M8.86939 24.1503C11.0774 24.1503 12.8694 22.3583 12.8694 20.1503V16.1503H8.86939C6.66139 16.1503 4.86938 17.9423 4.86938 20.1503C4.86938 22.3583 6.66139 24.1503 8.86939 24.1503Z" fill="#0ACF83"/>
<path d="M4.86938 12.1503C4.86938 9.94231 6.66139 8.15031 8.86939 8.15031H12.8694V16.1503H8.86939C6.66139 16.1503 4.86938 14.3583 4.86938 12.1503Z" fill="#A259FF"/>
<path d="M4.86938 4.15033C4.86938 1.94233 6.66139 0.15033 8.86939 0.15033H12.8694V8.15032H8.86939C6.66139 8.15032 4.86938 6.35833 4.86938 4.15033Z" fill="#F24E1E"/>
<path d="M12.8694 0.15033H16.8694C19.0774 0.15033 20.8694 1.94233 20.8694 4.15033C20.8694 6.35833 19.0774 8.15032 16.8694 8.15032H12.8694V0.15033Z" fill="#FF7262"/>
<path d="M20.8694 12.1503C20.8694 14.3583 19.0774 16.1503 16.8694 16.1503C14.6614 16.1503 12.8694 14.3583 12.8694 12.1503C12.8694 9.94231 14.6614 8.15031 16.8694 8.15031C19.0774 8.15031 20.8694 9.94231 20.8694 12.1503Z" fill="#1ABCFE"/>
</svg>

