<svg width="32" height="33" viewBox="0 0 32 33" fill="none" xmlns="http://www.w3.org/2000/svg">
<path fill-rule="evenodd" clip-rule="evenodd" d="M18.8159 3.73185L25.593 7.53099C25.7887 7.32999 26.0132 7.15748 26.2597 7.0188C27.6652 6.23427 29.4579 6.70007 30.2743 8.06476C31.0824 9.42944 30.6026 11.1699 29.197 11.9626C28.9524 12.0993 28.6888 12.2013 28.4143 12.2652V19.8662C28.6858 19.9303 28.9465 20.0315 29.1887 20.1668C30.6026 20.9595 31.0824 22.7001 30.266 24.0648C29.4579 25.4293 27.6568 25.8951 26.2512 25.1107C25.9789 24.959 25.7336 24.7657 25.5248 24.5381L18.7889 28.3139C18.8875 28.6039 18.9376 28.9074 18.9373 29.2128C18.9373 30.7817 17.6244 32.0648 15.9999 32.0648C14.3755 32.0648 13.0626 30.7898 13.0626 29.2128C13.0626 28.9324 13.1041 28.6617 13.1814 28.4059L6.4061 24.6079C6.21259 24.8049 5.99122 24.9742 5.74863 25.1107C4.33467 25.8951 2.5419 25.4293 1.73386 24.0648C0.925939 22.7001 1.4057 20.9595 2.81117 20.1668C3.0533 20.0314 3.31403 19.9302 3.58553 19.8661V12.2652C3.31103 12.2013 3.04743 12.0993 2.80281 11.9626C1.39722 11.1782 0.91746 9.42944 1.7255 8.06476C2.53354 6.70007 4.33456 6.23427 5.74015 7.0188C5.98525 7.15674 6.20868 7.32814 6.40358 7.52776L13.1827 3.72762C13.1028 3.46428 13.0623 3.19115 13.0626 2.91662C13.0626 1.33967 14.3755 0.0647583 15.9999 0.0647583C17.6244 0.0647583 18.9373 1.33956 18.9373 2.91662C18.9373 3.20008 18.8949 3.47364 18.8159 3.73185ZM18.1099 4.9024L24.9031 8.71044C24.795 9.07757 24.7639 9.46207 24.8119 9.84107C24.8599 10.2201 24.9859 10.5858 25.1824 10.9166C25.5959 11.615 26.2695 12.0781 27.0172 12.2585V19.869C26.979 19.878 26.9411 19.8879 26.9034 19.8984L18.0309 4.97861C18.0577 4.95369 18.0841 4.92833 18.1099 4.90252V4.9024ZM13.9708 4.98028L5.09837 19.8998C5.06 19.8891 5.02142 19.879 4.98264 19.8698V12.2585C5.73029 12.0781 6.40393 11.615 6.81746 10.9166C7.01436 10.5852 7.14046 10.2187 7.18824 9.8389C7.23602 9.45913 7.2045 9.0739 7.09555 8.70622L13.8869 4.89929C13.9143 4.92677 13.9422 4.9538 13.9708 4.98017V4.98028ZM16.8207 5.65611L25.691 20.5723C25.4878 20.7606 25.3137 20.9763 25.1739 21.2128C25.0345 21.4479 24.9302 21.701 24.8643 21.9646H7.13577C7.06974 21.701 6.96542 21.4479 6.82594 21.2128C6.68569 20.9779 6.51185 20.7635 6.30963 20.576L15.1817 5.65678C15.4477 5.73114 15.7231 5.76874 15.9999 5.76848C16.2849 5.76848 16.5602 5.72932 16.8207 5.65611ZM18.1722 27.2915L24.9214 23.5082C24.9011 23.4464 24.883 23.384 24.8672 23.3211H7.13199C7.12259 23.3581 7.11239 23.3948 7.10151 23.4314L13.8837 27.2333C14.1576 26.9568 14.4862 26.737 14.8499 26.5871C15.2136 26.4371 15.6048 26.3602 15.9999 26.3609C16.4088 26.3602 16.8134 26.4427 17.1875 26.603C17.5616 26.7632 17.8971 26.9978 18.1722 27.2915V27.2915Z" fill="#E535AB"/>
</svg>
