<svg  viewBox="0 0 26 29" fill="none" xmlns="http://www.w3.org/2000/svg">
<path d="M24.3931 13.9523C24.3931 12.5129 23.2118 11.346 21.7546 11.346C21.6608 11.346 21.5684 11.351 21.4772 11.3605L25.1011 0.802769H9.70074L13.3196 11.3513C13.2662 11.348 13.2128 11.3463 13.1592 11.3461C11.7021 11.3461 10.5208 12.5128 10.5208 13.9524C10.5208 15.1158 11.2927 16.1008 12.3581 16.4359C11.7954 17.3987 11.0874 18.2658 10.2835 19.0151C9.19033 20.0336 7.9393 20.8061 6.58623 21.282C4.97525 20.4645 4.21455 18.6465 4.90092 17.0525C4.97846 16.8725 5.0576 16.69 5.13323 16.5084C6.30029 16.2393 7.17007 15.2059 7.17007 13.971C7.17007 12.5316 5.98874 11.3648 4.53152 11.3648C3.0743 11.3648 1.89308 12.5316 1.89308 13.971C1.89308 14.8537 2.3376 15.6333 3.01725 16.1048C2.36422 17.5735 1.40425 19.1106 1.10516 20.8921C0.746702 23.0271 1.10395 25.2934 2.97336 26.5733C7.32705 29.5539 12.0529 24.7255 17.0358 23.5117C18.8416 23.0719 20.8239 23.1427 22.4149 22.2326C23.6097 21.549 24.3974 20.4162 24.6209 19.1444C24.8418 17.8881 24.5198 16.6371 23.7794 15.6228C24.1766 15.1547 24.3939 14.5631 24.3931 13.9523" fill="#99425B"/>
<path d="M23.9859 19.0355C23.7918 20.1397 23.1014 21.1041 22.0919 21.6818C21.1507 22.2202 20.0229 22.3809 18.8287 22.551C18.189 22.642 17.5276 22.7364 16.8814 22.8937C15.1728 23.3099 13.5178 24.1219 11.9174 24.9072C8.71453 26.4786 5.94854 27.8356 3.34042 26.05C1.42994 24.7422 1.51812 22.3223 1.74068 20.9963C1.94698 19.7677 2.5047 18.6362 3.04394 17.542C3.13581 17.3561 3.22694 17.1698 3.31732 16.9831C3.58915 17.0904 3.87437 17.1611 4.1653 17.1932C3.61632 18.9828 4.47966 20.9287 6.29162 21.8482L6.5397 21.9741L6.80224 21.8817C8.23475 21.3777 9.55478 20.5692 10.7256 19.478C11.4823 18.7727 12.1331 17.9924 12.6679 17.1587C12.8305 17.1829 12.9947 17.1951 13.1591 17.1951C14.8222 17.1951 16.1994 15.967 16.4125 14.3808C17.0933 14.3562 17.8163 14.356 18.501 14.3806C18.7139 15.967 20.0913 17.1952 21.7544 17.1952C22.4498 17.1952 23.0948 16.9799 23.6262 16.6142C23.9951 17.3602 24.1328 18.1995 23.9859 19.0355V19.0355ZM4.53149 12.0013C5.63106 12.0013 6.52554 12.885 6.52554 13.9711C6.52554 14.3612 6.40964 14.725 6.21067 15.0314C5.87924 15.542 5.31579 15.892 4.66848 15.9356C4.62319 15.9386 4.57749 15.9408 4.53149 15.9408C4.28643 15.9408 4.05171 15.8967 3.83467 15.8165C3.39755 15.6541 3.03151 15.3462 2.79968 14.9457C2.62753 14.6491 2.53708 14.3131 2.53734 13.9711C2.53734 12.885 3.43192 12.0013 4.53149 12.0013V12.0013ZM11.1652 13.9524C11.1652 12.9655 11.9037 12.1462 12.8632 12.0045C12.9599 11.9901 13.0587 11.9827 13.1592 11.9827C13.7985 11.9827 14.3677 12.2818 14.7326 12.7453C14.8241 12.8609 14.9021 12.9861 14.9655 13.1188C15.0894 13.3796 15.1535 13.6642 15.1533 13.9524C15.1533 14.1098 15.134 14.2629 15.0985 14.4097C14.9042 15.2133 14.2105 15.8276 13.3604 15.9121C13.2943 15.9187 13.2272 15.9221 13.1592 15.9221C12.7757 15.9224 12.4003 15.8127 12.0785 15.6065C11.5295 15.2552 11.1652 14.6451 11.1652 13.9524V13.9524ZM19.4878 11.6101C19.0538 12.0192 18.7415 12.5378 18.5848 13.1098C17.8331 13.0824 17.0808 13.0824 16.3292 13.1098C16.1604 12.4915 15.8107 11.9461 15.3402 11.5318L17.4036 7.41046L19.4878 11.6101ZM10.5994 1.4395H24.2021L20.9893 10.7993C20.8511 10.832 20.7151 10.8736 20.5824 10.9238L17.4086 4.52855L14.2258 10.8856C14.0871 10.8386 13.9453 10.8008 13.8014 10.7726L10.5994 1.4395ZM23.7485 13.9525C23.7485 14.1499 23.7186 14.3406 23.6637 14.5206C23.5333 14.9446 23.2627 15.313 22.895 15.5668C22.5609 15.7984 22.1626 15.9225 21.7544 15.9221C20.8337 15.9221 20.057 15.3024 19.8286 14.4631C19.7833 14.2966 19.7603 14.1249 19.7604 13.9525C19.7604 13.6832 19.8154 13.4265 19.9148 13.1925C19.9661 13.0728 20.0293 12.9584 20.1034 12.8511C20.4623 12.3278 21.0678 11.9828 21.7544 11.9828C21.8174 11.9828 21.8794 11.986 21.941 11.9917C22.9534 12.0849 23.7486 12.9284 23.7486 13.9525H23.7485ZM25.0373 13.9525C25.0373 12.3693 23.8825 11.0483 22.3615 10.7662L25.9999 0.16626H8.80181L12.4458 10.7876C10.9777 11.1103 9.87637 12.4063 9.87637 13.9524C9.87637 15.1133 10.4975 16.133 11.4283 16.706C10.9806 17.3649 10.4497 17.985 9.84122 18.5521C8.87624 19.4512 7.80127 20.1332 6.64235 20.5819C5.47498 19.8576 4.98154 18.4915 5.49396 17.3016L5.53414 17.2084L5.60947 17.0334C6.89163 16.5916 7.81433 15.3862 7.81433 13.9711C7.81433 12.183 6.34164 10.7283 4.53149 10.7283C2.72134 10.7283 1.24845 12.183 1.24845 13.9711C1.24845 14.8736 1.62408 15.6909 2.2285 16.2794C2.11577 16.5153 2.00134 16.7505 1.88521 16.9848C1.33251 18.1059 0.706196 19.3767 0.469268 20.7879C-0.0011727 23.5906 0.757719 25.831 2.60624 27.0964C3.7279 27.8643 4.86705 28.1663 6.01332 28.1663C8.17168 28.1663 10.3552 27.0951 12.4907 26.0473C14.0287 25.2928 15.6191 24.5125 17.19 24.1298C17.7745 23.9874 18.3759 23.9017 19.0127 23.811C20.2755 23.631 21.5811 23.445 22.7378 22.7834C24.0785 22.0163 24.9962 20.7296 25.2557 19.2534C25.4785 17.986 25.2104 16.7166 24.5566 15.64C24.8716 15.1321 25.038 14.548 25.0373 13.9524V13.9525Z" fill="white"/>
</svg>
