<svg width="33" height="32" viewBox="0 0 33 32" fill="none" xmlns="http://www.w3.org/2000/svg">
<path d="M28.7383 16.0024C28.7383 9.24521 23.2542 3.76107 16.497 3.76107C9.73999 3.76107 4.25586 9.24521 4.25586 16.0024C4.25586 22.7594 9.73999 28.2436 16.4972 28.2436C23.2542 28.2436 28.7383 22.7594 28.7383 16.0022" fill="#00007D"/>
<path d="M25.1542 10.9306C25.1542 8.95152 23.548 7.34515 21.5689 7.34515C19.5898 7.34515 17.9834 8.95152 17.9834 10.9306C17.9834 12.9097 19.5898 14.516 21.5689 14.516C23.548 14.516 25.1542 12.9097 25.1542 10.9306Z" fill="white"/>
<path d="M32.3238 3.76107C32.3238 1.78198 30.7175 0.175735 28.7384 0.175735C26.7593 0.175735 25.1531 1.78198 25.1531 3.76107C25.1531 5.74029 26.7593 7.34654 28.7384 7.34654C30.7175 7.34654 32.3238 5.74029 32.3238 3.76107Z" fill="#00007D"/>
<path d="M8.15062 14.2178H9.22116V21.1788H13.1857V22.1202H8.15062V14.2178ZM15.1169 16.3589V20.1836C15.1169 20.4776 15.1623 20.718 15.2533 20.9044C15.4209 21.2487 15.7334 21.421 16.191 21.421C16.8476 21.421 17.2946 21.1195 17.5322 20.5172C17.6614 20.1943 17.726 19.7514 17.726 19.1883V16.3589H18.6941V22.1202H17.7798L17.7906 21.2703C17.6672 21.489 17.5142 21.6736 17.331 21.8244C16.9687 22.1255 16.5288 22.2763 16.0115 22.2763C15.2056 22.2763 14.6566 22.0018 14.3647 21.4531C14.2064 21.1592 14.1271 20.7664 14.1271 20.275V16.3589H15.1169M23.3638 18.6335C23.586 18.6049 23.7349 18.5118 23.8103 18.3542C23.8531 18.2679 23.8747 18.1437 23.8747 17.9816C23.8747 17.6505 23.7574 17.4101 23.523 17.2608C23.2885 17.1113 22.953 17.0366 22.5165 17.0366C22.0118 17.0366 21.6538 17.1736 21.4427 17.4475C21.3245 17.5989 21.2476 17.8243 21.2118 18.1233H20.3081C20.326 17.4111 20.5562 16.9158 20.9986 16.637C21.4408 16.3584 21.954 16.219 22.5379 16.219C23.2148 16.219 23.7648 16.3481 24.1874 16.6063C24.6064 16.8645 24.816 17.2662 24.816 17.8114V21.1307C24.816 21.231 24.8367 21.3118 24.8779 21.3726C24.9191 21.4335 25.0062 21.4639 25.1389 21.4639C25.1819 21.4639 25.2302 21.4613 25.284 21.4559C25.3379 21.4505 25.3953 21.4425 25.4562 21.4317V22.1472C25.3056 22.1901 25.1908 22.217 25.112 22.2277C25.033 22.2385 24.9254 22.244 24.7893 22.244C24.4557 22.244 24.2135 22.1255 24.0629 21.8889C23.984 21.7634 23.9285 21.586 23.8962 21.3564C23.6988 21.6147 23.4155 21.8387 23.0462 22.0289C22.6768 22.2187 22.2697 22.3138 21.8251 22.3138C21.2906 22.3138 20.8541 22.1517 20.5153 21.8276C20.1763 21.5035 20.0068 21.0978 20.0068 20.6106C20.0068 20.077 20.1737 19.6633 20.5071 19.3696C20.8407 19.0759 21.2781 18.8949 21.8197 18.8268L23.3636 18.6335H23.3638ZM6.11162 16.8335C6.31612 16.9946 6.55814 17.075 6.83794 17.075C7.17852 17.075 7.50835 16.9962 7.82767 16.8388C8.36563 16.5774 8.63455 16.1496 8.63455 15.5551V14.7764C8.51647 14.8519 8.36438 14.9148 8.17827 14.9652C7.99215 15.0156 7.80966 15.0515 7.63068 15.0729L7.04544 15.1482C6.69473 15.1948 6.43094 15.2682 6.2542 15.3684C5.95477 15.5365 5.80518 15.8049 5.80518 16.1734C5.80518 16.4525 5.90724 16.6724 6.11162 16.8335V16.8335Z" fill="white"/>
<path d="M17.0664 32L17.0536 31.6329C17.5074 31.617 17.965 31.5812 18.4136 31.5266L18.4581 31.8911C17.9991 31.9471 17.5308 31.9836 17.0664 31.9999V32ZM15.6702 31.9887C15.2066 31.965 14.739 31.9206 14.2805 31.8569L14.3309 31.4932C14.7789 31.5554 15.236 31.5986 15.689 31.6219L15.6702 31.9886V31.9887ZM19.8353 31.6613L19.759 31.3021C20.2024 31.208 20.6467 31.0932 21.0797 30.9606L21.1873 31.3117C20.7419 31.4479 20.2908 31.5646 19.8352 31.6613H19.8353ZM12.9073 31.6045C12.4554 31.5008 12.0026 31.3756 11.5613 31.2327L11.6745 30.8833C12.1073 31.0235 12.546 31.1447 12.9893 31.2465L12.9073 31.6045V31.6045ZM22.5032 30.8448L22.3653 30.5045C22.7867 30.3336 23.2005 30.1444 23.6055 29.9375L23.7726 30.2646C23.3581 30.4763 22.9346 30.6699 22.5032 30.8448V30.8448ZM10.2525 30.7436C9.82376 30.5614 9.40314 30.3607 8.99187 30.1419L9.16448 29.8177C9.56473 30.0308 9.97923 30.2285 10.3961 30.4055L10.2525 30.7436V30.7436ZM24.9869 29.5754L24.7918 29.2642C25.1772 29.0224 25.552 28.7641 25.9152 28.49L26.1366 28.783C25.7649 29.0635 25.3813 29.3279 24.9869 29.5753V29.5754ZM7.78875 29.4323C7.39833 29.1784 7.01908 28.9076 6.65205 28.6209L6.87819 28.3315C7.2368 28.6117 7.60737 28.8763 7.98888 29.1245L7.78875 29.4323V29.4323ZM27.2132 27.894L26.9673 27.6213C27.3041 27.3177 27.6315 26.9959 27.9404 26.6646L28.209 26.9151C27.8912 27.2556 27.559 27.5821 27.2131 27.894H27.2132ZM5.5899 27.7141C5.24928 27.3966 4.92253 27.0645 4.61054 26.7187L4.88321 26.4728C5.18811 26.8106 5.50744 27.1351 5.8403 27.4454L5.5899 27.7141ZM29.1162 25.8535L28.8269 25.6273C29.1072 25.2688 29.3719 24.8983 29.6202 24.5169L29.928 24.7173C29.6739 25.1075 29.4031 25.4866 29.1162 25.8535V25.8535ZM3.72087 25.6426C3.44014 25.2711 3.17564 24.8876 2.92813 24.4932L3.2392 24.2981C3.4811 24.6834 3.73959 25.0581 4.01393 25.4211L3.72087 25.6425V25.6426ZM30.6382 23.5144L30.3142 23.3418C30.5274 22.9415 30.7254 22.5272 30.9026 22.1104L31.2406 22.2541C31.0582 22.6828 30.8572 23.1032 30.6382 23.5144V23.5144ZM2.23845 23.2795C2.02644 22.865 1.8326 22.4415 1.65747 22.0102L1.99768 21.8721C2.16874 22.2935 2.35812 22.7073 2.56528 23.1121L2.23845 23.2795V23.2795ZM31.7302 20.9456L31.3809 20.8321C31.5214 20.3994 31.6428 19.9608 31.7449 19.5175L32.1028 19.5998C31.9983 20.0536 31.8739 20.5026 31.7302 20.9456V20.9456ZM1.19006 20.6944C1.05363 20.2492 0.936775 19.7982 0.839841 19.3427L1.19906 19.2664C1.29377 19.7113 1.4079 20.1519 1.54115 20.5868L1.19006 20.6944ZM32.3562 18.2266L31.9924 18.176C32.0549 17.7282 32.0984 17.2713 32.1216 16.818L32.4885 16.837C32.4644 17.3019 32.4203 17.7655 32.3562 18.2266V18.2266ZM0.609323 17.9657C0.552794 17.5036 0.516237 17.0393 0.499756 16.574L0.866857 16.561C0.882742 17.0146 0.91889 17.4722 0.973798 17.9209L0.609323 17.9657V17.9657ZM32.1332 15.4535C32.1174 15.0008 32.0814 14.543 32.0261 14.0932L32.3906 14.0484C32.4471 14.5088 32.484 14.9774 32.5001 15.4408L32.1332 15.4535ZM0.877114 15.1965L0.510387 15.178C0.533902 14.7142 0.577929 14.2465 0.641343 13.7881L1.00519 13.8384C0.943155 14.2864 0.900128 14.7434 0.877114 15.1965V15.1965ZM31.8008 12.7474C31.7061 12.3022 31.5921 11.8614 31.4591 11.4262L31.8103 11.3189C31.9464 11.7643 32.0631 12.2154 32.16 12.6709L31.8008 12.7474V12.7474ZM1.25109 12.4967L0.893124 12.4147C0.997152 11.9608 1.12101 11.5116 1.26435 11.0686L1.61382 11.1818C1.47377 11.6146 1.35274 12.0533 1.25109 12.4967V12.4967ZM31.0037 10.1396C30.8339 9.71937 30.6435 9.30162 30.4377 8.89787L30.7649 8.73114C30.9763 9.14619 31.1696 9.57023 31.3442 10.002L31.0037 10.1396ZM2.09086 9.90311L1.75278 9.75977C1.9347 9.33088 2.13527 8.91014 2.3539 8.49875L2.6781 8.67123C2.46453 9.07312 2.26859 9.48414 2.09086 9.90311V9.90311ZM3.37078 7.49538L3.06284 7.29525C3.3166 6.90471 3.58714 6.52533 3.87371 6.15818L4.16314 6.38419C3.88313 6.74295 3.61876 7.11365 3.37078 7.49525V7.49538ZM5.04881 5.34592L4.7799 5.09577C5.09727 4.75495 5.4292 4.42799 5.77476 4.11579L6.02091 4.38846C5.68327 4.69349 5.35893 5.01294 5.04881 5.34592V5.34592ZM7.07219 3.51855L6.85055 3.22587C7.22191 2.94496 7.60525 2.68025 7.99951 2.4325L8.19488 2.74344C7.80963 2.98551 7.43504 3.24417 7.07219 3.51867V3.51855ZM25.02 2.88078L25 2.8679L25.1996 2.5597L25.219 2.57221L25.02 2.88078ZM23.8233 2.17697C23.4211 1.96402 23.0099 1.76863 22.5908 1.59136L22.7337 1.25315C23.1627 1.43455 23.5836 1.63453 23.9951 1.85252L23.8233 2.17697ZM9.38049 2.0689L9.21288 1.74208C9.62723 1.52983 10.0506 1.33577 10.4819 1.16047L10.6201 1.50068C10.1988 1.67197 9.78524 1.86156 9.38049 2.0689V2.0689ZM21.3119 1.11544C20.8788 0.975517 20.4399 0.854494 19.9964 0.752715L20.0785 0.394744C20.5305 0.498308 20.9835 0.62326 21.4249 0.765973L21.3119 1.11544V1.11544ZM11.9054 1.04314L11.7976 0.692052C12.2428 0.555444 12.6938 0.438385 13.1492 0.341211L13.2257 0.700307C12.7808 0.795272 12.3403 0.90966 11.9054 1.04314V1.04314ZM18.6543 0.505812C18.2053 0.443274 17.7483 0.399997 17.2957 0.376983L17.3145 0.0102563C17.7775 0.0337708 18.2455 0.0781733 18.705 0.142088L18.6543 0.505812ZM14.5711 0.474668L14.526 0.110193C14.9851 0.0536581 15.4534 0.0166353 15.9178 0L15.9309 0.366976C15.477 0.383237 15.0196 0.419509 14.5711 0.474668V0.474668Z" fill="#929292"/>
</svg>
