<svg width="32" height="32" viewBox="0 0 32 32" fill="none" xmlns="http://www.w3.org/2000/svg">
<path d="M14.6764 0.341395C15.4779 -0.112772 16.5219 -0.114823 17.3227 0.341395C21.3516 2.59502 25.3816 4.84511 29.4098 7.10011C30.1674 7.52259 30.6742 8.3573 30.6665 9.22153V22.7802C30.6721 23.6802 30.1153 24.5349 29.316 24.9478C25.3004 27.189 21.2868 29.4329 17.272 31.6741C16.4539 32.1372 15.389 32.1015 14.5964 31.6005C13.3926 30.9096 12.1866 30.2222 10.9826 29.532C10.7366 29.3868 10.4593 29.2712 10.2855 29.0351C10.4391 28.8301 10.7137 28.8046 10.9368 28.7151C11.4393 28.557 11.9009 28.303 12.3625 28.0566C12.4793 27.9775 12.6218 28.0079 12.7337 28.0786C13.7631 28.6629 14.7835 29.2643 15.8164 29.843C16.0368 29.9689 16.2599 29.8017 16.4482 29.6978C20.3888 27.4931 24.3341 25.2966 28.274 23.0912C28.4199 23.0217 28.5006 22.8683 28.4888 22.71C28.4915 18.2373 28.4895 13.7638 28.4902 9.29105C28.5069 9.11143 28.4019 8.94629 28.2378 8.87278C24.2361 6.64184 20.2366 4.40747 16.2356 2.17596C16.1663 2.12878 16.0842 2.10347 16 2.10334C15.9159 2.10322 15.8337 2.1283 15.7643 2.17527C11.7633 4.40747 7.7644 6.64389 3.76343 8.87472C3.59995 8.94834 3.49023 9.11075 3.50969 9.29105C3.51038 13.7638 3.50969 18.2373 3.50969 22.7107C3.50275 22.7879 3.51989 22.8654 3.55879 22.9327C3.5977 23 3.6565 23.0539 3.72728 23.0871C4.79496 23.6865 5.86401 24.2816 6.93238 24.8789C7.53426 25.1997 8.27325 25.3902 8.93638 25.1445C9.52156 24.9367 9.93176 24.3456 9.92059 23.7305C9.92611 19.2839 9.91783 14.8366 9.92473 10.3906C9.91011 10.1932 10.0993 10.0301 10.2931 10.0487C10.8061 10.0453 11.3198 10.0419 11.8328 10.0501C12.047 10.0453 12.1943 10.2578 12.1678 10.4567C12.1658 14.9315 12.1734 19.4064 12.1644 23.8811C12.1658 25.0737 11.6708 26.3714 10.5565 26.9549C9.18378 27.6589 7.48706 27.5096 6.13088 26.8345C4.95682 26.2544 3.83642 25.5698 2.6832 24.9484C1.88181 24.5377 1.32771 23.6796 1.33335 22.7803V9.22153C1.32495 8.33941 1.85188 7.48954 2.63312 7.07321C6.64802 4.83018 10.6622 2.58545 14.6764 0.341395Z" fill="#8CC84B"/>
<path d="M18.1791 9.73357C19.9302 9.622 21.8048 9.66747 23.3805 10.5214C24.6005 11.1759 25.2769 12.5493 25.2984 13.8911C25.2643 14.072 25.0732 14.1719 24.8987 14.1594C24.3906 14.1588 23.8824 14.1663 23.3744 14.156C23.1589 14.1642 23.0336 13.9675 23.0066 13.7789C22.8606 13.1369 22.5069 12.5011 21.8965 12.1914C20.9595 11.727 19.8731 11.7504 18.8513 11.7601C18.1054 11.7993 17.3034 11.8632 16.6714 12.2974C16.1863 12.6263 16.0389 13.2903 16.2121 13.8251C16.3753 14.209 16.823 14.3329 17.1894 14.4471C19.2996 14.9935 21.5358 14.9391 23.6058 15.6581C24.4628 15.9513 25.3011 16.5211 25.5945 17.4094C25.9782 18.5999 25.81 20.0229 24.9544 20.9787C24.2605 21.7652 23.2499 22.1932 22.242 22.4257C20.9011 22.7217 19.5096 22.7292 18.1479 22.5978C16.8675 22.4533 15.535 22.1203 14.5465 21.2566C13.7013 20.5301 13.2885 19.398 13.3294 18.3054C13.3392 18.1209 13.5248 17.9922 13.7034 18.0074C14.215 18.0033 14.7266 18.0019 15.2382 18.0081C15.4426 17.9936 15.5941 18.1684 15.6046 18.3591C15.699 18.9708 15.9312 19.6128 16.47 19.9754C17.5098 20.6395 18.8145 20.594 20.0051 20.6126C20.9915 20.5693 22.0988 20.5562 22.9038 19.9108C23.3285 19.5427 23.4543 18.9268 23.3395 18.3969C23.2152 17.9496 22.7425 17.7412 22.3365 17.6048C20.2533 16.9525 17.9922 17.1892 15.9291 16.4515C15.0916 16.1585 14.2816 15.6045 13.9599 14.7527C13.5109 13.5471 13.7166 12.0559 14.6619 11.1324C15.5836 10.2138 16.9141 9.86008 18.1791 9.73346V9.73357Z" fill="#8CC84B"/>
</svg>
