<svg width="28" height="28" viewBox="0 0 28 28" fill="none" xmlns="http://www.w3.org/2000/svg">
<path d="M27.9259 16.7726C27.7576 16.2782 27.3168 15.9339 26.7466 15.8513C26.4778 15.8123 26.1699 15.8289 25.8056 15.9018C25.1706 16.0288 24.6995 16.0772 24.3557 16.0866C25.6534 13.9613 26.7087 11.5378 27.3162 9.25638C28.2986 5.56744 27.7736 3.8869 27.1602 3.12676C25.5368 1.11475 23.1683 0.0338735 20.3109 0.000800731C18.7866 -0.0172776 17.4485 0.274634 16.7504 0.484556C16.1005 0.373321 15.4017 0.311216 14.6684 0.299731C13.2939 0.278463 12.0794 0.569099 11.0417 1.16643C10.4672 0.977988 9.54514 0.712343 8.48034 0.542832C5.976 0.144045 3.95756 0.45478 2.48118 1.46642C0.693431 2.69128 -0.13532 4.81942 0.017953 7.79171C0.0666322 8.7354 0.610874 11.6067 1.4678 14.3297C1.96029 15.8949 2.48546 17.1946 3.02871 18.1931C3.79914 19.6091 4.6235 20.4429 5.54896 20.7424C6.06765 20.91 7.0101 21.0274 8.00133 20.2266C8.12698 20.3742 8.29461 20.5209 8.51707 20.6571C8.7996 20.8299 9.14507 20.9711 9.4901 21.0548C10.7335 21.3563 11.8982 21.2809 12.8918 20.8583C12.898 21.0297 12.9027 21.1935 12.9066 21.3349C12.9132 21.5643 12.9198 21.7892 12.9285 21.9996C12.9873 23.4218 13.0871 24.5277 13.3827 25.3014C13.3989 25.344 13.4207 25.4088 13.4437 25.4776C13.5912 25.9156 13.8378 26.6487 14.4651 27.2228C15.1147 27.8176 15.9005 28 16.6202 28C16.9811 28 17.3255 27.9541 17.6275 27.8913C18.7042 27.6675 19.927 27.3265 20.8115 26.1049C21.6478 24.95 22.0544 23.2105 22.1279 20.4697C22.1375 20.3922 22.1462 20.3182 22.1547 20.2477L22.1722 20.1028L22.3692 20.1197L22.42 20.1229C23.5166 20.1714 24.8575 19.9459 25.681 19.5749C26.3317 19.282 28.4169 18.2142 27.9259 16.7726" fill="black"/>
<path d="M26.0509 17.0529C22.7903 17.7054 22.5661 16.6346 22.5661 16.6346C26.0087 11.6797 27.4479 5.39028 26.206 3.85096C22.8178 -0.348004 16.9527 1.63785 16.8548 1.68932L16.8233 1.69485C16.1791 1.56511 15.4582 1.48791 14.6479 1.47504C13.1726 1.45164 12.0534 1.85022 11.2042 2.47488C11.2042 2.47488 0.741455 -1.7059 1.22814 7.73292C1.33164 9.74089 4.19538 22.9265 7.61103 18.9438C8.85948 17.4875 10.0658 16.2561 10.0658 16.2561C10.6649 16.6421 11.3821 16.8391 12.134 16.7684L12.1925 16.7203C12.1743 16.9011 12.1826 17.0779 12.2158 17.2873C11.3359 18.2409 11.5945 18.4083 9.83547 18.7595C8.0555 19.1154 9.10112 19.7488 9.78383 19.9144C10.6115 20.1151 12.5262 20.3995 13.8199 18.6428L13.7684 18.8432C14.1131 19.1111 14.3552 20.5855 14.3146 21.9221C14.2741 23.2586 14.247 24.1762 14.5185 24.893C14.7903 25.6098 15.061 27.2225 17.3735 26.7419C19.3057 26.3402 20.307 25.2994 20.4463 23.5633C20.5451 22.3291 20.7689 22.5116 20.7829 21.408L20.9624 20.8857C21.1693 19.2126 20.9953 18.6728 22.1856 18.9238L22.4751 18.9485C23.3511 18.9871 24.4979 18.8118 25.171 18.5084C26.6201 17.8561 27.4797 16.7668 26.0507 17.0529H26.0509" fill="#336791"/>
<path d="M11.8164 8.63087C11.5225 8.59121 11.2565 8.6279 11.1218 8.72679C11.0462 8.78241 11.0227 8.84685 11.0163 8.8912C10.9995 9.00871 11.0843 9.13866 11.1365 9.20565C11.2841 9.39537 11.4996 9.52574 11.713 9.55446C11.7439 9.55871 11.7747 9.56062 11.8053 9.56062C12.1611 9.56062 12.4846 9.2919 12.5131 9.09357C12.5488 8.84515 12.177 8.67958 11.8164 8.63098V8.63087ZM21.5505 8.63874C21.5224 8.44403 21.1652 8.38852 20.8262 8.43425C20.4876 8.47997 20.1594 8.62821 20.1868 8.82335C20.2087 8.9751 20.4912 9.23415 20.8256 9.23415C20.8539 9.23415 20.8824 9.23234 20.9112 9.22841C21.1344 9.19842 21.2982 9.06092 21.376 8.9817C21.4944 8.86089 21.5631 8.72626 21.5505 8.63874" fill="white"/>
<path d="M27.1358 16.9788C27.0114 16.6142 26.6113 16.4969 25.9464 16.63C23.9724 17.0252 23.2654 16.7515 23.0333 16.5857C24.5677 14.3185 25.83 11.5778 26.5109 9.02075C26.8335 7.80949 27.0117 6.68459 27.0262 5.7677C27.0424 4.76137 26.8656 4.02186 26.5012 3.57012C25.0318 1.74898 22.8752 0.772113 20.2648 0.745315C18.4701 0.725748 16.9538 1.17122 16.6599 1.29649C16.0409 1.14719 15.366 1.05552 14.6313 1.04382C13.2841 1.02266 12.1195 1.33552 11.1554 1.97326C10.7366 1.82204 9.65422 1.46164 8.33056 1.25481C6.0422 0.897492 4.22375 1.16824 2.92607 2.05993C1.37765 3.124 0.662815 5.02606 0.801288 7.71315C0.847884 8.61717 1.37897 11.3983 2.21704 14.0616C3.32022 17.5671 4.51944 19.5516 5.78115 19.9599C5.92884 20.0076 6.0991 20.041 6.28691 20.041C6.74717 20.041 7.31148 19.8398 7.89859 19.1552C8.6147 18.3219 9.35546 17.5089 10.12 16.7171C10.616 16.9753 11.1609 17.1195 11.7182 17.134C11.7193 17.1481 11.7207 17.1623 11.722 17.1763C11.6261 17.2873 11.5321 17.3998 11.4402 17.514C11.0541 17.9894 10.9737 18.0884 9.73075 18.3366C9.37717 18.4075 8.43812 18.5952 8.42431 19.2336C8.40939 19.9313 9.53439 20.2242 9.66256 20.2553C10.1092 20.3638 10.5395 20.4173 10.9499 20.4173C11.948 20.4173 12.8263 20.0991 13.5282 19.4834C13.5066 21.9704 13.6135 24.421 13.9213 25.1676C14.1735 25.7789 14.7894 27.2727 16.7351 27.2726C17.0206 27.2726 17.3348 27.2404 17.6805 27.1685C19.7111 26.7463 20.5929 25.8758 20.934 23.9566C21.1165 22.9309 21.4298 20.4817 21.5771 19.1679C21.8881 19.262 22.2884 19.3051 22.7211 19.305C23.6236 19.305 24.6651 19.119 25.3182 18.825C26.0519 18.4945 27.3759 17.6835 27.1358 16.9788V16.9788ZM22.3001 8.1013C22.2934 8.48914 22.2384 8.84124 22.18 9.20876C22.1172 9.60404 22.0523 10.0127 22.036 10.5088C22.0198 10.9916 22.082 11.4935 22.1421 11.979C22.2636 12.9595 22.3882 13.9689 21.9057 14.9649C21.8256 14.8272 21.7542 14.6848 21.6919 14.5386C21.632 14.3976 21.5017 14.1711 21.3213 13.8576C20.6198 12.6372 18.9768 9.77929 19.8179 8.61313C20.0684 8.26603 20.7042 7.90914 22.3001 8.1013V8.1013ZM20.3656 1.53066C22.7046 1.58075 24.5549 2.42948 25.8649 4.05313C26.8696 5.29851 25.7632 10.9652 22.5604 15.8539C22.5282 15.8142 22.4958 15.7746 22.4632 15.7352L22.4227 15.686C23.2503 14.3602 23.0885 13.0485 22.9444 11.8855C22.8852 11.4083 22.8293 10.9575 22.8436 10.534C22.8583 10.0852 22.9194 9.70028 22.9786 9.32808C23.0513 8.86942 23.1253 8.39481 23.1049 7.83534C23.1202 7.77663 23.1263 7.7073 23.1183 7.62499C23.0662 7.08849 22.4347 5.48281 21.1476 4.02952C20.4435 3.2346 19.4167 2.34504 18.0148 1.74505C18.6178 1.62382 19.4424 1.51077 20.3656 1.53066V1.53066ZM7.27727 18.6541C6.63041 19.4085 6.18374 19.2638 6.03683 19.2164C5.07969 18.9067 3.96906 16.9445 2.98988 13.8329C2.1426 11.1405 1.64747 8.43309 1.60822 7.67391C1.48455 5.27289 2.0846 3.59957 3.39181 2.70033C5.51923 1.23705 9.0169 2.11289 10.4223 2.55709C10.4022 2.57644 10.3811 2.59452 10.3612 2.61419C8.05483 4.87335 8.10953 8.73319 8.11524 8.96917C8.11502 9.0602 8.12291 9.18909 8.13365 9.36636C8.17334 10.0156 8.24724 11.2239 8.04989 12.5922C7.86658 13.8637 8.2707 15.1083 9.15844 16.0068C9.24955 16.0988 9.34531 16.1864 9.44536 16.2692C9.05023 16.6797 8.19143 17.5875 7.27727 18.6541V18.6541ZM9.74182 15.4645C9.02633 14.7403 8.70136 13.733 8.85014 12.7007C9.05845 11.2552 8.98159 9.99634 8.94026 9.32C8.93445 9.22535 8.9293 9.1424 8.92634 9.077C9.26325 8.78722 10.8246 7.97582 11.9381 8.22328C12.4462 8.33611 12.7558 8.67173 12.8845 9.24896C13.5506 12.2375 12.9726 13.4831 12.5082 14.4841C12.4125 14.6903 12.322 14.8853 12.2449 15.0869L12.185 15.2428C12.0335 15.6369 11.8925 16.0034 11.8051 16.3513C11.0444 16.3492 10.3045 16.034 9.74182 15.4644V15.4645ZM9.85859 19.4949C9.63646 19.4411 9.4367 19.3476 9.3195 19.2701C9.41741 19.2255 9.59162 19.1646 9.89378 19.1042C11.356 18.8123 11.5819 18.6062 12.075 17.9989C12.1881 17.8596 12.3162 17.7018 12.4937 17.5095L12.494 17.5093C12.7583 17.2222 12.8792 17.2709 13.0985 17.3591C13.2762 17.4304 13.4493 17.6465 13.5195 17.8843C13.5527 17.9966 13.59 18.2097 13.468 18.3756C12.4378 19.7746 10.9367 19.7566 9.85859 19.4949V19.4949ZM17.5112 26.4022C15.7224 26.7739 15.089 25.8886 14.6716 24.8765C14.4022 24.2232 14.2698 21.2768 14.3637 18.023C14.3649 17.9798 14.3586 17.938 14.3463 17.8986C14.3353 17.8209 14.3186 17.7441 14.2963 17.6687C14.1566 17.1953 13.8162 16.7992 13.4078 16.635C13.2455 16.5699 12.9477 16.4502 12.5899 16.539C12.6662 16.234 12.7985 15.8896 12.942 15.5166L13.0022 15.3598C13.07 15.1829 13.1551 14.9997 13.245 14.8057C13.731 13.7585 14.3966 12.324 13.6742 9.08338C13.4036 7.86958 12.5 7.27682 11.1302 7.41454C10.309 7.49695 9.55763 7.81832 9.18289 8.00261C9.10231 8.04217 9.02863 8.08046 8.95978 8.11768C9.06437 6.89473 9.45951 4.6092 10.9376 3.16314C11.8684 2.25284 13.1078 1.80322 14.618 1.82747C17.5935 1.87468 19.5017 3.35583 20.5785 4.59016C21.5065 5.6537 22.009 6.72511 22.2095 7.30298C20.7015 7.15421 19.6758 7.44293 19.1559 8.16394C18.0248 9.73229 19.7747 12.7763 20.6157 14.2392C20.77 14.5073 20.9031 14.739 20.945 14.8375C21.2188 15.4813 21.5734 15.9112 21.8323 16.2249C21.9116 16.321 21.9886 16.4143 22.0472 16.4957C21.5904 16.6234 20.77 16.9186 20.8447 18.3936C20.7844 19.1338 20.3557 22.5991 20.1378 23.8234C19.8502 25.4409 19.2366 26.0433 17.5112 26.4023V26.4022ZM24.978 18.1142C24.5109 18.3244 23.7293 18.4821 22.9869 18.516C22.1668 18.5533 21.7493 18.4269 21.651 18.3492C21.605 17.43 21.9577 17.3339 22.331 17.2323C22.3897 17.2163 22.4469 17.2007 22.5021 17.182C22.5365 17.2091 22.5741 17.236 22.6153 17.2624C23.2744 17.6843 24.4501 17.7298 26.1099 17.3975L26.1281 17.394C25.9042 17.597 25.5211 17.8695 24.978 18.1142Z" fill="white"/>
</svg>
