<svg width="21" height="25" viewBox="0 0 21 25" fill="none" xmlns="http://www.w3.org/2000/svg">
<path fill-rule="evenodd" clip-rule="evenodd" d="M19.9344 18.9252L11.6288 1.39757C11.5256 1.18186 11.3656 0.997894 11.1658 0.865137C10.966 0.732381 10.7338 0.655777 10.4938 0.643433C10.2533 0.627423 10.013 0.677237 9.79908 0.787458C9.58513 0.897679 9.40568 1.06409 9.28026 1.26858L0.271887 15.7676C0.1349 15.9865 0.0635613 16.2398 0.0662346 16.4975C0.0689079 16.7553 0.145482 17.007 0.28698 17.2231L4.69125 24.0008C4.85787 24.2552 5.1028 24.4492 5.3895 24.554C5.6762 24.6588 5.9893 24.6686 6.28209 24.5821L19.0632 20.8252C19.2557 20.7693 19.4338 20.673 19.5855 20.5428C19.7373 20.4126 19.8591 20.2515 19.9429 20.0705C20.0254 19.8904 20.0675 19.6946 20.0661 19.4967C20.0648 19.2988 20.02 19.1035 19.935 18.9246L19.9344 18.9252ZM18.0749 19.6769L7.22936 22.8638C6.89851 22.9616 6.58094 22.6767 6.64977 22.3449L10.5246 3.90777C10.597 3.5628 11.0764 3.5082 11.2279 3.82738L18.4009 18.9642C18.4326 19.0316 18.4492 19.1051 18.4496 19.1795C18.45 19.254 18.4341 19.3276 18.403 19.3954C18.372 19.4631 18.3265 19.5234 18.2698 19.572C18.213 19.6206 18.1463 19.6564 18.0743 19.6769H18.0749Z" fill="#2F855A"/>
</svg>

