<svg width="27" height="33" viewBox="0 0 27 33" fill="none" xmlns="http://www.w3.org/2000/svg">
<path d="M12.8128 0.290835C13.9562 0.336568 15.0995 0.388834 16.2428 0.434567C16.3996 0.447634 16.5564 0.454167 16.7067 0.467234C16.7524 0.473767 16.7916 0.486833 16.8373 0.493367C17.3208 0.565233 17.8108 0.643632 18.2943 0.715498C18.8496 0.833097 19.4049 0.950696 19.9602 1.0683C20.4764 1.22509 20.999 1.38189 21.5152 1.53869C22.5932 1.99602 23.6581 2.47295 24.5989 3.18508H24.6054C24.6315 3.21121 24.6577 3.23734 24.6903 3.26348C24.6903 3.26348 24.7491 3.31574 24.7753 3.34188C24.8014 3.36148 24.8275 3.38108 24.8471 3.40721C24.9321 3.50521 25.017 3.60321 25.1019 3.69467C25.8075 4.4264 26.1669 5.30186 26.1669 6.32105C26.1669 10.3978 26.1734 14.4681 26.1669 18.5448C26.1603 21.3345 26.2191 24.1308 26.1277 26.9205C26.0558 27.3909 25.8402 27.8155 25.6377 28.2402C25.605 28.2925 25.5723 28.3447 25.5397 28.3905C24.8667 29.2333 24.0043 29.8343 23.0701 30.3504C22.175 30.762 21.2473 31.0952 20.313 31.4088C20.2934 31.3958 20.2804 31.4023 20.2738 31.4154C20.0909 31.4154 19.9145 31.4611 19.7643 31.5722H19.7381C18.7777 31.7355 17.8173 31.8988 16.8569 32.0622C16.0991 32.1275 15.3478 32.1994 14.5899 32.2647C14.309 32.2712 14.028 32.2778 13.7471 32.2843C13.231 32.2843 12.7083 32.2843 12.1922 32.2843C12.0158 32.2778 11.8394 32.2712 11.6695 32.2647C10.7287 32.1667 9.79447 32.0752 8.85367 31.9772C8.47474 31.9184 8.08928 31.8596 7.71035 31.7943L6.00516 31.3958H5.99863C5.99863 31.3958 5.9333 31.3696 5.90063 31.35C5.8549 31.3435 5.8157 31.3304 5.76997 31.3239C5.33877 31.1344 4.88797 30.9842 4.43064 30.86C4.40451 30.8404 4.37185 30.8208 4.34571 30.8078C3.85572 30.5726 3.35919 30.3439 2.86919 30.1087C2.85612 30.0891 2.83652 30.0826 2.81039 30.0891C2.77773 30.0695 2.74506 30.0434 2.71239 30.0238H2.70586C2.67319 29.965 2.62093 29.9454 2.56213 29.9389C2.53599 29.9193 2.50333 29.8997 2.47719 29.8735L2.46413 29.867C2.43799 29.8082 2.38573 29.7821 2.32693 29.7755C1.9872 29.4946 1.64747 29.2137 1.30774 28.9327C1.2816 28.9066 1.24894 28.8805 1.2228 28.8543C1.19667 28.8282 1.17707 28.8021 1.15094 28.7759C1.12481 28.7498 1.09867 28.7237 1.07254 28.691C1.04641 28.6583 1.02027 28.6257 0.99414 28.5995C0.961474 28.4427 0.830808 28.3447 0.739342 28.2271C0.471478 27.7437 0.282013 27.2275 0.203613 26.6787C0.203613 23.6604 0.21668 20.6355 0.21668 17.6171C0.21668 13.8605 0.21668 10.1038 0.21668 6.34718C0.21668 6.24265 0.210147 6.13812 0.203613 6.04012C0.262413 5.71346 0.23628 5.36719 0.380012 5.0536C0.739342 4.1912 1.3796 3.54441 2.07866 2.95641C2.1244 2.92375 2.17013 2.89108 2.21586 2.85841L2.22893 2.85188C2.25506 2.83228 2.28773 2.81268 2.31386 2.78655C2.35306 2.76041 2.38573 2.73428 2.42493 2.70815C2.44453 2.70815 2.46413 2.70815 2.47719 2.68855C2.50333 2.66895 2.52946 2.64935 2.55559 2.62975C2.62093 2.62975 2.67319 2.60362 2.69933 2.54482H2.70586C2.73853 2.52522 2.77119 2.49908 2.80386 2.47948C2.82346 2.48602 2.84306 2.47948 2.86266 2.45988C3.31345 2.23775 3.76425 2.00909 4.21505 1.78696H4.24118L4.26078 1.76736C4.38491 1.76082 4.50904 1.74122 4.58091 1.61709C5.06437 1.54522 5.5021 1.33616 5.96597 1.20549C6.54743 1.06176 7.12236 0.924563 7.70382 0.780831C8.10888 0.715498 8.52048 0.650165 8.92554 0.584833L9.04314 0.545633L9.06274 0.552166H9.08234C10.1146 0.454167 11.1534 0.369234 12.1856 0.284302C12.3947 0.284302 12.5972 0.284302 12.8063 0.284302L12.8128 0.290835ZM23.1485 27.4758C23.1485 27.4758 23.2008 27.4627 23.2138 27.4431C23.5144 27.2471 23.7038 26.9793 23.7887 26.633C23.9129 25.5812 23.7953 24.5293 23.841 23.399C23.534 23.5885 23.2988 23.7322 23.057 23.876L21.5086 24.5293C20.4829 24.8625 19.4376 25.1042 18.3988 25.3525C18.2224 25.4113 18.0395 25.4374 17.85 25.4374C17.5103 25.444 17.1705 25.4962 16.8439 25.5877C16.2951 25.5877 15.7463 25.653 15.204 25.738C15.0276 25.7445 14.8512 25.751 14.6748 25.7576H11.6499C11.5258 25.7576 11.3951 25.7445 11.271 25.7445C10.5393 25.6726 9.81407 25.6008 9.08234 25.5289C8.59234 25.444 8.10235 25.3656 7.61888 25.2806C6.54743 25.0062 5.46944 24.7318 4.42411 24.366C3.90798 24.1177 3.39185 23.876 2.87572 23.6277C2.79733 23.5428 2.71893 23.4578 2.55559 23.4905C2.55559 24.2026 2.54906 24.9082 2.55559 25.6204C2.55559 25.9666 2.49026 26.3194 2.60786 26.6591C2.60786 26.6787 2.60786 26.6918 2.62746 26.6983C2.94759 27.5281 3.65972 27.9135 4.41104 28.2598C4.87491 28.5407 5.35837 28.7563 5.88757 28.8739C6.41676 29.0961 6.95902 29.2594 7.52089 29.3313C7.93902 29.4815 8.37021 29.5403 8.80794 29.5861C9.40247 29.7298 10.0101 29.8213 10.6242 29.8082L10.7549 29.8213C10.8006 29.8409 10.8529 29.867 10.8986 29.8735C12.0811 29.9781 13.2702 30.0042 14.4592 29.9389C15.1256 29.8997 15.7986 29.9127 16.4519 29.7429C17.3339 29.6775 18.2093 29.5599 19.0521 29.2659H19.0848C19.2939 29.2659 19.4899 29.2267 19.6663 29.1091H19.6859H19.7055C20.5025 28.9327 21.2604 28.6779 21.9594 28.2533C22.0248 28.2533 22.0836 28.2402 22.1162 28.1749C22.1816 28.1749 22.2338 28.1553 22.273 28.0965C22.3384 28.0965 22.3906 28.0638 22.4233 28.0115C22.456 27.9919 22.4886 27.9723 22.5213 27.9462C22.5474 27.9462 22.567 27.9397 22.5866 27.9201L22.6585 27.8678C22.7565 27.8482 22.8349 27.8025 22.8872 27.711C22.9133 27.6849 22.946 27.6653 22.9721 27.6391C22.9982 27.613 23.0244 27.5934 23.044 27.5673C23.0701 27.5411 23.0962 27.515 23.1224 27.4823L23.1485 27.4758ZM2.96066 9.84249C2.96066 9.84249 2.90186 9.79676 2.87572 9.77062C2.81039 9.69222 2.72546 9.60076 2.62093 9.64649C2.51639 9.68569 2.56866 9.80982 2.56866 9.88822C2.56866 10.3129 2.57519 10.7375 2.58173 11.1622C2.58173 11.6783 2.58173 12.201 2.58173 12.7171C2.53599 13.0895 2.58173 13.4423 2.88226 13.7102C2.90839 13.7429 2.94106 13.7755 2.96719 13.8017C2.98679 13.8278 3.01292 13.8474 3.03252 13.8735C3.05866 13.8997 3.09132 13.9323 3.11746 13.9585C3.14359 13.9781 3.16319 14.0042 3.18932 14.0238L3.28732 14.1087C3.31345 14.1675 3.35919 14.1937 3.41799 14.2002H3.41145C3.41145 14.2002 3.47025 14.2459 3.49639 14.2721C3.76425 14.5334 4.07785 14.7098 4.42411 14.8404C4.46984 14.86 4.51558 14.8796 4.56131 14.8992C4.60704 14.958 4.66584 14.9776 4.73771 14.9776H4.73118C4.76384 15.0364 4.82917 15.0495 4.89451 15.0495C4.93371 15.1083 4.98597 15.1214 5.05131 15.1214L5.07091 15.141H5.09704C5.19504 15.2259 5.3061 15.2782 5.4433 15.2782L5.4629 15.2912H5.48904C5.5413 15.3435 5.60663 15.3566 5.6785 15.3566C5.7569 15.4415 5.86797 15.4415 5.9725 15.4546C6.08356 15.5722 6.2273 15.5852 6.37756 15.5918L6.39716 15.6048H6.41676C6.56703 15.7028 6.73689 15.742 6.91982 15.7486L6.93942 15.7616C6.93942 15.7616 6.95902 15.7551 6.96556 15.7551C8.67074 16.2778 10.4347 16.4346 12.2052 16.4934C12.3359 16.4934 12.4666 16.4934 12.5972 16.4934C13.9431 16.5652 15.2824 16.4803 16.6217 16.317C17.5821 16.1994 18.536 16.0622 19.4637 15.7551H19.4899L19.5095 15.742C19.6859 15.742 19.8492 15.7094 19.9864 15.5983C20.1628 15.5852 20.3326 15.546 20.4764 15.435H20.496H20.5156C20.6724 15.435 20.8096 15.3762 20.9272 15.2847H20.9598L20.986 15.2716C21.1166 15.2716 21.2277 15.2128 21.3257 15.1344H21.3518L21.3714 15.1214C21.476 15.1214 21.5674 15.0822 21.6132 14.9776C22.1162 14.8731 22.5278 14.5922 22.9198 14.2721C22.946 14.2459 22.9786 14.2263 23.0048 14.2002C23.3772 13.9585 23.6973 13.671 23.7953 13.2137C23.9194 12.0442 23.8279 10.8747 23.8475 9.71182C23.8475 9.54196 23.7496 9.60076 23.6777 9.67916C23.4752 9.79022 23.2792 9.90129 23.0766 10.0124C22.8545 10.0777 22.6389 10.1692 22.456 10.3129C22.3253 10.3194 22.2077 10.3717 22.1097 10.4632C22.0901 10.4501 22.077 10.4566 22.064 10.4762C21.9986 10.4762 21.9398 10.4893 21.9006 10.5481C21.8745 10.5415 21.8484 10.5481 21.8288 10.5677C21.7896 10.5873 21.7504 10.6069 21.7177 10.6265L21.6981 10.6134L21.6785 10.6265C21.6132 10.6265 21.5478 10.6265 21.5152 10.6983C20.9141 10.8486 20.3065 10.9989 19.7251 11.2406C19.2743 11.2537 18.8496 11.3843 18.4184 11.4889C17.9023 11.5673 17.3796 11.6457 16.8635 11.7241C16.8373 11.7241 16.8112 11.7241 16.7851 11.7241C16.674 11.711 16.5564 11.6979 16.4584 11.7763C16.0729 11.7763 15.694 11.7959 15.3151 11.8743C14.7924 11.8482 14.2763 11.8874 13.7602 11.9462C13.244 11.9462 12.7279 11.9397 12.2052 11.9331C11.663 11.8155 11.1142 11.8874 10.5719 11.809C9.8206 11.7241 9.06927 11.6391 8.32448 11.5542C8.28528 11.5542 8.24608 11.5542 8.20688 11.5477C6.91329 11.2341 5.6197 10.927 4.36531 10.4762C4.35225 10.4566 4.33265 10.4501 4.30651 10.4632C4.20851 10.3782 4.09745 10.3325 3.97332 10.3194C3.96025 10.2998 3.94718 10.2998 3.92758 10.3064C3.88838 10.2868 3.85572 10.2672 3.81652 10.241C3.80345 10.2214 3.78385 10.2214 3.76425 10.228C3.73158 10.2084 3.69892 10.1888 3.65972 10.1692C3.64665 10.1496 3.62705 10.143 3.60092 10.1496C3.56825 10.13 3.53559 10.1104 3.50292 10.0908C3.48332 10.0712 3.46372 10.0646 3.43759 10.0712C3.40492 10.0516 3.37879 10.032 3.34612 10.0124C3.33305 9.99275 3.31345 9.98622 3.28732 9.99275C3.25465 9.97315 3.22199 9.95355 3.18932 9.93395C3.17626 9.91436 3.15666 9.90782 3.13052 9.91435C3.08479 9.85556 3.02599 9.82942 2.95412 9.82942V9.83596L2.96066 9.84249ZM4.50251 21.7984C4.53518 21.8572 4.59398 21.8703 4.65931 21.8703L4.67891 21.8833L4.69851 21.8768C4.73771 21.8964 4.77691 21.9225 4.80957 21.9421L4.82917 21.9617H4.85531C5.2277 22.1904 5.62623 22.3406 6.0509 22.419C6.51476 22.6346 7.00476 22.7522 7.51435 22.8176C7.55355 22.8764 7.61235 22.8829 7.67768 22.8698C8.14155 22.9744 8.59234 23.1246 9.07581 23.1181C9.7422 23.2684 10.4151 23.3402 11.0946 23.3533C11.2775 23.3794 11.4605 23.4317 11.6434 23.399C12.3424 23.4513 13.035 23.4513 13.734 23.4186C14.2502 23.4317 14.7728 23.4578 15.289 23.3468C15.8116 23.3468 16.3343 23.301 16.8439 23.1834C16.8961 23.1834 16.9484 23.1834 17.0007 23.1769C17.0921 23.1965 17.1771 23.1965 17.2489 23.1246C17.6409 23.1181 18.0133 23.0201 18.3923 22.9352C18.8692 22.8502 19.3461 22.7718 19.7969 22.5758C20.4045 22.4582 20.9794 22.2557 21.5217 21.9617C21.587 21.9617 21.6458 21.9421 21.672 21.8703C22.1489 21.7527 22.5409 21.4848 22.9133 21.1843C22.946 21.1581 22.9786 21.132 23.0113 21.1059C23.0309 21.1059 23.0505 21.0928 23.057 21.0732C23.2922 20.9229 23.4948 20.74 23.6124 20.4787C23.7299 20.4068 23.7691 20.2957 23.7691 20.1651C23.7822 20.152 23.7887 20.1389 23.7757 20.1193C23.7887 20.0997 23.8149 20.0736 23.8149 20.054C23.8214 18.9303 23.8279 17.8131 23.8345 16.6894C23.8345 16.4738 23.7104 16.5391 23.6058 16.6044C23.0832 16.9376 22.5017 17.1598 21.9529 17.4407C21.9333 17.4407 21.9137 17.4407 21.8941 17.4603C21.7634 17.4603 21.6524 17.5126 21.5544 17.5975C21.5348 17.5975 21.5217 17.5975 21.5086 17.6171C21.3584 17.6171 21.2212 17.6694 21.097 17.7608C21.0774 17.7543 21.0578 17.7608 21.0382 17.7739C20.8814 17.7739 20.7442 17.8262 20.6201 17.9111C20.6005 17.898 20.5874 17.9046 20.5744 17.9176C20.1889 17.983 19.8035 18.0548 19.4441 18.2182C19.4049 18.2182 19.3657 18.2312 19.3265 18.2312C19.1175 18.2312 18.9215 18.277 18.7385 18.3684C18.6732 18.375 18.6079 18.3815 18.5491 18.388C18.4968 18.388 18.4445 18.4011 18.3988 18.4076C17.8827 18.486 17.36 18.5644 16.8439 18.6428C16.4061 18.6885 15.9619 18.7343 15.5242 18.78C15.3935 18.78 15.2628 18.7735 15.1387 18.78C14.1587 18.8715 13.1787 18.8649 12.1987 18.8323C11.1861 18.7996 10.1734 18.7408 9.16727 18.5775C8.59234 18.486 8.02395 18.4011 7.44902 18.3096C7.40329 18.3096 7.35755 18.2966 7.31182 18.29C7.03742 18.1594 6.73689 18.1071 6.43636 18.0744C6.39716 18.0679 6.35796 18.0614 6.31223 18.0548C6.16196 17.9568 5.9921 17.9111 5.8157 17.9111C5.7765 17.9111 5.74383 17.9046 5.70463 17.898C5.45637 17.7216 5.16891 17.6628 4.88144 17.604C4.86837 17.591 4.84877 17.5844 4.82264 17.591C4.70504 17.4995 4.56784 17.4472 4.41758 17.4342C4.38491 17.3688 4.31958 17.3623 4.25425 17.3623C4.24118 17.3492 4.22158 17.3427 4.20198 17.3492L3.96025 17.2382C3.59438 17.0487 3.22199 16.8658 2.85612 16.6763C2.77773 16.6175 2.69933 16.5064 2.60133 16.5522C2.49026 16.6044 2.54906 16.7351 2.54906 16.8266C2.54906 17.003 2.55559 17.1794 2.56213 17.3623C2.56213 17.8784 2.56213 18.4011 2.56213 18.9172C2.56213 19.2765 2.56213 19.6424 2.56213 20.0017C2.54253 20.0736 2.55559 20.1324 2.61439 20.1847C2.81692 20.7727 3.27425 21.1124 3.78385 21.3999C3.81652 21.4587 3.87532 21.4848 3.94065 21.4913H3.93412C3.99292 21.5763 4.07785 21.622 4.17585 21.6351C4.26078 21.7265 4.36531 21.7788 4.48944 21.7919L4.50251 21.7984ZM23.0766 7.21611C23.0766 7.21611 23.1354 7.16384 23.1616 7.13771C23.3837 6.96785 23.5993 6.79145 23.6907 6.51052C23.8214 6.37985 23.8671 6.21652 23.8345 6.04665C23.7365 5.59586 23.4752 5.25613 23.0832 5.0144C23.057 4.9948 23.0309 4.96866 23.0048 4.94906C22.5736 4.5636 22.064 4.29574 21.5217 4.09974C21.0317 3.84494 20.5156 3.64894 19.9733 3.53787C18.9672 3.16548 17.9153 3.00868 16.8635 2.87801C16.4911 2.78655 16.1056 2.76695 15.7267 2.76041C15.681 2.74081 15.6352 2.71468 15.583 2.70815C14.322 2.61668 13.0611 2.57095 11.7936 2.65588C11.4147 2.68202 11.0227 2.63628 10.6503 2.77348C10.1342 2.83228 9.61807 2.89108 9.10194 2.94988C8.01088 3.08708 6.93942 3.30268 5.90717 3.70774C5.39104 3.85147 4.88797 4.0344 4.43064 4.32187C4.05171 4.47213 3.70545 4.6616 3.41145 4.94906C3.18932 5.07973 2.98679 5.23653 2.86919 5.47826C2.49679 5.89639 2.45759 6.24919 2.79079 6.68692C3.21545 7.25531 3.78385 7.64077 4.43718 7.90864C4.54171 8.00664 4.66584 8.0589 4.80304 8.0785C5.16891 8.30717 5.56743 8.4509 5.98556 8.53583C6.02476 8.59463 6.07703 8.6077 6.14236 8.60117C6.53436 8.75796 6.93942 8.87556 7.35755 8.93436C7.97821 9.11076 8.60541 9.24143 9.24567 9.29369C9.5854 9.33943 9.92513 9.38516 10.2649 9.43089C10.9117 9.52236 11.5585 9.56156 12.2118 9.55502C12.4927 9.62036 12.7736 9.60076 13.0611 9.58769L13.1003 9.60076L13.1395 9.58769C13.3486 9.61382 13.5511 9.62036 13.7536 9.56809C14.3612 9.61382 14.9623 9.55502 15.5634 9.47009C15.8443 9.44396 16.1317 9.52889 16.3996 9.38516C16.5629 9.38516 16.7263 9.42436 16.8765 9.31329C17.4057 9.31329 17.9153 9.20876 18.4184 9.06503H18.4968C18.5883 9.07156 18.6732 9.06503 18.7385 8.9997C19.1632 8.94743 19.5748 8.8429 19.9733 8.67957C20.8292 8.4705 21.6458 8.16997 22.3906 7.67997C22.6585 7.57544 22.8937 7.42518 23.0832 7.20958L23.0766 7.21611Z" fill="#3598D8"/>
</svg>
