<svg  viewBox="0 0 32 19" fill="none" xmlns="http://www.w3.org/2000/svg">
<path d="M16 0C11.7332 0 9.0666 2.07412 7.9998 6.22196C9.6 4.14785 11.4667 3.37034 13.5999 3.88868C14.8172 4.18442 15.6871 5.04326 16.6502 5.99354C18.2188 7.54154 20.0343 9.33314 24.0002 9.33314C28.2666 9.33314 30.9336 7.25902 32 3.11079C30.4002 5.1849 28.5335 5.96279 26.3999 5.44446C25.183 5.14871 24.3131 4.28988 23.35 3.3396C21.7814 1.7916 19.9655 0 16 0V0ZM7.9998 9.33314C3.7334 9.33314 1.0664 11.4073 0 15.5555C1.5998 13.4814 3.4665 12.7035 5.6001 13.2222C6.81696 13.5183 7.68688 14.3768 8.65004 15.3267C10.2186 16.8747 12.0345 18.6667 16 18.6667C20.2668 18.6667 22.9334 16.5925 24.0002 12.4443C22.4 14.5184 20.5333 15.2963 18.4001 14.7776C17.1828 14.4822 16.3129 13.623 15.3498 12.6731C13.7812 11.1251 11.9657 9.33314 7.9998 9.33314V9.33314Z" fill="#06B6D4"/>
</svg>

