<svg width="32" height="32" viewBox="0 0 32 32" fill="none" xmlns="http://www.w3.org/2000/svg">
<path d="M0 0H32V32H0V0Z" fill="#017ACB"/>
<path d="M15.3651 11.85H16.9001V14.5H12.7501V26.29L12.6401 26.32C12.4901 26.36 10.5151 26.36 10.0901 26.315L9.7501 26.285V14.5H5.6001V11.85L6.9151 11.835C7.6351 11.825 9.4851 11.825 11.0251 11.835C12.5651 11.845 14.5151 11.85 15.3651 11.85V11.85ZM27.0801 25.04C26.4701 25.685 25.8151 26.045 24.7251 26.34C24.2501 26.47 24.1701 26.475 23.1001 26.47C22.0301 26.465 21.9451 26.465 21.4251 26.33C20.0801 25.985 18.9951 25.31 18.2551 24.355C18.0451 24.085 17.7001 23.525 17.7001 23.455C17.7001 23.435 17.7501 23.39 17.8151 23.36C17.8801 23.33 18.0151 23.245 18.1251 23.18C18.2351 23.115 18.4351 22.995 18.5701 22.925C18.7051 22.855 19.0951 22.625 19.4351 22.42C19.7751 22.215 20.0851 22.05 20.1201 22.05C20.1551 22.05 20.2201 22.12 20.2701 22.205C20.5701 22.71 21.2701 23.355 21.7651 23.575C22.0701 23.705 22.7451 23.85 23.0701 23.85C23.3701 23.85 23.9201 23.72 24.2151 23.585C24.5301 23.44 24.6901 23.295 24.8801 23.005C25.0101 22.8 25.0251 22.745 25.0201 22.355C25.0201 21.995 25.0001 21.895 24.9001 21.73C24.6201 21.27 24.2401 21.03 22.7001 20.35C21.1101 19.645 20.3951 19.225 19.8151 18.66C19.3851 18.24 19.3001 18.125 19.0301 17.6C18.6801 16.925 18.6351 16.705 18.6301 15.7C18.6251 14.995 18.6401 14.765 18.7151 14.525C18.8201 14.165 19.1601 13.47 19.3151 13.295C19.6351 12.92 19.7501 12.805 19.9751 12.62C20.6551 12.06 21.7151 11.69 22.7301 11.655C22.8451 11.655 23.2251 11.675 23.5801 11.7C24.6001 11.785 25.2951 12.035 25.9651 12.57C26.4701 12.97 27.2351 13.91 27.1601 14.035C27.1101 14.11 25.1151 15.44 24.9851 15.48C24.9051 15.505 24.8501 15.475 24.7401 15.345C24.0601 14.53 23.7851 14.355 23.1251 14.315C22.6551 14.285 22.4051 14.34 22.0901 14.55C21.7601 14.77 21.6001 15.105 21.6001 15.57C21.6051 16.25 21.8651 16.57 22.8251 17.045C23.4451 17.35 23.9751 17.6 24.0151 17.6C24.0751 17.6 25.3601 18.24 25.6951 18.44C27.2551 19.355 27.8901 20.295 28.0551 21.915C28.1751 23.135 27.8301 24.25 27.0801 25.04V25.04Z" fill="white"/>
</svg>
