<svg width="29" height="28" viewBox="0 0 29 28" fill="none" xmlns="http://www.w3.org/2000/svg">
<path d="M1.37622 1.1966H27.0429V26.8034H1.37622V1.1966Z" fill="#2E001E"/>
<path d="M0.209473 0V28H28.2095V0H0.209473ZM1.37614 1.19658H27.0428V26.8034H1.37614V1.19658Z" fill="#FF2BC2"/>
<path d="M20.5443 11.7624C20.3693 11.6786 20.1477 11.6427 19.8677 11.6427C18.3977 11.6427 17.4177 12.8034 17.4177 14.7299C17.4177 16.9316 18.421 17.8171 19.7277 17.8171C20.0077 17.8171 20.311 17.7812 20.5327 17.6854V11.7624H20.5443ZM15.3177 14.8256C15.3177 12.0376 17.0677 9.85981 19.9377 9.85981C20.1827 9.85981 20.311 9.85981 20.5443 9.88374V6.77264C20.5443 6.70084 20.6027 6.65298 20.661 6.65298H22.5393C22.6327 6.65298 22.656 6.68888 22.656 6.74871V17.6854C22.656 18.0085 22.656 18.4154 22.7143 18.8581C22.7143 18.9418 22.7143 18.9538 22.6443 18.9897C21.6643 19.4683 20.6377 19.6837 19.6577 19.6837C17.126 19.6837 15.3177 18.0803 15.3177 14.8256V14.8256ZM11.3393 12.8872L14.606 19.3846C14.6643 19.4803 14.6293 19.576 14.536 19.576H12.506C12.3777 19.576 12.3193 19.5401 12.261 19.4205C11.5143 17.841 10.756 16.2017 9.97432 14.5025H9.95099C9.25099 16.106 8.48099 17.853 7.73432 19.4324C7.67599 19.5282 7.61765 19.5641 7.52432 19.5641H5.58765C5.47099 19.5641 5.45932 19.4683 5.51765 19.3965L8.71432 13.0906L5.62265 6.8205C5.55265 6.72477 5.62265 6.64101 5.70432 6.64101H7.71099C7.82765 6.64101 7.88599 6.66495 7.92099 6.77264C8.65599 8.36409 9.40265 9.93161 10.1027 11.535H10.126C10.8027 9.95554 11.5493 8.36409 12.261 6.79657C12.3193 6.70084 12.3543 6.64101 12.471 6.64101H14.3493C14.4427 6.64101 14.4777 6.71281 14.4193 6.8205L11.3393 12.8872V12.8872Z" fill="#FF2BC2"/>
</svg>
