<svg width="31" height="32" viewBox="0 0 31 32" fill="none" xmlns="http://www.w3.org/2000/svg">
<path d="M15.5524 0L30.2191 7.99997L15.5524 16L0.885742 7.99997L15.5524 0Z" fill="#2E4468"/>
<path d="M30.2191 7.99997L30.2182 24L15.5517 32L15.5524 16L30.2191 7.99997Z" fill="#1C293E"/>
<path d="M15.5524 16L15.5517 32L0.885783 24L0.885742 7.99997L15.5524 16Z" fill="#253653"/>
<path d="M18.2966 8.4342C18.9917 8.52796 19.6533 8.50984 20.2662 8.15603C20.781 7.85881 20.8562 7.52248 20.5057 7.32012C20.0856 7.07762 19.5989 7.1868 18.7879 7.37288L18.3459 7.47635C17.0726 7.77656 16.0052 7.84807 15.0078 7.27228C14.0891 6.74188 14.0997 5.92819 15.2093 5.28758C15.9994 4.8315 16.8384 4.66011 17.9574 4.83358L17.6023 5.74576C17.0127 5.65133 16.6345 5.69836 16.2777 5.90435C15.9138 6.11445 15.9107 6.37902 16.2081 6.55068C16.5756 6.76284 16.9552 6.71545 17.7159 6.53909L18.1578 6.4355C19.6598 6.0837 20.7109 6.00227 21.734 6.59288C22.8369 7.22959 22.5623 8.08575 21.3821 8.76707C20.2282 9.43325 18.9405 9.55066 17.8652 9.35103L18.2966 8.4342ZM14.0134 11.0295C14.55 11.1139 15.0162 11.178 15.4431 10.9316C15.8514 10.6959 15.9514 10.4563 15.3391 10.1028L11.1737 7.69812L12.4163 6.98081L16.5982 9.39508C17.8667 10.1274 17.6897 10.8961 16.5886 11.5318C15.5937 12.1061 14.51 12.1457 13.6057 11.9619L14.0134 11.0295Z" fill="#F7DF1E"/>
</svg>
