<svg width="543" height="425" viewBox="0 0 543 425" fill="none" xmlns="http://www.w3.org/2000/svg">
<path d="M271.911 412.465L15.0361 267.264L271.647 122.584L528.258 268.047L271.911 412.465Z" stroke="#328AF2" stroke-opacity="0.5" stroke-width="2"/>
<g filter="url(#filter0_f_1546_6491)">
<path d="M271.911 412.465L15.0361 267.264L271.647 122.584L528.258 268.047L271.911 412.465Z" stroke="#328AF2" stroke-width="4"/>
</g>
<path d="M320.123 29.0875L269.515 0.465088L218.906 29.0875V86.3322L269.515 114.955L320.123 86.3322V29.0875Z" fill="#2E4468"/>
<path fill-rule="evenodd" clip-rule="evenodd" d="M275.548 44.4225L291.076 19.6335C291.265 19.3275 291.306 18.9974 291.193 18.6783C291.08 18.3592 290.818 18.0629 290.434 17.8207C290.057 17.5746 289.568 17.3918 289.022 17.2923C288.476 17.1927 287.894 17.1802 287.339 17.2561L247.758 22.5248C247.159 22.6034 246.612 22.778 246.183 23.0279C245.753 23.2778 245.458 23.5928 245.333 23.936L241.336 34.6659C241.188 35.0699 241.274 35.4911 241.58 35.8668C241.887 36.2424 242.397 36.5523 243.036 36.7503L270.882 45.4097C271.3 45.5407 271.762 45.6192 272.237 45.6399C272.712 45.6606 273.188 45.623 273.634 45.5296C274.076 45.436 274.477 45.2884 274.808 45.0972C275.139 44.906 275.39 44.6758 275.548 44.4225ZM271.152 43.3595L247.524 36.0104C246.802 35.7868 246.748 35.2086 247.422 34.9563L284.99 20.9826C285.693 20.7211 286.592 21.1287 286.31 21.5804L272.901 42.9884C272.84 43.0835 272.745 43.17 272.62 43.2418C272.495 43.3136 272.344 43.369 272.178 43.4042C272.012 43.4394 271.834 43.4536 271.656 43.4458C271.479 43.438 271.307 43.4089 271.152 43.3595Z" fill="#2F855A"/>
<rect width="58.1399" height="57.2448" transform="matrix(0.870409 0.492329 3.25539e-05 1 218.906 29.0857)" fill="black" fill-opacity="0.2"/>
<rect width="58.1399" height="57.2448" transform="matrix(0.870409 -0.492329 -3.25539e-05 1 269.509 57.7097)" fill="black" fill-opacity="0.4"/>
<path d="M251.189 67.9847L200.581 39.3623L149.973 67.9847V125.229L200.581 153.852L251.189 125.229V67.9847Z" fill="#2E4468"/>
<rect width="58.1399" height="57.2448" transform="matrix(0.870409 0.492329 3.25539e-05 1 149.977 67.9836)" fill="black" fill-opacity="0.2"/>
<rect width="58.1399" height="57.2448" transform="matrix(0.870409 -0.492329 -3.25539e-05 1 200.579 96.6077)" fill="black" fill-opacity="0.4"/>
<path d="M216.677 81.8837C217.147 81.3386 217.008 80.6928 216.305 80.1559C215.973 79.9028 215.504 79.6632 214.874 79.4235C213.774 79.0057 213.024 78.658 212.514 78.3829C217.454 77.7023 222.475 76.5769 226.644 75.2002C233.386 72.974 235.054 71.16 235.266 70.0303C235.827 67.0401 233.968 64.203 229.892 61.8257C227.718 60.5571 225.366 59.6966 224.055 59.2951C223.278 58.669 222.359 58.0431 221.317 57.4306C219.364 56.2826 217.192 55.5227 214.832 55.1605C214.275 54.533 213.328 53.5561 212.036 52.5409C208.997 50.1531 205.635 48.7485 202.045 48.3663C197.697 47.9033 193.429 48.972 189.361 51.5428C188.069 52.359 184.711 55.1683 182.018 58.1127C180.469 59.8052 179.352 61.3061 178.694 62.5743C177.763 64.3725 177.749 65.7364 178.653 66.7439C179.159 67.3084 180.35 68.1801 182.936 68.3367C182.905 68.5615 182.935 68.82 183.059 69.115C183.218 69.4895 183.512 69.8898 183.89 70.2424C185.249 71.5131 187.039 72.409 189.083 72.8787C188.844 73.0248 188.615 73.1633 188.416 73.2829C188.095 73.477 187.779 73.6674 187.488 73.8475C185.521 75.0657 184.069 76.0574 183.379 76.9369C183.341 76.9852 183.279 77.0565 183.212 77.132C182.793 77.6135 182.091 78.4193 182.168 79.4075C182.247 80.431 183.118 81.2273 184.156 81.8193C184.677 82.1161 185.241 82.3616 185.767 82.5584C187.644 83.2598 189.901 83.9851 192.941 83.7079C195.814 83.4458 198.911 82.3495 202.973 80.1558C203.099 80.0998 203.218 80.0462 203.332 79.9951L203.567 79.8904L203.827 80.0663L203.895 80.1108C205.408 81.0526 207.669 81.9699 209.393 82.3421C210.754 82.6364 215.305 83.4732 216.677 81.8837" fill="black"/>
<path d="M213.567 80.5725C207.919 78.4273 209.141 77.3621 209.141 77.3621C221.261 76.1183 232.415 72.129 232.844 69.8415C234.014 63.6011 222.683 60.4104 222.468 60.3722L222.414 60.3509C221.672 59.7143 220.743 59.0579 219.592 58.3808C217.497 57.1482 215.306 56.5555 213.179 56.3708C213.179 56.3708 204.113 44.3265 191.193 52.4902C188.444 54.2269 173.547 67.4274 184.225 66.961C188.129 66.79 191.647 66.7695 191.647 66.7695C191.954 67.5797 192.705 68.3316 193.892 68.8919L194.046 68.9004C193.759 69.0341 193.516 69.1864 193.261 69.386C190.615 69.4465 190.747 69.7969 187.701 68.639C184.619 67.4677 185.214 68.8487 185.96 69.5465C186.865 70.3923 189.218 72.201 193.62 71.8202L193.257 71.9427C193.367 72.4465 191.589 73.8583 189.601 74.9243C187.614 75.9902 186.251 76.7227 185.608 77.5356C184.966 78.3487 183.029 79.8977 187.06 81.4045C190.428 82.6633 193.375 82.6308 196.082 81.3175C198.006 80.3836 198.066 80.7177 199.678 79.8216L200.691 79.5396C203.405 78.3337 203.933 77.7466 205.288 78.9321L205.67 79.1905C206.879 79.9427 208.787 80.7418 210.196 81.0458C213.229 81.7012 216.042 81.5125 213.567 80.5725Z" fill="#336791"/>
<path d="M205.177 61.937C204.811 61.6627 204.374 61.474 204.037 61.4446C203.847 61.4281 203.72 61.4618 203.647 61.4931C203.453 61.5758 203.388 61.7525 203.367 61.8505C203.306 62.128 203.429 62.4125 203.695 62.6116C203.734 62.6405 203.775 62.6674 203.82 62.6926C204.333 62.9852 205.188 63.0303 205.515 62.8906C205.925 62.7156 205.628 62.2736 205.177 61.9371L205.177 61.937ZM219.215 69.9497C219.455 69.7664 219.02 69.427 218.464 69.1858C217.91 68.9449 217.222 68.7969 216.98 68.9799C216.793 69.1228 216.827 69.5682 217.309 69.8432C217.35 69.8665 217.394 69.8885 217.441 69.9089C217.806 70.0678 218.241 70.0894 218.468 70.0883C218.813 70.0863 219.106 70.032 219.215 69.9497" fill="white"/>
<path d="M215.239 81.4036C215.586 81.0014 215.178 80.5758 214.026 80.1384C210.607 78.8398 209.981 78.0332 209.886 77.706C215.372 77.1032 221.149 75.8872 225.823 74.3442C228.036 73.6132 229.917 72.8345 231.261 72.0924C232.737 71.2779 233.549 70.5243 233.675 69.853C234.183 67.1466 232.48 64.5693 228.751 62.4002C226.189 60.908 223.358 60.0273 222.753 59.8885C222.075 59.2566 221.234 58.6262 220.19 58.0123C218.276 56.8868 216.144 56.1862 213.832 55.9178C213.446 55.4489 212.404 54.2623 210.792 53.0034C208.005 50.8274 204.99 49.5544 201.83 49.2205C198.06 48.8221 194.283 49.7986 190.605 52.1226C189.368 52.9045 186.12 55.6287 183.486 58.5086C180.019 62.2993 178.886 64.9178 180.117 66.2914C180.262 66.4521 180.459 66.6196 180.73 66.7741C181.394 67.1527 182.499 67.4513 184.335 67.3711C186.571 67.2747 188.813 67.2153 191.059 67.1929C191.402 67.8132 191.981 68.38 192.764 68.8503C192.745 68.8628 192.727 68.8756 192.709 68.8882C192.41 68.9006 192.112 68.9159 191.815 68.9342C190.571 69.0077 190.312 69.023 188.16 68.2048C187.548 67.9722 185.921 67.3542 184.98 67.868C183.952 68.4296 185.153 69.5958 185.293 69.7268C185.781 70.1834 186.325 70.5813 186.917 70.9189C188.357 71.7397 190.084 72.2004 191.986 72.2714C188.365 74.2991 184.983 76.4027 184.349 77.27C183.831 77.9801 182.564 79.7154 185.372 81.3156C185.784 81.5504 186.284 81.7824 186.887 82.0076C190.427 83.3305 192.956 83.3398 196.218 82.0418C197.962 81.3483 201.949 79.5915 204.057 78.6321C204.37 78.9653 204.886 79.3299 205.511 79.6858C206.813 80.4281 208.585 81.1317 209.952 81.427C211.487 81.7587 214.569 82.1806 215.239 81.4036V81.4036ZM221.072 70.1245C220.503 70.438 219.915 70.6823 219.301 70.9366C218.64 71.2101 217.956 71.4928 217.217 71.8874C216.497 72.2713 215.862 72.7352 215.248 73.1839C214.008 74.0903 212.731 75.0231 210.597 75.4454C210.681 75.2662 210.783 75.0904 210.904 74.9189C211.021 74.7536 211.16 74.4602 211.352 74.054C212.101 72.4732 213.854 68.7713 216.751 68.5039C217.614 68.4244 219.046 68.6538 221.072 70.1245V70.1245ZM227.763 63.1291C231.067 65.0941 232.512 67.314 232.06 69.7269C231.712 71.5776 221.937 75.3285 210.259 76.7151C210.27 76.6559 210.28 76.5967 210.29 76.5375L210.303 76.4637C213.411 76.054 215.07 74.842 216.541 73.767C217.144 73.3257 217.714 72.909 218.346 72.5724C219.015 72.2154 219.659 71.9491 220.281 71.6916C221.048 71.3742 221.84 71.0447 222.618 70.5677C222.724 70.532 222.833 70.48 222.941 70.4057C223.64 69.9216 225.046 68.0815 225.286 65.8275C225.417 64.5946 225.219 63.0184 224.061 61.3719C225.106 61.7681 226.46 62.3534 227.763 63.1291V63.1291ZM184.161 66.4479C182.139 66.5364 181.703 66.05 181.559 65.8902C180.625 64.8482 181.854 62.3208 184.931 58.9562C187.594 56.0448 190.787 53.4107 191.826 52.754C195.113 50.6775 198.394 49.7947 201.578 50.1303C206.76 50.6765 210.544 54.2737 211.932 55.795C211.875 55.7944 211.818 55.7919 211.761 55.7917C205.172 55.7529 199.68 58.9726 199.348 59.1713C199.216 59.246 199.042 59.3585 198.801 59.5132C197.922 60.0798 196.284 61.1344 194.025 62.0975C191.925 62.9926 190.712 64.3486 190.697 65.8178C190.695 65.9684 190.707 66.1192 190.732 66.2696C189.569 66.2823 187.02 66.3225 184.161 66.4479V66.4479ZM192.321 65.8516C192.334 64.6675 193.319 63.5717 195.023 62.8449C197.41 61.8274 199.116 60.7288 200.032 60.1385C200.161 60.0559 200.273 59.9834 200.363 59.9272C201.267 59.9659 204.692 60.5828 205.942 61.7021C206.512 62.2128 206.475 62.7435 205.827 63.3242C202.475 66.3302 199.844 66.8792 197.729 67.3206C197.293 67.4115 196.881 67.4974 196.479 67.5997L196.167 67.6787C195.38 67.8783 194.647 68.0637 194.019 68.278C192.924 67.6506 192.311 66.7828 192.321 65.8515L192.321 65.8516ZM186.673 69.2626C186.43 69.0357 186.277 68.7945 186.219 68.6343C186.425 68.6781 186.764 68.7714 187.288 68.9702C189.819 69.9328 190.443 69.9491 192.031 69.8552C192.395 69.8336 192.808 69.8092 193.341 69.797L193.342 69.797C194.138 69.7783 194.242 69.9178 194.431 70.1708C194.585 70.3755 194.523 70.6957 194.281 70.949C194.167 71.0686 193.913 71.2746 193.498 71.3107C189.992 71.6141 187.851 70.3646 186.673 69.2626V69.2626ZM187.749 81.238C184.63 80.0725 184.994 78.8234 185.852 77.6477C186.407 76.8887 190.468 74.3564 195.299 71.7575C195.363 71.7228 195.414 71.6832 195.454 71.6408C195.55 71.5678 195.637 71.4909 195.713 71.4106C196.195 70.9063 196.275 70.3005 195.923 69.8296C195.783 69.6425 195.526 69.2992 194.881 69.0779C195.431 68.8898 196.119 68.7153 196.865 68.5266L197.178 68.4471C197.531 68.3574 197.918 68.2767 198.328 68.1911C200.541 67.7294 203.572 67.0971 207.206 63.8375C208.567 62.6166 208.119 61.3858 205.943 60.3724C204.639 59.7648 203.091 59.4111 202.284 59.2545C202.11 59.2208 201.949 59.1916 201.796 59.1656C203.712 58.2458 207.58 56.6909 211.801 56.7173C214.458 56.7341 216.895 57.3838 219.04 58.6458C223.266 61.132 223.882 63.9197 223.655 65.8206C223.459 67.4587 222.638 68.7532 222.094 69.3934C220.132 68.0307 218.235 67.4245 216.444 67.5899C212.548 67.9495 210.681 71.8925 209.783 73.7875C209.619 74.1349 209.476 74.435 209.395 74.5504C208.861 75.3052 208.752 75.9504 208.673 76.4213C208.649 76.5657 208.625 76.7057 208.592 76.8208C207.749 76.5502 206.139 76.1181 204.118 77.3929C202.963 77.9521 197.343 80.4496 195.261 81.2774C192.512 82.3712 190.757 82.362 187.749 81.2381L187.749 81.238ZM210.486 80.5626C209.509 80.3514 208.153 79.8382 207.033 79.2554C205.795 78.6115 205.375 78.1642 205.346 78.0195C206.606 77.2256 207.253 77.4367 207.939 77.6601C208.047 77.6952 208.152 77.7294 208.259 77.7595C208.269 77.81 208.284 77.8631 208.306 77.9187C208.648 78.8079 210.279 79.8123 213.154 80.9041L213.186 80.9162C212.569 80.8991 211.623 80.8081 210.486 80.5626Z" fill="white"/>
<path d="M388.839 67.5977L338.23 38.9753L287.622 67.5977V124.842L338.23 153.465L388.839 124.842V67.5977Z" fill="#2E4468"/>
<rect width="58.1399" height="57.2448" transform="matrix(0.870409 0.492329 3.25539e-05 1 287.626 67.5962)" fill="black" fill-opacity="0.2"/>
<rect width="58.1399" height="57.2448" transform="matrix(0.870409 -0.492329 -3.25539e-05 1 338.229 96.2202)" fill="black" fill-opacity="0.4"/>
<path d="M361.748 76.9343C361.729 76.82 361.514 75.7767 359.356 74.5471C358.784 74.2239 358.164 73.929 357.503 73.6653C360.077 71.7223 359.169 69.5424 359.129 69.4447L358.898 68.9155L357.943 69.0258C356.693 69.1938 355.494 69.4803 354.396 69.8732C352.301 70.6263 350.932 71.6743 350.391 72.9288C348.805 72.6903 347.054 71.8559 346.716 71.6777L320.097 56.5076C319.4 56.112 318.249 56.1251 317.519 56.5371C315.05 57.9084 313.023 59.5143 311.535 61.2757C309.939 63.2307 309.452 65.0632 310.094 66.7204C310.809 68.5794 313.313 70.8354 316.976 72.9228C318.625 73.8689 320.433 74.7209 322.376 75.4678C325.072 76.5092 328.074 77.2785 331.259 77.7438C333.905 78.1147 336.658 78.2368 339.411 78.1054C344.015 77.8853 348.051 77.0176 351.455 76.1426L351.827 76.3548C354.136 77.6707 356.522 77.9295 358.114 77.9145C359.15 77.9169 360.185 77.7901 361.146 77.5429L361.817 77.349L361.748 76.9343Z" fill="#2496ED"/>
<path d="M323.38 57.4489L326.947 59.4815C327.119 59.5796 327.404 59.5759 327.584 59.4735L330.904 57.5812C331.085 57.4793 331.093 57.3167 330.922 57.2182C330.921 57.2178 330.921 57.2175 330.92 57.2172L327.353 55.1846C327.181 55.0865 326.896 55.0901 326.717 55.1926L326.715 55.1936L323.394 57.0859C323.214 57.1884 323.208 57.3509 323.38 57.4489V57.4489Z" fill="#2496ED"/>
<path d="M328.295 60.2502L331.862 62.2829C332.034 62.3809 332.319 62.3773 332.499 62.2748L335.819 60.3825C336 60.2806 336.008 60.1181 335.837 60.0195C335.836 60.0191 335.835 60.0188 335.835 60.0185L332.268 57.9858C332.095 57.8873 331.809 57.8909 331.628 57.9939L328.307 59.8862C328.128 59.9894 328.123 60.152 328.295 60.2502" fill="#2496ED"/>
<path d="M333.285 63.0945L336.852 65.1271C337.024 65.2251 337.309 65.2215 337.489 65.1191L340.809 63.2267C340.99 63.1248 340.998 62.9623 340.827 62.8637C340.826 62.8633 340.826 62.863 340.825 62.8627L337.259 60.8301C337.087 60.732 336.802 60.7356 336.622 60.8381L336.62 60.8391L333.3 62.7314C333.12 62.8339 333.114 62.9965 333.285 63.0945V63.0945Z" fill="#2496ED"/>
<path d="M338.217 65.9047L341.784 67.9373C341.956 68.0355 342.241 68.0324 342.422 67.9303L345.743 66.038C345.924 65.9349 345.93 65.7716 345.757 65.673L342.19 63.6404C342.018 63.5423 341.733 63.546 341.553 63.6484L341.552 63.6494L338.231 65.5417C338.051 65.6442 338.045 65.8067 338.217 65.9047V65.9047Z" fill="#2496ED"/>
<path d="M333.073 57.5275L336.64 59.5601C336.813 59.6577 337.099 59.6537 337.279 59.5511L340.599 57.6588C340.779 57.5563 340.785 57.3938 340.613 57.2958L337.047 55.2632C336.874 55.165 336.589 55.1681 336.408 55.2702L333.088 57.1625C332.908 57.2659 332.902 57.4286 333.073 57.5275Z" fill="#2496ED"/>
<path d="M338.063 60.3715L341.629 62.4041C341.803 62.5017 342.088 62.4976 342.268 62.395L345.589 60.5027C345.768 60.4003 345.775 60.2378 345.603 60.1398L342.036 58.1072C341.864 58.0091 341.579 58.0127 341.399 58.1152L338.079 60.0075C337.899 60.1101 337.892 60.2728 338.063 60.3715Z" fill="#2496ED"/>
<path d="M342.994 63.182L346.561 65.2147C346.735 65.3124 347.02 65.3088 347.202 65.2066L350.522 63.3143C350.701 63.2111 350.707 63.0485 350.534 62.9503L346.968 60.9177C346.796 60.8197 346.511 60.8233 346.331 60.9257L343.01 62.818C342.83 62.9206 342.823 63.0833 342.994 63.182Z" fill="#2496ED"/>
<path d="M347.775 60.4582L351.341 62.4908C351.514 62.589 351.799 62.5858 351.98 62.4838L355.302 60.5904C355.481 60.4872 355.487 60.3246 355.315 60.2264L351.748 58.1938C351.576 58.0958 351.291 58.0994 351.111 58.2018L347.789 60.0952C347.609 60.1977 347.603 60.3602 347.775 60.4582Z" fill="#2496ED"/>
<path d="M343.192 68.7397L346.758 70.7723C346.931 70.8705 347.216 70.8674 347.397 70.7653L350.717 68.8729C350.898 68.7699 350.905 68.6065 350.732 68.5079L347.165 66.4753C346.993 66.3773 346.708 66.3809 346.528 66.4833L346.526 66.4844L343.206 68.3767C343.026 68.4792 343.02 68.6417 343.192 68.7397" fill="#2496ED"/>
<path d="M182.258 106.882L131.649 78.2595L81.041 106.882V164.127L131.649 192.749L182.258 164.127V106.882Z" fill="#2E4468"/>
<rect width="58.1399" height="57.2448" transform="matrix(0.870409 0.492329 3.25539e-05 1 81.0498 106.88)" fill="black" fill-opacity="0.2"/>
<rect width="58.1399" height="57.2448" transform="matrix(0.870409 -0.492329 -3.25539e-05 1 131.652 135.504)" fill="black" fill-opacity="0.4"/>
<path fill-rule="evenodd" clip-rule="evenodd" d="M150.875 99.8681L154.636 107.48C155.137 107.476 155.638 107.513 156.125 107.591C158.89 108.038 160.566 109.663 159.874 111.233C159.171 112.797 156.367 113.704 153.591 113.263C153.109 113.185 152.648 113.069 152.22 112.917L142.622 118.388C142.884 118.629 143.085 118.89 143.22 119.161C144.004 120.749 142.412 122.347 139.658 122.742C136.914 123.142 134.052 122.181 133.267 120.605C133.115 120.3 133.049 119.984 133.073 119.67L119.798 117.54C119.557 117.82 119.237 118.074 118.851 118.294C116.869 119.423 113.591 119.401 111.54 118.232C109.488 117.063 109.44 115.201 111.432 114.066C111.786 113.864 112.18 113.699 112.601 113.571L108.841 105.961C108.348 105.964 107.855 105.926 107.376 105.85C104.6 105.397 102.924 103.771 103.627 102.208C104.33 100.644 107.134 99.7367 109.91 100.178C110.386 100.255 110.844 100.369 111.267 100.519L120.866 95.0483C120.6 94.8048 120.396 94.5417 120.26 94.2672C119.475 92.6911 121.078 91.0873 123.821 90.6867C126.565 90.2861 129.428 91.2471 130.212 92.8232C130.347 93.0989 130.413 93.3831 130.407 93.667L143.767 95.8109C143.998 95.5639 144.292 95.3382 144.639 95.1408C146.631 94.0059 149.899 94.0332 151.95 95.2023C154.001 96.3714 154.05 98.2337 152.058 99.3687C151.7 99.5727 151.301 99.7391 150.875 99.8681ZM148.505 100.202L152.275 107.832C151.675 108.018 151.15 108.273 150.732 108.58C150.314 108.887 150.011 109.241 149.842 109.621C149.482 110.421 149.748 111.239 150.464 111.907L140.854 117.384C140.794 117.363 140.734 117.343 140.673 117.323L148.31 100.2C148.375 100.202 148.44 100.202 148.505 100.202L148.505 100.202ZM143.18 97.2796L113.135 101.632C113.1 101.596 113.064 101.561 113.027 101.527L122.639 96.049C123.811 96.4572 125.246 96.6088 126.65 96.4038C127.317 96.307 127.94 96.1339 128.48 95.895C129.019 95.6561 129.466 95.3561 129.793 95.0131L143.177 97.1609C143.176 97.2004 143.178 97.24 143.18 97.2795L143.18 97.2796ZM145.926 99.817L138.291 116.936C137.797 116.925 137.304 116.955 136.829 117.025C136.356 117.093 135.905 117.201 135.489 117.343L113.101 104.584C113.35 104.347 113.538 104.089 113.659 103.82C113.778 103.55 113.83 103.27 113.811 102.99L143.855 98.6379C144.097 98.8829 144.397 99.1082 144.747 99.3072C145.107 99.5123 145.504 99.6823 145.926 99.817ZM120.311 116.36L133.611 118.495C133.664 118.436 133.72 118.378 133.779 118.321L111.383 105.557C111.324 105.577 111.265 105.596 111.205 105.615L114.969 113.232C115.664 113.23 116.356 113.309 117.005 113.462C117.654 113.616 118.245 113.842 118.743 114.127C119.26 114.421 119.667 114.772 119.937 115.156C120.207 115.541 120.334 115.951 120.311 116.36V116.36Z" fill="#E535AB"/>
<path d="M458.425 107.149L407.816 78.5261L357.208 107.149V164.393L407.816 193.016L458.425 164.393V107.149Z" fill="#2E4468"/>
<path d="M424.465 93.6462C424.758 93.8118 424.967 94.0012 425.134 94.1906C424.243 94.0908 423.478 94.1924 422.797 94.4124C422.713 94.448 422.639 94.4659 422.555 94.5015C422.482 94.5312 422.408 94.5609 422.345 94.5966C421.38 95.0953 421.547 95.3203 421.2 95.7413C420.8 96.3105 419.96 96.6907 418.985 96.828C418.881 96.8518 418.755 96.8757 418.629 96.8877C421.682 95.6104 419.875 94.1372 420.296 93.4376C420.989 93.0102 422.068 93.0742 422.874 93.1503C423.597 93.2502 424.089 93.4334 424.465 93.6462ZM420.542 92.1042C420.342 92.2644 420.374 92.211 420.258 92.2882C420.185 92.3416 420.08 92.401 420.006 92.4543C419.943 92.5137 419.88 92.573 419.827 92.6382C419.764 92.6975 419.712 92.7628 419.659 92.828C419.617 92.8991 419.575 92.9584 419.533 93.0296C419.522 93.0711 419.501 93.1066 419.49 93.1481C419.48 93.1777 419.469 93.2074 419.459 93.237C419.438 93.3081 419.416 93.3793 419.406 93.4445C419.405 93.5156 419.384 93.5867 419.405 93.6578C419.394 93.6637 419.394 93.6637 419.394 93.6637C419.405 93.7289 419.404 93.8 419.425 93.871C419.477 94.0902 419.602 94.3033 419.674 94.5225C419.695 94.5936 419.726 94.6587 419.726 94.7298C419.747 94.8009 419.757 94.866 419.757 94.9371C419.767 95.0141 419.756 95.0793 419.745 95.1564C419.735 95.2215 419.724 95.2986 419.692 95.3638C419.671 95.4349 419.65 95.506 419.618 95.5712C419.576 95.6424 419.534 95.7017 419.492 95.7728C419.439 95.8381 419.397 95.8974 419.334 95.9567C419.271 96.0278 419.208 96.0872 419.145 96.1465C419.113 96.1761 419.061 96.2058 419.029 96.2355C418.998 96.2651 418.956 96.2889 418.924 96.3185C418.84 96.366 418.756 96.4254 418.672 96.4728C418.609 96.5085 418.546 96.5441 418.473 96.5738C418.389 96.6213 418.294 96.6628 418.179 96.7045C418.085 96.746 417.98 96.7817 417.875 96.8174C417.76 96.8471 417.655 96.8828 417.539 96.9125C417.466 96.9304 417.382 96.9423 417.319 96.9542L420.658 97.786C421.181 97.9513 421.684 98.1166 422.186 98.2938C422.458 98.3883 422.73 98.4828 423.002 98.5773C423.755 98.8608 424.488 99.1681 425.188 99.4932C425.209 99.505 425.23 99.505 425.251 99.5168C425.942 99.836 426.59 100.167 427.217 100.522C427.677 100.782 428.116 101.054 428.534 101.326C429.13 101.711 429.684 102.119 430.217 102.539C430.353 102.639 430.478 102.746 430.603 102.853C430.865 103.071 431.105 103.29 431.335 103.503C431.449 103.616 431.564 103.728 431.679 103.841C431.773 103.965 431.846 104.089 431.929 104.208C431.992 104.303 432.054 104.397 432.117 104.492C432.127 104.51 432.148 104.522 432.148 104.533C432.2 104.622 432.252 104.699 432.294 104.782C432.315 104.806 432.325 104.824 432.336 104.841C432.398 104.936 432.45 105.037 432.492 105.12C432.533 105.179 432.565 105.244 432.596 105.297C432.606 105.327 432.627 105.362 432.638 105.38C432.679 105.463 432.721 105.546 432.752 105.623C432.794 105.706 432.825 105.783 432.845 105.854C432.866 105.925 432.897 105.99 432.908 106.055C432.908 106.067 432.918 106.073 432.918 106.085C432.939 106.144 432.959 106.215 432.97 106.28C432.97 106.28 432.97 106.292 432.97 106.304C432.98 106.357 432.99 106.411 433 106.464C433.011 106.482 433.011 106.505 433.021 106.523C433.031 106.577 433.031 106.636 433.042 106.689C433.031 106.707 433.041 106.725 433.041 106.736C433.041 106.808 433.051 106.873 433.051 106.944C433.062 106.95 433.051 106.956 433.051 106.968C433.061 107.033 433.061 107.104 433.061 107.175C433.061 107.187 433.05 107.193 433.061 107.199C433.061 107.258 433.06 107.317 433.05 107.382C433.05 107.406 433.06 107.436 433.06 107.459C433.049 107.524 433.049 107.596 433.049 107.667C433.038 107.684 433.049 107.702 433.038 107.72C433.038 107.815 433.027 107.904 433.027 107.998C433.027 108.01 433.027 108.022 433.026 108.034C433.015 108.23 433.015 108.431 433.045 108.626C433.066 108.828 433.107 109.029 433.169 109.219C433.231 109.42 433.304 109.604 433.398 109.799C433.491 109.983 433.606 110.166 433.741 110.35C433.866 110.527 434.012 110.705 434.169 110.877C434.514 111.178 434.785 111.534 435.14 111.77C435.224 111.818 435.297 111.883 435.37 111.936C435.443 112.001 435.506 112.06 435.569 112.119C435.621 112.184 435.673 112.25 435.725 112.315C435.777 112.38 435.819 112.451 435.86 112.522C435.881 112.593 435.923 112.664 435.944 112.735C435.964 112.806 435.974 112.883 435.974 112.954C435.995 113.025 435.995 113.108 435.994 113.179C435.984 113.256 435.983 113.328 435.962 113.399C435.93 113.476 435.92 113.553 435.878 113.624C435.856 113.695 435.825 113.772 435.783 113.843C435.73 113.92 435.688 113.991 435.625 114.063C435.572 114.128 435.509 114.199 435.446 114.27C435.383 114.329 435.32 114.389 435.246 114.442C435.236 114.448 435.236 114.46 435.225 114.466C435.152 114.531 435.026 114.602 434.973 114.644C434.91 114.691 434.858 114.733 434.784 114.775C434.742 114.798 434.69 114.828 434.637 114.846C434.553 114.881 434.48 114.911 434.396 114.935C434.312 114.959 434.228 114.982 434.134 115C434.123 115.006 434.123 115.006 434.123 115.006C434.029 115.024 433.924 115.036 433.819 115.048C433.714 115.06 433.61 115.072 433.494 115.078C433.39 115.078 433.264 115.078 433.149 115.073C433.023 115.073 432.908 115.067 432.782 115.055C432.311 115.038 432.175 115.044 431.682 114.956C431.599 114.944 431.525 114.926 431.431 114.909C431.421 114.903 431.4 114.903 431.389 114.897C431.368 114.909 431.358 114.915 431.326 114.921C431.232 114.962 431.127 114.998 431.022 115.033C430.907 115.075 430.791 115.105 430.687 115.129C430.592 115.147 430.508 115.17 430.414 115.188C430.383 115.194 430.351 115.2 430.33 115.2C430.204 115.224 430.089 115.242 429.974 115.26C429.848 115.272 429.722 115.284 429.597 115.296C429.481 115.302 429.345 115.308 429.219 115.308C429.094 115.308 428.978 115.302 428.842 115.297C428.842 115.297 428.821 115.297 428.811 115.291C428.696 115.285 428.58 115.279 428.476 115.267C428.35 115.256 428.235 115.238 428.109 115.214C427.994 115.197 427.868 115.173 427.753 115.144C427.659 115.126 427.565 115.097 427.471 115.067C427.45 115.067 427.439 115.061 427.408 115.055C427.355 115.038 427.293 115.014 427.24 114.996C426.705 115.334 426.18 115.643 425.908 115.703C425.603 115.768 425.784 115.146 426.058 114.47C425.397 114.915 424.589 115.42 424.232 115.503C423.855 115.586 424.046 114.769 424.405 113.951C418.713 108.785 406.805 107.868 398.831 111.573C400.1 111.009 402.121 111.439 402.601 111.889C402.138 112.506 401.674 113.371 401.912 114.207C402.532 113.773 403.277 113.387 404.116 113.078C403.38 113.755 402.927 114.519 402.767 115.308C403.687 115.911 405.163 116.2 406.41 116.086C406.484 116.092 406.557 116.062 406.63 116.056C406.735 116.032 406.84 116.008 406.934 115.978C407.039 115.955 407.134 115.925 407.218 115.889C407.301 115.854 407.375 115.812 407.459 115.765C407.511 115.735 407.564 115.705 407.616 115.676C407.679 115.628 407.732 115.575 407.785 115.521C407.837 115.468 407.89 115.415 407.932 115.355C407.963 115.29 408.006 115.231 408.027 115.16C408.353 114.774 408.762 114.543 409.328 114.589C409.432 114.601 409.527 114.619 409.631 114.642C409.684 114.66 409.757 114.678 409.809 114.696C409.851 114.707 409.883 114.713 409.924 114.725C410.019 114.755 410.113 114.784 410.196 114.82C410.291 114.849 410.374 114.884 410.448 114.926C410.531 114.961 410.625 115.003 410.699 115.044C410.751 115.074 410.793 115.109 410.845 115.139C410.928 115.186 410.991 115.233 411.043 115.287C411.106 115.334 411.169 115.381 411.221 115.435C411.273 115.488 411.325 115.541 411.367 115.6C411.409 115.66 411.44 115.713 411.482 115.772C411.513 115.825 411.534 115.885 411.575 115.944C412.416 118.224 407.226 119.515 404.482 119.187C404.994 119.607 405.496 120.045 405.537 120.222C405.537 120.234 405.537 120.246 405.537 120.246C404.814 120.146 404.113 120.01 403.422 119.845C402.532 119.592 401.622 119.302 401.224 119.172L401.214 119.178C400.168 118.788 399.226 118.327 398.39 117.795C394.084 114.991 393.826 110.844 397.796 107.818C397.681 107.86 397.576 107.896 397.46 107.937C397.24 108.026 396.999 108.115 396.778 108.216C396.778 108.216 396.778 108.216 396.768 108.222C396.653 108.264 396.548 108.311 396.453 108.353C396.432 108.365 396.422 108.371 396.411 108.377C396.306 108.424 396.201 108.472 396.117 108.519C395.991 108.579 395.866 108.638 395.75 108.703C395.698 108.733 395.645 108.763 395.582 108.798C395.53 108.828 395.456 108.858 395.404 108.887C395.341 108.923 395.288 108.965 395.225 109C395.173 109.03 395.12 109.06 395.078 109.083C395.005 109.125 394.952 109.166 394.879 109.208C394.837 109.232 394.795 109.255 394.753 109.291C394.679 109.333 394.616 109.38 394.532 109.428C394.511 109.451 394.48 109.469 394.448 109.487C394.375 109.54 394.312 109.588 394.238 109.641C394.207 109.659 394.175 109.677 394.154 109.701C394.06 109.766 393.986 109.831 393.892 109.896L393.881 109.902L393.871 109.908C393.797 109.974 393.713 110.045 393.64 110.11C393.629 110.116 393.619 110.122 393.608 110.128C393.534 110.193 393.461 110.258 393.387 110.324C393.377 110.329 393.366 110.347 393.356 110.353C393.282 110.418 393.209 110.484 393.146 110.555C393.135 110.561 393.125 110.567 393.114 110.573C393.041 110.65 392.977 110.721 392.904 110.786C392.904 110.798 392.893 110.804 392.893 110.804C392.82 110.881 392.746 110.958 392.673 111.035C392.609 111.118 392.546 111.189 392.483 111.273C392.42 111.356 392.346 111.433 392.294 111.51C392.231 111.593 392.178 111.67 392.115 111.753L392.125 111.759C392.073 111.836 392.01 111.919 391.967 112.002C391.946 112.026 391.936 112.043 391.925 112.061C391.925 112.073 391.915 112.079 391.915 112.091C391.219 113.253 391.016 114.503 391.326 115.747C391.357 115.824 391.378 115.907 391.398 115.99C391.398 116.014 391.419 116.037 391.419 116.061C391.44 116.132 391.46 116.203 391.492 116.28L391.397 116.298L391.387 116.292C391.261 116.197 391.136 116.103 391.011 116.008L391 116.002C390.77 115.825 390.551 115.641 390.332 115.458C390.269 115.41 390.206 115.351 390.154 115.298C390.112 115.263 390.081 115.233 390.039 115.197C389.976 115.15 389.924 115.097 389.862 115.05C389.82 115.002 389.768 114.961 389.726 114.913C388.932 114.18 388.264 113.41 387.701 112.629C387.086 114.857 387.476 117.155 388.873 119.311C387.754 118.583 386.751 117.79 385.926 116.944C382.962 113.854 382.262 110.241 383.971 106.874C381.975 108.488 380.627 110.338 380.034 112.282C379.692 111.328 379.538 110.363 379.573 109.385C379.687 106.671 381.267 104.039 384.093 101.849C382.079 102.586 380.264 103.495 378.73 104.539C381.752 94.292 399.632 92.0089 405.414 92.0143C405.446 92.0084 405.467 92.0084 405.488 91.9965C405.488 92.0084 405.488 92.0084 405.477 92.0143C405.488 92.0083 405.488 92.0083 405.509 92.0083C405.383 92.0796 405.267 92.1567 405.152 92.2339C404.942 92.3881 404.742 92.5365 404.553 92.6907C404.374 92.8509 404.206 93.017 404.038 93.1831C403.891 93.3491 403.744 93.527 403.617 93.7049C403.501 93.8769 403.386 94.0607 403.291 94.2444C403.206 94.4223 403.122 94.612 403.069 94.7957C403.005 94.9854 402.963 95.175 402.931 95.3587C402.898 95.5543 402.898 95.7439 402.897 95.9334C402.907 96.046 402.917 96.1467 402.938 96.2533C402.948 96.3422 402.958 96.4192 402.968 96.5081C403.01 96.6976 403.061 96.8812 403.145 97.0707C403.217 97.2543 403.3 97.4438 403.405 97.6215C403.519 97.805 403.644 97.9826 403.769 98.1602C403.905 98.3319 404.062 98.5035 404.229 98.6692C404.396 98.835 404.584 99.0006 404.772 99.1545C404.97 99.3142 405.19 99.4621 405.399 99.6041C405.555 99.7046 405.712 99.8052 405.88 99.8998C406.12 100.036 406.382 100.16 406.633 100.278C406.894 100.402 407.166 100.52 407.449 100.621C407.731 100.733 408.024 100.828 408.328 100.916L408.338 100.922C408.129 100.78 407.92 100.638 407.732 100.484C407.533 100.325 407.356 100.165 407.189 99.999C407.022 99.8333 406.865 99.6617 406.73 99.49C406.584 99.3124 406.469 99.1289 406.365 98.9513C406.25 98.7677 406.167 98.5901 406.084 98.4006C406.022 98.211 405.959 98.0215 405.918 97.832C405.877 97.6424 405.857 97.4528 405.857 97.2632C405.837 97.0737 405.859 96.8841 405.88 96.6944C405.912 96.4989 405.955 96.3092 406.008 96.1255C406.019 96.0959 406.04 96.0603 406.05 96.0307C406.114 95.8766 406.177 95.7224 406.251 95.5742C406.346 95.3905 406.451 95.2126 406.577 95.0347C406.704 94.8568 406.841 94.6849 406.998 94.5129C407.145 94.3468 407.324 94.1866 407.503 94.0265C407.702 93.8663 407.891 93.712 408.102 93.5696C408.322 93.4212 408.543 93.2729 408.773 93.1423C408.941 93.0473 409.12 92.9582 409.298 92.8691C409.56 92.7444 409.823 92.6315 410.085 92.5187C410.368 92.4058 410.652 92.3048 410.945 92.2096C411.239 92.1264 411.543 92.0372 411.847 91.9598C412.151 91.8824 412.476 91.8169 412.791 91.7573C413.116 91.7036 413.44 91.6499 413.765 91.6081C414.101 91.5722 414.426 91.5422 414.761 91.5181C415.096 91.5059 415.431 91.4937 415.777 91.4874C415.945 91.4872 416.133 91.487 416.311 91.4927C417.149 91.551 417.987 91.6331 418.793 91.7329C418.909 91.7505 419.003 91.7682 419.108 91.7918C419.673 91.8623 420.113 91.9803 420.542 92.1042Z" fill="#E0234E"/>
<rect width="58.1399" height="57.2448" transform="matrix(0.870409 0.492329 3.25539e-05 1 357.217 107.128)" fill="black" fill-opacity="0.15"/>
<rect width="58.1399" height="57.2448" transform="matrix(0.870409 -0.492329 -3.25539e-05 1 407.819 135.752)" fill="black" fill-opacity="0.3"/>
<path d="M320.304 107.148L269.696 78.5259L219.088 107.148V164.393L269.696 193.015L320.304 164.393V107.148Z" fill="#2E4468"/>
<rect width="58.1399" height="57.2448" transform="matrix(0.870409 0.492329 3.25539e-05 1 219.097 107.147)" fill="black" fill-opacity="0.2"/>
<rect width="58.1399" height="57.2448" transform="matrix(0.870409 -0.492329 -3.25539e-05 1 269.699 135.771)" fill="black" fill-opacity="0.4"/>
<path d="M238.723 107.717L271.795 85.0952L308.199 105.842L268.524 124.678L249.557 118.481" fill="#E44D26"/>
<path d="M252.681 116.735L287.011 97.1704L301.891 105.651L268.012 121.722" fill="#F16529"/>
<path d="M271.122 93.1873L282.561 99.7064L278.102 102.248L271.66 98.5765L267.514 101.42L273.534 104.851L269.084 107.387L258.89 101.577L271.122 93.1873ZM256.851 102.967L261.426 105.575L258.182 107.79L261.943 111.456L257.287 114.11L250.489 107.325" fill="#EBEBEB"/>
<path d="M293.96 106.202L282.541 99.6948L278.082 102.236L289.079 108.504L293.96 106.202ZM284.1 110.872L273.514 104.839L269.055 107.381L274.674 110.583L268.347 113.583L261.923 111.445L257.287 114.087L269.153 117.961" fill="white"/>
<path d="M113.474 145.659L62.8661 117.036L12.2578 145.659V202.903L62.8661 231.526L113.474 202.903V145.659Z" fill="#2E4468"/>
<rect width="58.1399" height="57.2448" transform="matrix(0.870409 0.492329 3.25539e-05 1 12.2617 145.657)" fill="black" fill-opacity="0.2"/>
<rect width="58.1399" height="57.2448" transform="matrix(0.870409 -0.492329 -3.25539e-05 1 62.8643 174.281)" fill="black" fill-opacity="0.4"/>
<path d="M57.9655 129.904L75.1366 129.786L34.737 152.81L34.8435 143.082L57.9655 129.904L57.9655 129.904Z" fill="url(#paint0_linear_1546_6491)"/>
<path d="M90.6592 148.629L90.8267 138.733L50.606 161.854L67.677 161.793L90.6592 148.629V148.629Z" fill="url(#paint1_linear_1546_6491)"/>
<path d="M75.1241 129.787L63.0351 161.813L50.6031 161.865L62.6049 129.875L75.1241 129.787Z" fill="url(#paint2_linear_1546_6491)"/>
<path d="M59.2956 138.818L57.9388 139.577L61.3291 129.884L62.6109 129.872L59.2956 138.818Z" fill="black" fill-opacity="0.13"/>
<path d="M526.779 145.659L476.171 117.036L425.562 145.659V202.904L476.171 231.526L526.779 202.904V145.659Z" fill="#2E4468"/>
<rect width="58.1399" height="57.2448" transform="matrix(0.870409 0.492329 3.25539e-05 1 425.567 145.657)" fill="black" fill-opacity="0.2"/>
<rect width="58.1399" height="57.2448" transform="matrix(0.870409 -0.492329 -3.25539e-05 1 476.17 174.281)" fill="black" fill-opacity="0.4"/>
<path d="M495.042 133.561C494.947 133.516 494.643 133.374 494.375 133.244C488.118 130.268 479.646 128.969 471.483 129.741C466.941 130.169 462.726 131.189 459.089 132.739C457.817 133.28 457.47 133.455 455.965 134.313C454.46 135.17 454.152 135.369 453.204 136.093C446.715 141.043 445.739 147.753 450.7 153.272C451.589 154.26 452.683 155.212 454.081 156.207C454.626 156.594 457.272 158.102 457.951 158.413C460.965 159.788 463.935 160.716 467.359 161.348C467.885 161.445 467.999 161.456 467.991 161.407C467.983 161.375 468.489 159.399 469.113 157.017L470.246 152.689L472.19 146.967C473.256 143.821 474.117 141.241 474.101 141.232C474.089 141.221 471.412 142.729 468.153 144.577C462.45 147.814 462.217 147.942 462.012 147.978C461.715 148.03 461.557 148.03 461.305 147.985C461.115 147.949 460.993 147.892 460.396 147.553L459.713 147.163L459.646 146.994C459.602 146.884 459.614 146.778 459.669 146.679L459.764 146.531L467.691 142.022L475.626 137.514L475.902 137.496C476.048 137.484 476.289 137.5 476.435 137.525C476.676 137.572 476.747 137.604 477.431 137.993C478.236 138.452 478.339 138.547 478.319 138.797C478.315 138.866 477.206 141.997 475.851 145.759C474.496 149.52 472.652 154.659 471.747 157.182L470.1 161.767L470.369 161.798C472.735 162.084 475.578 162.192 478.161 162.089C483.651 161.873 488.877 160.772 493.245 158.913C494.517 158.372 494.864 158.197 496.369 157.339C497.874 156.482 498.182 156.284 499.13 155.559C505.619 150.609 506.595 143.899 501.634 138.38C500.761 137.406 499.675 136.458 498.308 135.481C497.969 135.242 495.401 133.73 495.042 133.561V133.561ZM491.092 145.239C491.187 145.401 491.16 145.592 491.025 145.732C490.954 145.808 488.766 147.064 483.809 149.88L476.696 153.92L477.364 152.113L478.027 150.303L483.189 147.361C486.527 145.459 488.419 144.399 488.533 144.361C488.817 144.271 489.129 144.25 489.422 144.3C489.667 144.345 489.734 144.374 490.354 144.728C490.938 145.061 491.033 145.124 491.092 145.239V145.239Z" fill="white"/>
<path d="M250.718 145.659L200.109 117.036L149.501 145.659V202.904L200.109 231.526L250.718 202.904V145.659Z" fill="#2E4468"/>
<rect width="58.1399" height="57.2448" transform="matrix(0.870409 0.492329 3.25539e-05 1 149.511 145.657)" fill="black" fill-opacity="0.2"/>
<rect width="58.1399" height="57.2448" transform="matrix(0.870409 -0.492329 -3.25539e-05 1 200.113 174.281)" fill="black" fill-opacity="0.4"/>
<path d="M204.558 142.183L206.5 143.281L203.147 145.177L197.897 142.208L182.98 150.644L182.803 150.587C182.563 150.508 180.064 149.095 179.583 148.758L179.191 148.494L194.101 140.061L188.851 137.092L192.203 135.196L193.886 136.126C194.81 136.634 197.15 137.958 199.086 139.067C201.022 140.176 203.483 141.575 204.558 142.183V142.183ZM202.692 160.003C201.104 160.028 199.82 159.817 198.068 159.248C197.302 159.001 197.195 158.947 195.847 158.178C194.5 157.409 194.392 157.348 193.905 156.88C192.64 155.67 192.121 154.411 192.393 153.198C192.469 152.855 192.741 152.207 192.83 152.157C192.855 152.143 192.975 152.146 193.095 152.171C193.216 152.196 193.494 152.232 193.715 152.264C193.937 152.297 194.342 152.354 194.601 152.4C194.86 152.447 195.645 152.561 196.334 152.658C197.024 152.755 197.625 152.858 197.669 152.883C197.713 152.908 197.707 153.005 197.663 153.102C197.403 153.678 197.473 154.64 197.821 155.152C198.042 155.463 198.713 156.05 199.124 156.282C199.504 156.497 200.364 156.797 200.908 156.912C201.49 157.033 201.876 157.044 202.483 156.973C202.907 156.919 202.996 156.89 203.483 156.608C203.938 156.35 204.039 156.264 204.122 156.075C204.349 155.545 204.172 155.101 203.084 153.513C201.964 151.871 201.591 151.059 201.572 150.24C201.56 149.631 201.597 149.488 201.92 148.919C202.331 148.186 202.553 147.996 203.818 147.274C204.704 146.766 205.013 146.612 205.412 146.494C206 146.311 207.31 146.057 207.727 146.043C208.607 146.004 208.898 146.004 209.416 146.032C210.985 146.118 212.794 146.612 214.123 147.313C214.268 147.395 214.724 147.682 215.141 147.953C216.324 148.744 216.887 149.42 217.058 150.282C217.191 150.93 216.969 152.15 216.716 152.186C216.558 152.204 212.352 151.728 212.136 151.663C212.004 151.624 211.972 151.563 211.997 151.392C212.168 150.322 212.042 150 211.257 149.499C210.7 149.141 210.315 149.002 209.65 148.927C208.955 148.848 208.328 148.973 207.74 149.306C206.886 149.796 206.81 150.211 207.424 151.238C207.822 151.9 208.176 152.458 208.227 152.486C208.303 152.529 209.119 153.907 209.29 154.289C210.106 156.06 209.72 157.187 207.879 158.464C206.487 159.423 204.64 159.974 202.692 160.003V160.003Z" fill="#017ACB"/>
<path d="M388.839 145.659L338.23 117.036L287.622 145.659V202.903L338.23 231.526L388.839 202.903V145.659Z" fill="#2E4468"/>
<rect width="58.1399" height="57.2448" transform="matrix(0.870409 0.492329 3.25539e-05 1 287.631 145.657)" fill="black" fill-opacity="0.2"/>
<rect width="58.1399" height="57.2448" transform="matrix(0.870409 -0.492329 -3.25539e-05 1 338.233 174.281)" fill="black" fill-opacity="0.4"/>
<path d="M376.86 143.842L337.12 162.643L317.906 156.303L306.818 145.38L339.817 122.731L376.86 143.842Z" fill="#264DE4"/>
<path d="M336.547 159.677L370.507 143.611L355.365 134.981L321.021 154.554L336.547 159.677Z" fill="#2965F1"/>
<path d="M331.082 136.518L327.037 139.297L337.415 145.211L341.875 142.669L331.082 136.518Z" fill="#EBEBEB"/>
<path d="M350.905 137.523L350.889 137.514L339.276 130.896L335.237 133.679L346.444 140.066L350.905 137.523Z" fill="#EBEBEB"/>
<path d="M325.65 151.916L330.291 149.271L330.266 149.263L326.442 145.555L329.67 143.339L327.16 141.909L325.015 140.686L318.66 145.048L325.623 151.907L325.65 151.916Z" fill="#EBEBEB"/>
<path d="M343.109 148.456L336.785 151.447L330.27 149.264L325.63 151.909L337.671 155.883L338.494 155.493L351.328 149.421L352.639 148.803L362.504 144.135L350.888 137.514L346.427 140.057L352.961 143.781L347.972 146.143L341.859 142.66L337.398 145.202L343.109 148.456Z" fill="white"/>
<path d="M458.425 184.169L407.816 155.546L357.208 184.169V241.414L407.816 270.036L458.425 241.414V184.169Z" fill="#2E4468"/>
<rect width="58.1399" height="57.2448" transform="matrix(0.870409 0.492329 3.25539e-05 1 357.208 184.167)" fill="black" fill-opacity="0.2"/>
<rect width="58.1399" height="57.2448" transform="matrix(0.870409 -0.492329 -3.25539e-05 1 407.811 212.791)" fill="black" fill-opacity="0.4"/>
<path d="M425.92 171.945C427.506 172.195 428.827 172.945 429.262 173.85C431.503 178.371 433.751 182.891 435.99 187.413C436.414 188.262 436 189.228 434.898 189.844L417.776 199.602C416.647 200.254 414.864 200.468 413.334 200.19C405.432 198.913 397.53 197.64 389.63 196.363C388.012 196.108 386.712 195.315 386.344 194.385C385.696 193.021 385.042 191.658 384.393 190.295C384.266 190.014 384.061 189.731 384.14 189.436C384.593 189.399 384.972 189.578 385.366 189.674C386.201 189.922 387.104 190.071 387.998 190.226C388.246 190.253 388.387 190.378 388.439 190.509C389.002 191.671 389.531 192.838 390.104 193.998C390.224 194.247 390.716 194.287 391.086 194.348C398.846 195.597 406.602 196.856 414.362 198.104C414.634 198.159 414.93 198.107 415.115 197.984C420.767 194.767 426.413 191.546 432.062 188.328C432.31 188.211 432.386 188.016 432.272 187.845C430.036 183.36 427.807 178.873 425.572 174.388C425.544 174.304 425.472 174.227 425.366 174.166C425.26 174.105 425.125 174.064 424.978 174.048C417.106 172.775 409.232 171.507 401.363 170.233C401.063 170.168 400.72 170.206 400.517 170.35C394.869 173.569 389.219 176.788 383.57 180.008C383.464 180.058 383.387 180.126 383.352 180.203C383.316 180.279 383.322 180.36 383.369 180.435C383.961 181.635 384.559 182.833 385.154 184.031C385.509 184.695 386.202 185.364 387.349 185.665C388.351 185.936 389.615 185.806 390.378 185.356C396 182.159 401.606 178.953 407.229 175.758C407.46 175.605 407.905 175.624 408.126 175.777C408.778 176.144 409.431 176.511 410.069 176.886C410.345 177.037 410.263 177.296 409.978 177.42C404.325 180.639 398.683 183.865 393.021 187.079C391.517 187.938 389.253 188.516 387.109 188.134C384.487 187.652 382.532 186.324 381.672 184.862C380.922 183.6 380.372 182.301 379.7 181.023C379.207 180.151 379.591 179.135 380.734 178.492L397.856 168.734C398.959 168.093 400.698 167.86 402.21 168.123C410.113 169.398 418.017 170.672 425.92 171.945Z" fill="#8CC84B"/>
<path d="M418.481 181.225C420.833 182.405 423.143 183.787 424.055 185.536C424.769 186.885 423.889 188.36 422.221 189.341C421.95 189.447 421.582 189.381 421.378 189.246C420.737 188.88 420.086 188.52 419.457 188.147C419.175 187.998 419.265 187.766 419.469 187.611C420.095 187.044 420.452 186.332 420.072 185.669C419.475 184.661 418.073 183.896 416.771 183.167C415.78 182.659 414.686 182.128 413.34 181.985C412.312 181.873 411.287 182.245 410.83 182.754C410.552 183.148 410.961 183.559 411.279 183.905C413.254 185.817 416.146 187.387 417.852 189.395C418.564 190.222 418.904 191.236 418.152 192.086C417.133 193.219 415.124 194.122 412.837 194.194C410.967 194.261 409.15 193.842 407.584 193.284C405.517 192.532 403.75 191.536 402.196 190.461C400.762 189.435 399.5 188.237 399.342 186.904C399.192 185.773 400.101 184.661 401.532 183.904C401.778 183.778 402.174 183.819 402.381 183.959C403.032 184.324 403.68 184.691 404.318 185.064C404.594 185.2 404.565 185.435 404.337 185.58C403.684 186.088 403.167 186.717 403.389 187.366C403.864 188.592 405.569 189.499 407.049 190.369C408.349 191.048 409.764 191.835 411.596 191.95C412.597 191.991 413.533 191.638 414.058 191.174C414.465 190.763 414.132 190.272 413.791 189.882C411.984 187.913 408.83 186.456 407.156 184.441C406.469 183.627 406.145 182.645 406.815 181.801C407.77 180.61 409.913 179.685 412.273 179.701C414.597 179.703 416.724 180.406 418.481 181.225L418.481 181.225Z" fill="#8CC84B"/>
<path d="M182.192 184.156L131.584 155.533L80.9756 184.156V241.4L131.584 270.023L182.192 241.4V184.156Z" fill="#2E4468"/>
<path d="M104.738 191.667C108.455 193.786 114.49 193.786 118.208 191.667L124.943 187.828L118.208 183.99C114.49 181.871 108.455 181.871 104.738 183.99C101.02 186.109 101.02 189.548 104.738 191.667Z" fill="#0ACF83"/>
<path d="M118.208 176.313C121.926 174.195 127.961 174.195 131.678 176.313L138.413 180.152L124.943 187.828L118.208 183.99C114.491 181.871 114.491 178.432 118.208 176.313Z" fill="#A259FF"/>
<path d="M131.678 168.637C135.396 166.518 141.43 166.518 145.148 168.637L151.883 172.475L138.413 180.152L131.678 176.314C127.96 174.195 127.96 170.756 131.678 168.637Z" fill="#F24E1E"/>
<path d="M151.883 172.475L158.618 176.313C162.336 178.432 162.336 181.871 158.618 183.99C154.9 186.109 148.866 186.109 145.148 183.99L138.413 180.152L151.883 172.475Z" fill="#FF7262"/>
<path d="M145.148 191.667C141.43 193.786 135.396 193.786 131.678 191.667C127.96 189.548 127.96 186.109 131.678 183.99C135.396 181.871 141.43 181.871 145.148 183.99C148.866 186.109 148.866 189.548 145.148 191.667Z" fill="#1ABCFE"/>
<rect width="58.1399" height="57.2448" transform="matrix(0.870409 0.492329 3.25539e-05 1 80.9756 184.153)" fill="black" fill-opacity="0.2"/>
<rect width="58.1399" height="57.2448" transform="matrix(0.870409 -0.492329 -3.25539e-05 1 131.578 212.777)" fill="black" fill-opacity="0.4"/>
<path d="M320.123 184.169L269.515 155.546L218.906 184.169V241.414L269.515 270.036L320.123 241.414V184.169Z" fill="#2E4468"/>
<rect width="58.1399" height="57.2448" transform="matrix(0.870409 0.492329 3.25539e-05 1 218.91 184.167)" fill="black" fill-opacity="0.2"/>
<rect width="58.1399" height="57.2448" transform="matrix(0.870409 -0.492329 -3.25539e-05 1 269.513 212.791)" fill="black" fill-opacity="0.4"/>
<path d="M265.09 194.766C264.575 195.987 264.657 197.148 266.53 198.215C268.103 199.112 269.895 199.236 270.982 198.617C272.284 197.875 271.712 197.024 270.738 195.605L270.196 194.832C268.623 192.605 268.265 190.734 271.357 188.972C274.205 187.349 278.543 187.35 281.934 189.283C284.348 190.659 285.244 192.127 284.294 194.094L279.439 193.49C279.955 192.454 279.713 191.792 278.622 191.17C277.51 190.536 276.1 190.537 275.178 191.062C274.039 191.711 274.283 192.376 275.207 193.707L275.749 194.48C277.592 197.107 278.003 198.949 274.832 200.756C271.413 202.704 266.855 202.241 263.248 200.186C259.721 198.176 259.123 195.92 260.211 194.029L265.09 194.766ZM251.347 187.309C250.885 188.252 250.533 189.071 251.837 189.815C253.085 190.526 254.36 190.696 256.258 189.614L269.17 182.256L272.967 184.42L260.004 191.808C256.072 194.049 251.977 193.755 248.612 191.837C245.572 190.104 245.385 188.204 246.384 186.614L251.347 187.309Z" fill="#F7DF1E"/>
<path d="M388.847 223.72L338.239 195.098L287.631 223.72V280.965L338.239 309.587L388.847 280.965V223.72Z" fill="#2E4468"/>
<rect width="58.1399" height="57.2448" transform="matrix(0.870409 0.492329 3.25539e-05 1 287.635 223.719)" fill="black" fill-opacity="0.2"/>
<rect width="58.1399" height="57.2448" transform="matrix(0.870409 -0.492329 -3.25539e-05 1 338.237 252.343)" fill="black" fill-opacity="0.4"/>
<path d="M350.563 233.493C349.145 232.694 347.581 232.189 346.053 231.891C346.422 231.251 346.71 230.658 347.13 230.343C347.625 229.977 347.883 229.729 348.651 229.392C349.418 229.055 350.784 228.732 350.85 228.685C350.917 228.639 351.183 228.395 350.378 227.928C349.573 227.461 348.71 227.154 348.415 227.23C348.119 227.306 347.477 227.495 346.872 227.722C345.994 228.063 341.875 228.719 339.646 229.022C339.912 228.559 340.148 228.155 340.473 227.911C340.967 227.545 341.225 227.297 341.993 226.961C342.761 226.624 344.126 226.3 344.193 226.254C344.259 226.208 344.525 225.964 343.72 225.497C342.916 225.03 342.052 224.723 341.757 224.799C341.462 224.874 340.871 225.11 340.214 225.291C339.557 225.472 333.187 226.855 331.534 227.209C330.685 227.39 329.991 227.524 329.512 227.613C329.512 227.613 329.482 227.621 329.423 227.629C329.01 227.705 328.781 227.743 328.781 227.743C328.781 227.743 328.781 227.743 328.774 227.747C328.464 227.798 328.161 227.836 328.102 227.802C328.058 227.777 328.508 227.428 329.371 227.095C331.195 226.393 334.273 225.438 334.346 225.387C334.391 225.362 334.937 225.202 334.56 224.744C334.199 224.294 333.638 224.378 333.586 224.348C333.534 224.319 333.372 224.369 333.372 224.369C333.372 224.369 336.686 223.213 334.819 222.148C333.652 221.484 330.766 221.294 328.818 221.496C328.043 221.366 326.39 221.088 324.618 220.794C323.939 220.685 323.245 220.567 322.596 220.457C322.596 220.424 322.603 220.386 322.603 220.352C322.758 217.69 320.285 214.337 323.703 212.591C324.95 211.956 328.456 210.421 339.771 212.579C349.049 214.375 353.146 217.677 352.12 219.238C350.659 221.467 341.794 222.102 334.649 218.855C331.925 217.614 331.586 216.343 331.615 215.956C331.645 215.553 331.615 215.511 331.416 215.481C331.099 215.426 330.899 215.691 330.781 215.843C330.471 216.238 330.375 217.193 331.276 218.203C332.073 219.094 334.73 220.853 339.55 222.068C344.946 223.427 352.172 222.775 354.785 220.268C357.449 217.732 352.718 213.698 345.145 211.645C340.642 210.425 335.18 209.432 330.169 209.335C324.212 209.222 321.223 210.37 320.374 211.081C317.37 213.609 320.079 217.912 320.337 220.104C320.175 220.079 320.027 220.054 319.902 220.033C318.366 219.738 312.41 218.674 309.273 219.351C305.715 220.117 305.243 221.85 305.855 222.468C307.76 224.386 311.782 225.181 315.406 224.773C319.031 224.365 321.673 222.657 322.293 221.538C322.3 221.526 322.308 221.513 322.308 221.496C322.728 221.559 323.164 221.623 323.585 221.686C324.419 221.808 325.223 221.938 325.902 222.056C324.965 222.304 323.961 222.666 322.692 223.288C321.193 224.016 319.961 225.366 319.997 226.195C320.02 226.561 320.403 226.788 320.654 226.931C321.525 227.428 322.64 227.238 323.932 226.998C325.511 226.704 327.209 226.283 327.209 226.283C327.209 226.283 323.319 227.819 324.943 228.744C325.533 229.081 326.899 228.984 327.556 228.912C327.548 228.917 327.548 228.917 327.548 228.917C327.548 228.917 327.585 228.912 327.666 228.9C327.821 228.879 327.917 228.866 327.917 228.866C327.917 228.866 327.925 228.862 327.932 228.858C328.582 228.757 330.051 228.525 332.398 228.088C335.424 227.524 338.915 226.654 338.915 226.654C338.915 226.654 338.391 227.053 337.675 227.806C337.254 228.248 336.967 228.833 336.627 229.363C336.059 229.417 335.727 229.438 335.727 229.438C335.727 229.438 335.727 229.438 335.727 229.447C335.284 229.48 334.804 229.518 334.309 229.539C332.545 229.628 330.486 229.707 330.036 229.813C329.504 229.939 329.268 230.116 329.342 230.41C329.394 230.624 329.755 230.856 330.169 231.066C330.944 231.449 331.63 231.638 331.992 231.718C332.523 231.861 333.195 232 333.94 232.063C335.313 232.181 336.627 231.979 337.683 231.327C338.266 230.969 338.672 230.511 338.996 230.048C339.174 230.031 339.343 230.01 339.52 229.994C342.591 229.665 345.558 229.077 345.558 229.077C345.558 229.077 345.034 229.476 344.318 230.229C343.949 230.608 343.691 231.1 343.41 231.563C341.285 231.436 339.454 231.655 338.472 231.92C336.664 232.421 336.42 232.972 336.967 233.443C337.21 233.657 337.801 233.826 338.266 233.931C338.812 234.091 339.528 234.238 340.332 234.309C341.705 234.427 343.277 234.398 344.333 233.746C344.813 233.447 345.174 233.09 345.47 232.711C346.879 233.043 348.393 233.645 349.839 234.688C352.939 236.926 351.441 238.571 350.385 239.021C349.33 239.471 348.09 239.336 347.691 239.286C347.293 239.235 347.16 239.218 347.071 239.294C346.938 239.403 347.064 239.467 347.3 239.567C347.64 239.702 349.891 240.194 351.655 239.265C353.936 238.091 354.238 235.563 350.563 233.493ZM314.321 223.255C311.886 223.314 309.782 222.662 309.487 222.031C309.169 221.353 311.339 220.453 314.115 220.504C315.805 220.533 317.687 220.739 318.898 220.899C319.171 220.937 319.569 220.996 320.057 221.063C320.138 221.076 320.182 221.084 320.182 221.084C320.278 221.097 320.374 221.109 320.47 221.122C319.075 222.514 316.883 223.192 314.321 223.255ZM328.582 224.803C327.187 225.135 323.806 226.094 323.43 225.72C323.105 225.4 324.751 224.151 327.275 223.427C328.545 223.065 330.353 222.8 331.187 222.771C332.531 222.729 333.468 222.994 333.35 223.255C333.187 223.591 329.453 224.592 328.582 224.803ZM332.235 230.704C331.977 230.658 331.756 230.599 331.726 230.532C331.704 230.486 331.947 230.49 331.947 230.49C331.947 230.49 333.771 230.452 334.546 230.406C334.996 230.376 335.527 230.343 336.11 230.296C336.081 230.313 336.044 230.334 336.014 230.351C334.885 230.995 333.032 230.805 332.235 230.704ZM338.871 233.081C338.834 232.959 339.151 232.803 340.495 232.517C341.019 232.404 342.008 232.278 343.248 232.32C343.086 232.496 342.908 232.656 342.687 232.774C341.255 233.582 339.705 233.304 338.871 233.081Z" fill="#CD6799"/>
<path d="M250.715 223.72L200.106 195.098L149.498 223.72V280.965L200.106 309.587L250.715 280.965V223.72Z" fill="#2E4468"/>
<path d="M216.62 232.943C218.697 231.759 218.676 229.827 216.573 228.629C216.438 228.552 216.297 228.48 216.152 228.413L236.619 222.71L214.393 210.043L204.392 221.695C204.32 221.649 204.245 221.603 204.168 221.559C202.065 220.361 198.676 220.349 196.599 221.533C194.92 222.49 194.612 223.935 195.666 225.087C193.465 225.416 191.191 225.547 188.95 225.502C185.902 225.44 182.982 225.047 180.342 224.325C179.197 222.328 180.723 220.207 184.014 219.46C184.386 219.376 184.763 219.291 185.135 219.204C187.207 219.942 189.954 219.808 191.736 218.792C193.814 217.608 193.793 215.677 191.689 214.478C189.586 213.28 186.198 213.268 184.12 214.452C182.846 215.178 182.363 216.185 182.663 217.132C179.601 217.802 175.997 218.277 172.994 219.496C169.396 220.958 166.641 223.115 167.492 225.706C169.473 231.738 183.262 231.654 192.205 234.754C195.446 235.877 198.205 237.566 201.815 238.126C204.525 238.547 207.297 238.263 209.455 237.4C211.587 236.549 212.928 235.255 213.323 233.812C214.572 233.754 215.74 233.446 216.62 232.943" fill="#99425B"/>
<path d="M208.695 236.789C206.822 237.537 204.434 237.763 202.143 237.407C200.007 237.076 198.148 236.281 196.179 235.438C195.124 234.987 194.034 234.521 192.874 234.119C189.807 233.056 186.247 232.362 182.804 231.692C175.913 230.35 169.963 229.191 168.776 225.577C167.906 222.93 171.526 221.012 173.761 220.105C175.832 219.264 178.27 218.792 180.627 218.336C181.028 218.258 181.428 218.18 181.828 218.101C182.066 218.413 182.375 218.705 182.749 218.971C179.374 219.992 177.811 222.302 179.099 224.549L179.276 224.856L179.788 224.996C182.583 225.76 185.655 226.181 188.919 226.246C191.029 226.288 193.095 226.182 195.07 225.936C195.269 226.09 195.489 226.235 195.726 226.37C198.126 227.738 201.886 227.861 204.483 226.731C205.501 227.271 206.545 227.865 207.498 228.449C205.515 229.929 205.731 232.072 208.131 233.44C209.135 234.012 210.376 234.365 211.671 234.501C211.127 235.418 210.114 236.222 208.695 236.789V236.789ZM190.77 215.002C192.357 215.906 192.373 217.369 190.805 218.262C190.242 218.583 189.55 218.787 188.821 218.875C187.605 219.023 186.287 218.847 185.29 218.351C185.22 218.316 185.151 218.28 185.085 218.242C184.731 218.041 184.456 217.811 184.259 217.567C183.862 217.074 183.778 216.519 184.022 215.999C184.201 215.614 184.556 215.263 185.05 214.982C186.617 214.089 189.183 214.098 190.77 215.002V215.002ZM197.528 222.063C198.953 221.251 201.201 221.185 202.79 221.857C202.951 221.925 203.104 222 203.249 222.083C204.172 222.609 204.561 223.323 204.419 224.004C204.384 224.175 204.316 224.342 204.216 224.503C204.019 224.819 203.7 225.106 203.284 225.343C203.057 225.473 202.808 225.583 202.545 225.674C201.105 226.175 199.217 226.11 197.868 225.48C197.763 225.431 197.662 225.379 197.564 225.323C197.01 225.008 196.626 224.609 196.459 224.175C196.174 223.434 196.529 222.633 197.528 222.063V222.063ZM212.92 226.982C211.704 226.961 210.504 227.131 209.453 227.472C208.407 226.832 207.322 226.213 206.197 225.617C206.846 224.97 207.129 224.234 207.047 223.506L215.973 221.813L212.92 226.982ZM214.771 211.306L234.403 222.494L216.257 227.55C216.011 227.463 215.755 227.385 215.49 227.318L220.14 219.447L206.372 222.058C206.239 221.905 206.089 221.757 205.922 221.616L214.771 211.306ZM215.689 232.413C215.404 232.575 215.086 232.707 214.746 232.81C213.947 233.052 213.024 233.132 212.127 233.039C211.311 232.954 210.557 232.729 209.968 232.393C208.639 231.635 208.413 230.487 209.295 229.609C209.47 229.434 209.684 229.274 209.933 229.132C210.322 228.911 210.772 228.745 211.253 228.634C211.5 228.578 211.756 228.536 212.018 228.509C213.291 228.374 214.663 228.588 215.654 229.153C215.744 229.204 215.829 229.258 215.91 229.313C217.237 230.223 217.167 231.57 215.689 232.413L215.689 232.413ZM217.549 233.473C219.834 232.171 220.074 230.134 218.286 228.651L238.835 222.925L214.014 208.78L203.944 220.513C201.359 219.571 197.9 219.731 195.668 221.003C193.993 221.958 193.418 223.307 193.934 224.544C192.337 224.718 190.676 224.791 188.979 224.757C186.289 224.703 183.753 224.38 181.433 223.796C180.794 222.24 182.053 220.71 184.51 220.153L184.702 220.109L185.064 220.027C187.552 220.719 190.623 220.486 192.665 219.322C195.246 217.852 195.22 215.444 192.608 213.955C189.995 212.466 185.77 212.451 183.189 213.922C181.887 214.664 181.249 215.645 181.272 216.627C180.769 216.728 180.265 216.827 179.759 216.924C177.343 217.392 174.605 217.922 172.227 218.888C167.503 220.806 165.365 223.273 166.206 225.834C166.717 227.388 167.925 228.574 169.579 229.516C172.694 231.292 177.392 232.207 181.986 233.101C185.294 233.746 188.716 234.412 191.535 235.389C192.584 235.753 193.576 236.177 194.626 236.626C196.708 237.517 198.861 238.438 201.485 238.845C204.527 239.317 207.709 239.013 210.214 238.012C212.364 237.153 213.809 235.889 214.42 234.465C215.607 234.307 216.69 233.963 217.549 233.473L217.549 233.473Z" fill="white"/>
<rect width="58.1399" height="57.2448" transform="matrix(0.870409 0.492329 3.25539e-05 1 149.503 223.719)" fill="black" fill-opacity="0.2"/>
<rect width="58.1399" height="57.2448" transform="matrix(0.870409 -0.492329 -3.25539e-05 1 200.105 252.343)" fill="black" fill-opacity="0.4"/>
<path d="M320.118 262.23L269.51 233.608L218.901 262.23V319.475L269.51 348.097L320.118 319.475V262.23Z" fill="#2E4468"/>
<rect width="58.1399" height="57.2448" transform="matrix(0.870409 0.492329 3.25539e-05 1 218.901 262.228)" fill="black" fill-opacity="0.2"/>
<rect width="58.1399" height="57.2448" transform="matrix(0.870409 -0.492329 -3.25539e-05 1 269.504 290.852)" fill="black" fill-opacity="0.4"/>
<path d="M266.448 264.425C268.354 265.511 271.494 265.483 273.461 264.361C275.429 263.24 275.478 261.451 273.572 260.364C271.666 259.278 268.526 259.306 266.559 260.428C264.592 261.549 264.542 263.338 266.448 264.425Z" fill="#61DAFB"/>
<path d="M262.711 266.555C272.94 272.384 284.501 275.248 288.532 272.95C292.563 270.653 287.539 264.065 277.309 258.235C267.08 252.406 255.52 249.542 251.489 251.84C247.458 254.137 252.482 260.725 262.711 266.555Z" stroke="#61DAFB" stroke-width="1.5"/>
<path d="M260.236 260.984C256.208 269.11 257.317 276.329 262.715 277.108C268.113 277.887 275.755 271.931 279.784 263.805C283.813 255.68 282.703 248.461 277.305 247.682C271.907 246.903 264.265 252.859 260.236 260.984Z" stroke="#61DAFB" stroke-width="1.5"/>
<path d="M267.536 256.825C253.278 259.121 242.828 263.476 244.194 266.552C245.561 269.628 258.228 270.261 272.486 267.965C286.743 265.669 297.194 261.314 295.827 258.237C294.46 255.161 281.794 254.529 267.536 256.825Z" stroke="#61DAFB" stroke-width="1.5"/>
<defs>
<filter id="filter0_f_1546_6491" x="0.967773" y="110.287" width="541.355" height="314.474" filterUnits="userSpaceOnUse" color-interpolation-filters="sRGB">
<feFlood flood-opacity="0" result="BackgroundImageFix"/>
<feBlend mode="normal" in="SourceGraphic" in2="BackgroundImageFix" result="shape"/>
<feGaussianBlur stdDeviation="5" result="effect1_foregroundBlur_1546_6491"/>
</filter>
<linearGradient id="paint0_linear_1546_6491" x1="70.8954" y1="127.369" x2="51.0866" y2="162.128" gradientUnits="userSpaceOnUse">
<stop stop-color="#16B0ED" stop-opacity="0.8"/>
<stop offset="1" stop-color="#0F59B2" stop-opacity="0.837"/>
</linearGradient>
<linearGradient id="paint1_linear_1546_6491" x1="95.155" y1="141.2" x2="75.3485" y2="175.954" gradientUnits="userSpaceOnUse">
<stop stop-color="#7DB643"/>
<stop offset="1" stop-color="#367533"/>
</linearGradient>
<linearGradient id="paint2_linear_1546_6491" x1="83.0595" y1="134.31" x2="63.2487" y2="169.071" gradientUnits="userSpaceOnUse">
<stop stop-color="#88C649" stop-opacity="0.8"/>
<stop offset="1" stop-color="#439240" stop-opacity="0.84"/>
</linearGradient>
</defs>
</svg>
