<svg width="28" height="32" viewBox="0 0 28 32" fill="none" xmlns="http://www.w3.org/2000/svg">
<path d="M0.0732422 7.99956L14.0366 0L28 7.99956L14.0366 15.9991L0.0732422 7.99956Z" fill="#2E4468"/>
<path d="M8.10838 5.13269C8.22963 4.88157 8.59334 4.67238 9.03216 4.60346C11.2253 4.24844 13.4176 3.89246 15.6109 3.53785C16.0229 3.47082 16.4912 3.53641 16.7902 3.71078L21.5233 6.42237C21.8395 6.60123 21.9434 6.88352 21.8085 7.12595C21.1891 8.37724 20.5714 9.62866 19.9522 10.8798C19.8283 11.136 19.4441 11.3419 18.9925 11.4002C18.3311 11.5028 17.6701 11.6065 17.0089 11.7092C16.8723 11.7294 16.7352 11.7617 16.5921 11.7492C16.5742 11.6775 16.6611 11.6175 16.7078 11.555C16.828 11.4229 16.9004 11.2798 16.9756 11.1382C16.9887 11.099 17.0491 11.0766 17.1128 11.0684C17.6762 10.9793 18.2423 10.8955 18.8049 10.8047C18.9258 10.7858 18.9453 10.7078 18.9747 10.6493C19.5807 9.42032 20.1912 8.19203 20.7967 6.96305C20.8234 6.91995 20.798 6.87314 20.7386 6.84385C19.1782 5.9488 17.6158 5.05456 16.0547 4.15993C15.9978 4.12067 15.9035 4.10864 15.8206 4.12675C13.6449 4.48087 11.4687 4.8339 9.29307 5.18777C9.2524 5.1922 9.2149 5.20356 9.18549 5.22036C9.15609 5.23716 9.13615 5.25861 9.1283 5.28189C8.51085 6.52846 7.89559 7.77545 7.27767 9.02174C7.2463 9.06916 7.26469 9.12358 7.33442 9.15575C8.89602 10.0501 10.4574 10.9449 12.019 11.8395C12.0436 11.8564 12.0766 11.8684 12.1137 11.8741C12.1507 11.8798 12.1901 11.8788 12.2264 11.8713C12.8083 11.7776 13.3893 11.6829 13.9707 11.5887C14.2928 11.5324 14.6173 11.4227 14.763 11.241C14.8947 11.0824 14.8316 10.8821 14.613 10.7614C13.0626 9.87099 11.5073 8.98323 9.95766 8.09271C9.88365 8.05616 9.89275 7.98572 9.96691 7.95066C10.1448 7.84738 10.3229 7.74396 10.5049 7.64301C10.578 7.59923 10.7036 7.61227 10.7638 7.65734C12.3251 8.55265 13.8899 9.44606 15.4488 10.3428C15.8656 10.581 16.1458 10.9395 15.9605 11.279C15.7271 11.6944 15.0827 12.0038 14.3736 12.14C13.7613 12.2588 13.1312 12.346 12.5116 12.4523C12.0885 12.5305 11.5956 12.4697 11.2836 12.2887L6.55043 9.57709C6.23956 9.40235 6.12683 9.12701 6.25421 8.88751C6.87275 7.63599 7.49044 6.38427 8.10838 5.13269Z" fill="#8CC84B"/>
<path d="M12.6097 6.31054C13.1821 5.93804 13.8523 5.57223 14.7005 5.42789C15.3548 5.31478 16.0704 5.45419 16.5463 5.71822C16.5976 5.76123 16.5657 5.81941 16.5004 5.85183C16.3228 5.9533 16.1481 6.05643 15.9671 6.15599C15.8948 6.20073 15.7824 6.18644 15.7071 6.15413C15.432 6.05493 15.0866 5.9985 14.7654 6.05865C14.2762 6.15316 13.9051 6.37511 13.5518 6.58138C13.3051 6.73839 13.0474 6.91159 12.9784 7.12481C12.9239 7.28761 13.1042 7.44987 13.3514 7.52218C13.5424 7.56632 13.7419 7.50156 13.9097 7.45113C14.837 7.13837 15.5987 6.68029 16.5723 6.41011C16.9738 6.29735 17.4654 6.24365 17.8778 6.36263C18.4274 6.52398 18.8654 6.84221 18.9004 7.20446C18.9327 7.50052 18.7294 7.78823 18.4587 8.0363C18.0939 8.36365 17.6108 8.64345 17.0896 8.88949C16.5921 9.11666 16.0107 9.31654 15.3642 9.3415C14.8155 9.36524 14.2762 9.22141 13.9091 8.9947C13.8481 8.95584 13.868 8.89299 13.9356 8.86032C14.1128 8.75718 14.2909 8.65458 14.4716 8.5535C14.5379 8.50974 14.6518 8.5144 14.722 8.55044C14.9685 8.65388 15.2737 8.73584 15.5884 8.70061C16.1832 8.62547 16.6228 8.35545 17.0449 8.12105C17.3741 7.91512 17.7561 7.69105 17.8118 7.401C17.8315 7.24244 17.6604 7.0941 17.4354 7.0111C17.2358 6.9465 16.9981 6.99935 16.8088 7.05327C15.8538 7.33943 15.1471 7.83898 14.1694 8.10403C13.7748 8.21293 13.2986 8.26411 12.889 8.15811C12.3114 8.0068 11.8626 7.66744 11.8703 7.2937C11.8713 6.92567 12.2123 6.58885 12.6097 6.31054Z" fill="#8CC84B"/>
<path d="M0.0743075 7.99956L14.0372 16L14.0377 32L0.0748217 23.9996L0.0743075 7.99956Z" fill="#253653"/>
<path d="M14.0372 16L28 7.99956L28 23.9996L14.0377 32L14.0372 16Z" fill="#1C293E"/>
</svg>
