<svg width="29" height="32" viewBox="0 0 29 32" fill="none" xmlns="http://www.w3.org/2000/svg">
<rect width="16.0923" height="16.0923" transform="matrix(0.867691 -0.497104 0.867691 0.497104 0.146484 7.99954)" fill="#2E4468"/>
<rect width="11.801" height="12.8738" transform="matrix(0.867691 -0.497104 0.867691 0.497104 3.4043 7.73288)" fill="#2E4468"/>
<path d="M15.0947 8.56374C15.6216 8.26184 15.6079 7.7645 15.064 7.4529C14.5201 7.1413 13.652 7.13343 13.125 7.43533C12.5981 7.73723 12.6118 8.23457 13.1557 8.54617C13.6996 8.85777 14.5677 8.86564 15.0947 8.56374Z" fill="#61DAFB"/>
<path d="M16.1268 9.15547C18.9544 7.53552 20.3433 5.70477 19.229 5.06636C18.1147 4.42796 14.9191 5.22365 12.0915 6.8436C9.2639 8.46354 7.87502 10.2943 8.98936 10.9327C10.1037 11.5711 13.2993 10.7754 16.1268 9.15547Z" stroke="#61DAFB" stroke-width="0.5"/>
<path d="M13.4253 9.54741C17.3666 10.1854 20.868 10.0097 21.2458 9.15481C21.6236 8.29995 18.7348 7.08972 14.7936 6.45168C10.8523 5.81365 7.35094 5.98942 6.97312 6.84428C6.59531 7.69914 9.48406 8.90937 13.4253 9.54741Z" stroke="#61DAFB" stroke-width="0.5"/>
<path d="M11.4079 8.39145C12.5216 10.6494 14.634 12.3044 16.1262 12.088C17.6183 11.8715 17.9251 9.86558 16.8114 7.6076C15.6977 5.34962 13.5853 3.69464 12.0931 3.91109C10.601 4.12755 10.2942 6.13347 11.4079 8.39145Z" stroke="#61DAFB" stroke-width="0.5"/>
<rect width="16.0923" height="16" transform="matrix(0.867659 -0.49716 -3.21358e-05 1 14.1104 16)" fill="#1C293E"/>
<rect width="16.0923" height="16" transform="matrix(0.867659 0.49716 3.21358e-05 1 0.145508 7.99957)" fill="#253653"/>
</svg>
