<svg width="29" height="32" viewBox="0 0 29 32" fill="none" xmlns="http://www.w3.org/2000/svg">
<rect width="16.0923" height="16" transform="matrix(0.867659 0.49716 3.21357e-05 1 0.21875 7.99954)" fill="#253653"/>
<rect width="16.0923" height="16" transform="matrix(0.867659 -0.49716 -3.21357e-05 1 14.1836 15.9991)" fill="#1C293E"/>
<rect width="16.0923" height="16.0923" transform="matrix(0.867691 -0.497105 0.867691 0.497105 0.21875 7.99954)" fill="#2E4468"/>
<path d="M18.8426 6.04786C18.455 6.2723 18.2101 6.52011 18.0652 6.76207C17.7551 6.70363 17.4674 6.65804 17.3144 6.59141C17.1369 6.51309 17.0165 6.47218 16.8533 6.35061C16.6901 6.22905 16.533 6.0128 16.5105 6.00228C16.4881 5.99176 16.3697 5.94967 16.1433 6.07709C15.9168 6.2045 15.7678 6.34126 15.8046 6.38802C15.8413 6.43478 15.9331 6.53647 16.0433 6.63232C16.2085 6.77142 16.5268 7.42368 16.6737 7.7767C16.4493 7.73461 16.2534 7.69721 16.1351 7.64578C15.9576 7.56746 15.8372 7.52655 15.674 7.40498C15.5107 7.28341 15.3536 7.06716 15.3312 7.05664C15.3088 7.04612 15.1904 7.00404 14.9639 7.13145C14.7375 7.25886 14.5885 7.39563 14.6252 7.44238C14.662 7.48914 14.7762 7.58266 14.864 7.68669C14.9517 7.79072 15.623 8.7995 15.7944 9.06134C15.8821 9.19577 15.9474 9.30564 15.9902 9.38162C15.9902 9.38162 15.9943 9.3863 15.9984 9.39565C16.0351 9.46111 16.0535 9.49735 16.0535 9.49735C16.0535 9.49735 16.0535 9.49735 16.0555 9.49852C16.08 9.54761 16.0984 9.59554 16.082 9.60489C16.0698 9.6119 15.9005 9.5406 15.7393 9.40383C15.3985 9.11511 14.9354 8.62767 14.9109 8.61598C14.8986 8.60897 14.8211 8.52247 14.5987 8.58208C14.3804 8.63936 14.4212 8.7282 14.4069 8.73638C14.3926 8.74456 14.4171 8.77028 14.4171 8.77028C14.4171 8.77028 13.856 8.24543 13.3398 8.54117C13.0175 8.72586 12.9256 9.18291 13.0236 9.4915C12.9603 9.61424 12.8257 9.87608 12.6828 10.1566C12.6298 10.2642 12.5727 10.374 12.5196 10.4769C12.5033 10.4769 12.4849 10.4757 12.4686 10.4757C11.1771 10.4512 9.55093 10.8428 8.70419 10.3016C8.39609 10.104 7.65137 9.54878 8.69806 7.75682C9.56929 6.28749 11.171 5.63874 11.9279 5.80122C13.0093 6.03267 13.3174 7.43654 11.7422 8.56806C11.1403 8.99939 10.5242 9.05316 10.3365 9.04848C10.1406 9.04381 10.1202 9.04848 10.1059 9.08004C10.0794 9.13031 10.2079 9.16187 10.2814 9.18057C10.4732 9.22966 10.9363 9.24486 11.426 9.10225C11.8585 8.97601 12.7114 8.5552 13.3011 7.79189C13.9601 6.93741 13.6438 5.79304 12.4278 5.37924C11.1975 4.95726 9.24079 5.70654 8.24511 6.90585C7.65341 7.61889 7.17189 8.48389 7.12496 9.27759C7.06988 10.2209 7.62689 10.6943 7.9717 10.8287C9.19795 11.3045 11.2852 10.8755 12.3482 10.8346C12.336 10.8603 12.3237 10.8837 12.3135 10.9036C12.1707 11.1467 11.6545 12.09 11.983 12.5868C12.3543 13.1502 13.195 13.225 13.4949 13.128C14.4253 12.8264 14.8109 12.1894 14.613 11.6154C14.4151 11.0415 13.5867 10.623 13.044 10.5248C13.0379 10.5237 13.0317 10.5225 13.0236 10.5225C13.0542 10.4559 13.0848 10.3869 13.1154 10.3203C13.1746 10.1882 13.2378 10.0608 13.2949 9.95323C13.4153 10.1017 13.5908 10.2607 13.8928 10.4617C14.2457 10.699 14.9007 10.8942 15.3026 10.8884C15.4801 10.8849 15.5903 10.8241 15.6597 10.7843C15.9005 10.6464 15.8086 10.4699 15.6923 10.2653C15.5495 10.0152 15.3455 9.74633 15.3455 9.74633C15.3455 9.74633 16.0902 10.3623 16.5391 10.1052C16.7023 10.0117 16.6554 9.79542 16.6207 9.69139C16.6227 9.69256 16.6227 9.69256 16.6227 9.69256C16.6227 9.69256 16.6207 9.68671 16.6146 9.67385C16.6044 9.64931 16.5982 9.63411 16.5982 9.63411C16.5982 9.63411 16.5962 9.63294 16.5942 9.63177C16.5452 9.52891 16.433 9.29629 16.2208 8.92458C15.9474 8.44532 15.525 7.89242 15.525 7.89242C15.525 7.89242 15.7189 7.97541 16.0841 8.0888C16.2983 8.15543 16.5819 8.20101 16.839 8.25478C16.8655 8.34479 16.8757 8.39739 16.8757 8.39739C16.8757 8.39739 16.8757 8.39739 16.8798 8.39739C16.8961 8.46753 16.9145 8.54351 16.9247 8.62183C16.9675 8.9012 17.0063 9.22733 17.0573 9.29863C17.1185 9.38279 17.2042 9.4202 17.3471 9.40851C17.4511 9.40033 17.5633 9.34305 17.6653 9.27759C17.851 9.15485 17.9428 9.04614 17.9816 8.98887C18.051 8.9047 18.1183 8.79833 18.1489 8.68027C18.206 8.46285 18.1081 8.25478 17.7918 8.08763C17.6184 7.99528 17.396 7.93099 17.1716 7.87956C17.1634 7.85151 17.1532 7.82462 17.1451 7.79657C16.9859 7.3103 16.7003 6.84039 16.7003 6.84039C16.7003 6.84039 16.8941 6.92338 17.2593 7.03677C17.4429 7.09522 17.6817 7.13613 17.9061 7.18055C17.8449 7.5172 17.951 7.80709 18.0795 7.96255C18.3223 8.24894 18.5896 8.28751 18.8181 8.20101C18.9222 8.16244 19.0038 8.06893 19.0548 7.99528C19.1323 7.90878 19.2038 7.7954 19.2384 7.66799C19.2956 7.45057 19.2813 7.20159 18.965 7.03443C18.8202 6.95845 18.6467 6.90117 18.4631 6.85442C18.6243 6.63115 18.9161 6.39153 19.4221 6.16242C20.5075 5.67147 21.3053 5.90876 21.5236 6.07592C21.7419 6.24307 21.6766 6.43945 21.6522 6.50257C21.6277 6.56569 21.6195 6.58673 21.6562 6.60076C21.7093 6.6218 21.7399 6.60193 21.7889 6.56453C21.8542 6.51075 22.0929 6.15423 21.642 5.87486C21.0727 5.51367 19.8465 5.46574 18.8426 6.04786ZM13.8764 11.7873C13.905 12.173 13.5888 12.5061 13.2827 12.5529C12.9542 12.6032 12.5176 12.2595 12.5421 11.82C12.5563 11.5523 12.6563 11.2542 12.7339 11.0625C12.7522 11.0193 12.7808 10.9562 12.8134 10.879C12.8195 10.8662 12.8236 10.8591 12.8236 10.8591C12.8297 10.8439 12.8359 10.8287 12.842 10.8136C13.5173 11.0345 13.8458 11.3816 13.8764 11.7873ZM14.6273 9.52891C14.7885 9.74983 15.2537 10.2852 15.0721 10.3448C14.917 10.3962 14.311 10.1356 13.9601 9.73581C13.7846 9.53475 13.6561 9.24837 13.6418 9.11628C13.6214 8.90354 13.7499 8.75508 13.8764 8.77379C14.0397 8.7995 14.5253 9.39097 14.6273 9.52891ZM17.4899 8.95029C17.4674 8.9912 17.4389 9.02627 17.4062 9.03095C17.3838 9.03445 17.3858 8.99588 17.3858 8.99588C17.3858 8.99588 17.3675 8.70716 17.345 8.58442C17.3307 8.51312 17.3144 8.42895 17.292 8.33661C17.3001 8.34128 17.3103 8.34713 17.3185 8.35181C17.6307 8.53065 17.5388 8.82405 17.4899 8.95029ZM18.6427 7.89943C18.5835 7.90528 18.508 7.85501 18.3693 7.64227C18.3142 7.55928 18.253 7.40264 18.2734 7.20626C18.3591 7.23198 18.4366 7.26003 18.4937 7.2951C18.8855 7.52187 18.7508 7.76734 18.6427 7.89943Z" fill="#CD6799"/>
</svg>
