<svg width="24" height="24" viewBox="0 0 24 24" fill="none" xmlns="http://www.w3.org/2000/svg">
<path d="M10.1621 6.91371C9.93974 7.48863 9.45719 8.74758 9.08583 9.71068C8.71448 10.6738 7.95288 12.6524 7.3927 14.1065C6.83462 15.5606 6.37095 16.7566 6.36675 16.765C6.36045 16.7755 6.95001 16.7818 7.67384 16.7818H8.99352L9.07115 16.5657C9.11521 16.4482 9.27046 16.0327 9.41523 15.6424L9.67958 14.9353H11.6602C13.2379 14.9353 13.6407 14.929 13.6344 14.9081C13.6134 14.8514 13.2903 13.9282 13.1183 13.4351L12.9337 12.9105L11.6224 12.9L10.3132 12.8895L11.165 10.5416C11.6769 9.13156 12.0231 8.20833 12.0294 8.22932C12.0378 8.2482 12.3777 9.21549 12.7868 10.3779C13.1959 11.5404 13.8715 13.454 14.2869 14.6311L15.0401 16.7713L16.3535 16.7776C17.0752 16.7797 17.6669 16.7776 17.6669 16.7734C17.6669 16.7692 17.497 16.3223 17.2871 15.783C17.0773 15.2417 16.6284 14.0771 16.2885 13.1938C15.9486 12.3104 15.5667 11.32 15.4388 10.9906C15.3129 10.6612 15.0926 10.0905 14.9499 9.72117C14.8072 9.35188 14.4359 8.38459 14.1212 7.57046C13.8065 6.75634 13.5316 6.04084 13.5085 5.97999L13.4687 5.87088H10.5629L10.1621 6.91371Z" fill="white"/>
<path d="M11.4045 0.0105159C11.3584 0.0126142 11.1842 0.027302 11.0164 0.0398916C8.91833 0.195163 6.7909 0.971522 5.04742 2.21789C4.47045 2.62915 4.01518 3.01523 3.50745 3.52301C0.589053 6.4438 -0.613131 10.6235 0.299522 14.6837C0.672976 16.3497 1.47024 18.0262 2.52766 19.3733C4.18722 21.4905 6.46151 22.9823 9.01274 23.6286C10.0513 23.893 10.9136 24 12.0025 24C13.0767 24 13.8676 23.9035 14.8915 23.6538C16.3622 23.2929 17.6546 22.6991 18.947 21.7947C20.1849 20.926 21.3367 19.709 22.1633 18.3976C23.2292 16.7022 23.8355 14.8306 23.9845 12.7764C24.0159 12.3441 23.997 11.274 23.9509 10.8334C23.8586 9.9584 23.6236 8.80435 23.4872 8.56305C23.4327 8.46863 23.2795 8.34693 23.1662 8.30706C23.1263 8.29447 23.0382 8.28398 22.9669 8.28398C22.6522 8.28398 22.3878 8.54627 22.3878 8.85471C22.3878 8.92815 22.4214 9.1044 22.4697 9.29535C22.8851 10.911 22.9186 12.6861 22.5641 14.306C22.1109 16.3812 21.0996 18.2109 19.5743 19.7111C18.8631 20.4099 18.177 20.926 17.2896 21.4338C15.2188 22.6193 12.6445 23.0684 10.2296 22.6655C8.39591 22.3613 6.80349 21.6562 5.29079 20.4791C4.57955 19.9252 3.71306 19.0124 3.17595 18.2487C2.24861 16.9309 1.66536 15.5419 1.36324 13.9283C1.21008 13.1058 1.15763 12.0147 1.22896 11.1271C1.33806 9.78005 1.67585 8.52948 2.24861 7.34396C2.51297 6.79211 2.67662 6.50465 2.99342 6.02835C3.63962 5.05055 4.49563 4.13571 5.44185 3.40971C6.55172 2.55571 7.8693 1.90735 9.20157 1.55904C9.9212 1.37019 10.4961 1.27577 11.2262 1.22331C13.8676 1.03447 16.4357 1.79404 18.5274 3.38663C18.6827 3.50413 18.8463 3.63212 18.8904 3.67199L18.9701 3.74123L18.9386 3.82936C18.7771 4.28259 18.8967 4.84702 19.2366 5.24149C19.4107 5.44293 19.7254 5.63177 19.9919 5.69472C20.1744 5.73878 20.4912 5.73878 20.6758 5.69472C21.1437 5.58351 21.5801 5.18274 21.7186 4.73791C21.8738 4.24062 21.7836 3.74963 21.4647 3.35096C21.1122 2.91032 20.5059 2.71308 19.9457 2.85996L19.824 2.89144L19.652 2.74875C18.9533 2.16334 18.1078 1.62198 17.2182 1.19184C15.7748 0.493117 14.325 0.117527 12.6738 0.0168107C12.357 -0.00207373 11.608 -0.00627025 11.4045 0.0105159V0.0105159Z" fill="white"/>
</svg>
