
<svg width="33" height="22" viewBox="0 0 33 22" fill="none" xmlns="http://www.w3.org/2000/svg">
<path d="M1.27663 16.8732V9.0349H11.0928V8.57641H1.27663V1.42563H11.7134V0.967285H0.816895V17.3315H11.8053V16.8732H1.27677H1.27663ZM20.656 5.55106L16.5871 10.8913L12.6099 5.55119H12.0122L16.3111 11.2352L11.5983 17.3314H12.1501L16.5868 11.5787L21.0466 17.3314H21.6213L16.8857 11.2349L21.2075 5.55092H20.6559L20.656 5.55106ZM23.0008 21.3654V14.0314H23.0467C23.3227 15.1009 23.8667 15.9604 24.679 16.6098C25.4912 17.2591 26.5256 17.5838 27.7823 17.5838C28.5946 17.5838 29.3149 17.4196 29.9433 17.0911C30.5716 16.7626 31.0965 16.3157 31.518 15.7503C31.9394 15.1849 32.2613 14.5279 32.4835 13.7792C32.7057 13.0306 32.8169 12.2436 32.8169 11.4187C32.8169 10.5324 32.7018 9.71486 32.472 8.96626C32.2421 8.21752 31.9087 7.5681 31.472 7.01813C31.0352 6.46803 30.5065 6.04008 29.8857 5.7347C29.2651 5.42904 28.5639 5.27621 27.7823 5.27621C27.1846 5.27621 26.6291 5.36411 26.1157 5.53978C25.6023 5.71558 25.1464 5.96374 24.7479 6.28466C24.3471 6.60806 23.9983 6.99063 23.7134 7.41912C23.4223 7.85464 23.2 8.33211 23.0467 8.85167H23.0008V5.55106H22.541V21.3654H23.0008ZM27.7823 17.1482C26.3418 17.1482 25.1846 16.6554 24.3111 15.67C23.4376 14.6845 23.0008 13.2672 23.0008 11.4184C23.0008 10.6544 23.1081 9.92863 23.3227 9.2411C23.5372 8.55358 23.8475 7.94996 24.2536 7.43054C24.6598 6.91097 25.1617 6.49843 25.7593 6.19291C26.357 5.88725 27.0314 5.73442 27.7823 5.73442C28.5486 5.73442 29.2192 5.88725 29.7938 6.19291C30.3685 6.49843 30.8437 6.91483 31.2191 7.44196C31.5946 7.96908 31.8781 8.5727 32.0698 9.25252C32.2613 9.93248 32.357 10.6544 32.357 11.4184C32.357 12.1061 32.269 12.7899 32.0927 13.4697C31.9165 14.1497 31.6444 14.7608 31.2765 15.3034C30.9088 15.8456 30.4376 16.2887 29.8628 16.6326C29.288 16.9764 28.5946 17.1482 27.7823 17.1482Z" fill="#FAFCFE"/>
</svg>

