<svg width="32" height="32" viewBox="0 0 32 32" fill="none" xmlns="http://www.w3.org/2000/svg">
<path d="M16.0001 0C7.16461 0 0 7.34466 0 16.405C0 23.6533 4.5845 29.8026 10.9419 31.9718C11.7415 32.1236 12.0351 31.6159 12.0351 31.1826C12.0351 30.7915 12.0202 29.4991 12.0134 28.1283C7.56203 29.1207 6.62276 26.1927 6.62276 26.1927C5.89495 24.2965 4.84626 23.7924 4.84626 23.7924C3.39464 22.7742 4.95568 22.795 4.95568 22.795C6.5624 22.9108 7.40843 24.4856 7.40843 24.4856C8.83545 26.9936 11.1514 26.2685 12.0645 25.8495C12.208 24.789 12.6227 24.0654 13.0803 23.6558C9.5265 23.2408 5.79054 21.8342 5.79054 15.5483C5.79054 13.7573 6.41559 12.2938 7.43917 11.1449C7.27303 10.7317 6.72541 9.0632 7.59415 6.80351C7.59415 6.80351 8.93773 6.36259 11.9953 8.48512C13.2715 8.12152 14.6403 7.93934 16.0001 7.93316C17.3598 7.93934 18.7296 8.12152 20.0083 8.48512C23.0623 6.36259 24.404 6.80351 24.404 6.80351C25.2748 9.0632 24.727 10.7317 24.5608 11.1449C25.5867 12.2938 26.2075 13.7572 26.2075 15.5483C26.2075 21.8491 22.4645 23.2366 18.9017 23.6426C19.4755 24.1518 19.9869 25.1502 19.9869 26.6806C19.9869 28.8756 19.9683 30.6422 19.9683 31.1826C19.9683 31.6192 20.2563 32.1307 21.0674 31.9696C27.4213 29.798 32 23.6509 32 16.405C32 7.34466 24.8364 0 16.0001 0Z" fill="#FAFCFE"/>
</svg>
