<svg width="32" height="33" viewBox="0 0 32 33" fill="none" xmlns="http://www.w3.org/2000/svg">
<path d="M31.2584 7.40629C31.2699 7.44895 31.2758 7.49294 31.2759 7.53713V14.4058C31.2759 14.494 31.2526 14.5806 31.2085 14.6569C31.1643 14.7332 31.1007 14.7964 31.0242 14.8403L25.2592 18.1595V24.7383C25.2592 24.9174 25.1641 25.0826 25.0088 25.1728L12.9748 32.1004C12.9472 32.116 12.9172 32.126 12.8871 32.1367C12.8759 32.1404 12.8652 32.1473 12.8533 32.1504C12.7692 32.1726 12.6808 32.1726 12.5967 32.1504C12.5829 32.1467 12.5704 32.1392 12.5572 32.1342C12.5297 32.1241 12.5009 32.1154 12.4746 32.1004L0.443067 25.1728C0.366634 25.1289 0.303127 25.0656 0.258944 24.9893C0.214762 24.9131 0.191467 24.8265 0.191406 24.7383V4.1322C0.191406 4.08712 0.197666 4.0433 0.208935 4.00073C0.212691 3.98633 0.221455 3.97319 0.226463 3.95879C0.235854 3.9325 0.244618 3.90558 0.258391 3.88116C0.267781 3.86488 0.281553 3.85174 0.292822 3.83671C0.30722 3.81668 0.320367 3.79602 0.337269 3.77849C0.351668 3.7641 0.370449 3.75345 0.386725 3.74093C0.40488 3.72591 0.421156 3.70963 0.441815 3.69774L6.45851 0.233957C6.53469 0.190123 6.62104 0.167053 6.70892 0.167053C6.79681 0.167053 6.88316 0.190123 6.95933 0.233957L12.9754 3.69774H12.9767C12.9967 3.71026 13.0136 3.72591 13.0317 3.74031C13.048 3.75283 13.0662 3.7641 13.0806 3.77787C13.0981 3.79602 13.1106 3.81668 13.1256 3.83671C13.1363 3.85174 13.1507 3.86488 13.1595 3.88116C13.1739 3.9062 13.182 3.9325 13.192 3.95879C13.197 3.97319 13.2058 3.98633 13.2095 4.00136C13.2211 4.04402 13.227 4.08801 13.2271 4.1322V17.0026L18.2402 14.116V7.5365C18.2402 7.49268 18.2465 7.44824 18.2578 7.40629C18.2622 7.39127 18.2703 7.37812 18.2753 7.36372C18.2853 7.33743 18.2941 7.31051 18.3079 7.2861C18.3172 7.26982 18.331 7.25667 18.3417 7.24165C18.3567 7.22162 18.3692 7.20096 18.3867 7.18343C18.4011 7.16903 18.4193 7.15839 18.4356 7.14587C18.4543 7.13084 18.4706 7.11457 18.4907 7.10267L24.508 3.63889C24.5841 3.595 24.6705 3.57189 24.7584 3.57189C24.8463 3.57189 24.9326 3.595 25.0088 3.63889L31.0249 7.10267C31.0462 7.11519 31.0624 7.13084 31.0812 7.14524C31.0969 7.15776 31.115 7.16903 31.1294 7.1828C31.1469 7.20096 31.1595 7.22162 31.1745 7.24165C31.1858 7.25667 31.1995 7.26982 31.2083 7.2861C31.2227 7.31051 31.2308 7.33743 31.2408 7.36372C31.2465 7.37812 31.2546 7.39127 31.2584 7.40629ZM30.273 14.116V8.40417L28.1677 9.61615L25.2592 11.2908V17.0026L30.273 14.116ZM24.2569 24.4485V18.7329L21.396 20.3668L13.2264 25.0294V30.7989L24.2569 24.4485ZM1.19429 4.99924V24.4485L12.2235 30.7982V25.0301L6.46164 21.7691L6.45977 21.7679L6.45726 21.7666C6.43785 21.7553 6.42158 21.7391 6.40342 21.7253C6.38777 21.7128 6.36962 21.7028 6.35585 21.689L6.35459 21.6871C6.33832 21.6715 6.32705 21.6521 6.31328 21.6345C6.30076 21.6176 6.28573 21.6032 6.27571 21.5857L6.27509 21.5838C6.26382 21.565 6.25693 21.5425 6.2488 21.5212C6.24066 21.5024 6.23001 21.4849 6.22501 21.4649C6.21875 21.4411 6.21749 21.4154 6.21499 21.391C6.21249 21.3722 6.20748 21.3534 6.20748 21.3347V7.88582L3.29961 6.21059L1.19429 4.99924ZM6.70955 1.24686L1.69699 4.1322L6.7083 7.01753L11.7202 4.13157L6.7083 1.24686H6.70955ZM9.3163 19.2538L12.2242 17.5798V4.99924L10.1189 6.21122L7.21037 7.88582V20.4664L9.3163 19.2538ZM24.7584 4.65179L19.7465 7.53713L24.7584 10.4225L29.7697 7.5365L24.7584 4.65179ZM24.2569 11.2908L21.3484 9.61615L19.2431 8.40417V14.116L22.151 15.79L24.2569 17.0026V11.2908ZM12.7244 24.1624L20.0757 19.9655L23.7505 17.8684L18.7423 14.9849L12.976 18.3047L7.72057 21.3303L12.7244 24.1624Z" fill="#FF2D20"/>
</svg>
