<svg width="22" height="23" viewBox="0 0 22 23" fill="none" xmlns="http://www.w3.org/2000/svg">
<mask id="mask0_1548_6909" style="mask-type:alpha" maskUnits="userSpaceOnUse" x="0" y="0" width="22" height="23">
<path d="M11 22.4876C17.0751 22.4876 22 17.5628 22 11.4876C22 5.41251 17.0751 0.48764 11 0.48764C4.92487 0.48764 0 5.41251 0 11.4876C0 17.5628 4.92487 22.4876 11 22.4876Z" fill="black"/>
</mask>
<g mask="url(#mask0_1548_6909)">
<path d="M11 22.4876C17.0751 22.4876 22 17.5628 22 11.4876C22 5.41251 17.0751 0.48764 11 0.48764C4.92487 0.48764 0 5.41251 0 11.4876C0 17.5628 4.92487 22.4876 11 22.4876Z" fill="white"/>
<path d="M18.2733 19.7401L8.45079 7.08765H6.6001V15.884H8.08065V8.96786L17.1111 20.6354C17.5186 20.3627 17.9068 20.0634 18.2733 19.7401Z" fill="url(#paint0_linear_1548_6909)"/>
<path d="M15.5223 7.08765H14.0557V15.8876H15.5223V7.08765Z" fill="url(#paint1_linear_1548_6909)"/>
</g>
<defs>
<linearGradient id="paint0_linear_1548_6909" x1="13.3223" y1="14.7265" x2="17.6612" y2="20.1043" gradientUnits="userSpaceOnUse">
<stop/>
<stop offset="1" stop-color="white" stop-opacity="0"/>
</linearGradient>
<linearGradient id="paint1_linear_1548_6909" x1="14.789" y1="7.08765" x2="14.7644" y2="13.5501" gradientUnits="userSpaceOnUse">
<stop/>
<stop offset="1" stop-color="white" stop-opacity="0"/>
</linearGradient>
</defs>
</svg>
