<svg width="32" height="9" viewBox="0 0 32 9" fill="none" xmlns="http://www.w3.org/2000/svg">
<path d="M25.3562 0.834503H32V2.06078H29.3645V8.51205H28.0466V2.06078H25.3562V0.834503Z" fill="#FAFCFE"/>
<path d="M14.4297 0.834503V2.06078H9.10422V4.03348H13.387V5.25975H9.10422V7.28578H14.4297V8.51205H7.78644V2.06078H7.78589V0.834503H14.4297Z" fill="#FAFCFE"/>
<path d="M17.747 0.837708H16.0225L22.1995 8.51526H23.9291L20.8402 4.67912L23.9241 0.843565L22.1995 0.84623L19.9767 3.6068L17.747 0.837708Z" fill="#FAFCFE"/>
<path d="M19.5167 6.32182L18.6531 5.24802L16.0176 8.52111H17.7471L19.5167 6.32182Z" fill="#FAFCFE"/>
<path fill-rule="evenodd" clip-rule="evenodd" d="M7.83255 8.51205L1.64722 0.831299H0V8.50884H1.31778V2.47237L6.17708 8.51205H7.83255Z" fill="#FAFCFE"/>
</svg>

