<svg width="32" height="18" viewBox="0 0 32 18" fill="none" xmlns="http://www.w3.org/2000/svg">
<path d="M16 17.0772C24.8366 17.0772 32 13.3483 32 8.74843C32 4.14859 24.8366 0.419678 16 0.419678C7.16344 0.419678 0 4.14859 0 8.74843C0 13.3483 7.16344 17.0772 16 17.0772Z" fill="#8993BE"/>
<path fill-rule="evenodd" clip-rule="evenodd" d="M4.49316 13.6799L6.24666 4.80318H10.3013C12.0547 4.9128 12.9314 5.78943 12.9314 7.3238C12.9314 9.95393 10.8493 11.4882 8.98616 11.3786H7.01379L6.57541 13.6799H4.49316ZM7.45204 9.7348L8.00004 6.44705H9.42466C10.1918 6.44705 10.7397 6.7758 10.7397 7.4333C10.6302 9.29643 9.75341 9.62518 8.76716 9.7348H7.45216H7.45204ZM12.524 11.3786L14.2774 2.50193H16.3597L15.9213 4.80318H17.8938C19.6473 4.9128 20.3048 5.78943 20.0857 6.88543L19.3185 11.3786H17.1268L17.8939 7.3238C18.0034 6.7758 18.0034 6.44705 17.2364 6.44705H15.5925L14.6063 11.3786H12.524V11.3786ZM19.1782 13.6799L20.9315 4.80318H24.9863C26.7398 4.9128 27.6165 5.78943 27.6165 7.3238C27.6165 9.95393 25.5343 11.4882 23.6713 11.3786H21.6987L21.2603 13.6799H19.1782V13.6799ZM22.1369 9.7348L22.6849 6.44705H24.1097C24.8768 6.44705 25.4247 6.7758 25.4247 7.4333C25.3152 9.29643 24.4384 9.62518 23.4522 9.7348H22.137H22.1369Z" fill="#232531"/>
</svg>
