<svg width="32" height="32" viewBox="0 0 32 32" fill="none" xmlns="http://www.w3.org/2000/svg">
<path d="M15.9999 18.8212C17.5095 18.8212 18.7333 17.5581 18.7333 16C18.7333 14.4419 17.5095 13.1788 15.9999 13.1788C14.4904 13.1788 13.2666 14.4419 13.2666 16C13.2666 17.5581 14.4904 18.8212 15.9999 18.8212Z" fill="#61DAFB"/>
<path d="M15.9999 21.78C24.1001 21.78 30.6666 19.1922 30.6666 16C30.6666 12.8078 24.1001 10.22 15.9999 10.22C7.89974 10.22 1.33325 12.8078 1.33325 16C1.33325 19.1922 7.89974 21.78 15.9999 21.78Z" stroke="#61DAFB"/>
<path d="M11.15 18.89C15.2001 26.1305 20.6546 30.7061 23.333 29.11C26.0115 27.5139 24.8995 20.3504 20.8494 13.11C16.7994 5.86954 11.3448 1.2939 8.66637 2.89C5.98793 4.48611 7.09987 11.6496 11.15 18.89Z" stroke="#61DAFB"/>
<path d="M11.1503 13.11C7.1002 20.3504 5.98826 27.5139 8.6667 29.11C11.3451 30.7061 16.7997 26.1304 20.8498 18.89C24.8999 11.6495 26.0118 4.4861 23.3334 2.89C20.6549 1.29389 15.2004 5.86953 11.1503 13.11Z" stroke="#61DAFB"/>
</svg>

