
<svg width="25" height="19" viewBox="0 0 25 19" fill="none" xmlns="http://www.w3.org/2000/svg">
<path d="M21.4505 10.6323C20.6133 10.6367 19.8856 10.8384 19.2762 11.1364C19.0527 10.6937 18.8291 10.2992 18.7896 10.0098C18.7458 9.67229 18.6932 9.46625 18.7458 9.06295C18.7984 8.65965 19.0351 8.08539 19.0307 8.04155C19.0264 7.99772 18.9781 7.79168 18.4959 7.7873C18.0137 7.78292 17.5973 7.87936 17.5491 8.00648C17.5008 8.13361 17.4088 8.42293 17.3474 8.72103C17.2641 9.15939 16.383 10.7244 15.8789 11.5441C15.7167 11.2241 15.5764 10.9436 15.5457 10.72C15.5019 10.3824 15.4493 10.1764 15.5019 9.77311C15.5545 9.36981 15.7912 8.79555 15.7868 8.75171C15.7824 8.70788 15.7342 8.50184 15.252 8.49746C14.7698 8.49307 14.3533 8.58952 14.3051 8.71664C14.2569 8.84377 14.2043 9.14186 14.1035 9.43118C14.0027 9.72051 12.8322 12.3332 12.5253 13.0083C12.3675 13.3546 12.2316 13.6308 12.1352 13.8193C12.1352 13.8193 12.1308 13.8324 12.1177 13.8543C12.0344 14.0165 11.9862 14.1042 11.9862 14.1042C11.9862 14.1042 11.9862 14.1042 11.9862 14.1086C11.9204 14.2269 11.8503 14.3365 11.8152 14.3365C11.7889 14.3365 11.7407 14.0209 11.824 13.5913C11.9993 12.6839 12.4158 11.2723 12.4114 11.2241C12.4114 11.1978 12.4903 10.9523 12.1396 10.8252C11.7977 10.6981 11.6749 10.9085 11.6442 10.9085C11.6135 10.9085 11.5916 10.983 11.5916 10.983C11.5916 10.983 11.973 9.39611 10.8639 9.39611C10.1713 9.39611 9.21566 10.1545 8.74222 10.8383C8.44413 11.0005 7.80849 11.3469 7.12902 11.7195C6.87038 11.8641 6.60298 12.0088 6.35311 12.1447C6.33557 12.1272 6.31804 12.1052 6.3005 12.0877C4.95909 10.6542 2.47792 9.6416 2.58313 7.71716C2.62258 7.01577 2.86369 5.17462 7.34821 2.93894C11.0393 1.1197 13.9763 1.62383 14.4849 2.74167C15.2126 4.33733 12.9111 7.30071 9.0973 7.73031C7.64191 7.89251 6.87915 7.3314 6.68627 7.12098C6.48462 6.90179 6.45393 6.88864 6.37941 6.93248C6.25667 6.99823 6.33557 7.1955 6.37941 7.30948C6.49339 7.60757 6.96244 8.13361 7.75589 8.39225C8.45728 8.6202 10.1625 8.74733 12.2273 7.9495C14.5375 7.05522 16.3435 4.56967 15.8131 2.48741C15.2827 0.374475 11.7757 -0.322533 8.45728 0.856681C6.48462 1.55807 4.34538 2.66276 2.8067 4.10061C0.9787 5.81025 0.689376 7.29633 0.807736 7.91881C1.23295 10.1282 4.27962 11.566 5.49829 12.6313C5.43692 12.6663 5.37993 12.697 5.33171 12.7233C4.72237 13.0258 2.39902 14.2401 1.82037 15.5245C1.16281 16.9799 1.92558 18.0232 2.4297 18.1635C3.99468 18.5975 5.6035 17.8172 6.46708 16.5284C7.33067 15.2396 7.22546 13.565 6.82655 12.7979C6.82216 12.7891 6.81778 12.7803 6.80901 12.7716C6.96682 12.6795 7.12902 12.5831 7.28683 12.491C7.59808 12.3069 7.90493 12.1359 8.16796 11.9956C8.01891 12.4033 7.90932 12.8899 7.85671 13.5913C7.79096 14.4154 8.1285 15.4851 8.57126 15.9059C8.76852 16.09 9.00086 16.0944 9.1499 16.0944C9.66718 16.0944 9.89951 15.6648 10.1582 15.1563C10.4738 14.5338 10.7587 13.8105 10.7587 13.8105C10.7587 13.8105 10.4036 15.7656 11.3681 15.7656C11.7187 15.7656 12.0738 15.3097 12.2316 15.0774C12.2316 15.0818 12.2316 15.0818 12.2316 15.0818C12.2316 15.0818 12.2404 15.0686 12.2579 15.0379C12.293 14.9809 12.3149 14.9459 12.3149 14.9459C12.3149 14.9459 12.3149 14.9415 12.3149 14.9371C12.4552 14.6916 12.7708 14.1349 13.2399 13.2099C13.8448 12.0176 14.4279 10.5271 14.4279 10.5271C14.4279 10.5271 14.4805 10.891 14.6602 11.4959C14.7654 11.851 14.9846 12.2411 15.1599 12.6181C15.0197 12.8154 14.932 12.925 14.932 12.925C14.932 12.925 14.932 12.925 14.9364 12.9294C14.8224 13.0784 14.6997 13.2406 14.5638 13.3984C14.0859 13.9683 13.5161 14.6215 13.4372 14.81C13.3451 15.0335 13.367 15.1957 13.5424 15.3273C13.6695 15.4237 13.8974 15.4368 14.1298 15.4237C14.5594 15.393 14.8619 15.2878 15.0109 15.222C15.2432 15.1388 15.515 15.0116 15.7693 14.8231C16.2383 14.4768 16.5233 13.9815 16.497 13.3283C16.4838 12.9688 16.3655 12.6094 16.2208 12.2718C16.2646 12.2104 16.3041 12.1491 16.3479 12.0877C17.0888 11.0049 17.663 9.81695 17.663 9.81695C17.663 9.81695 17.7156 10.1808 17.8954 10.7857C17.983 11.0926 18.1628 11.4258 18.3206 11.7502C17.6236 12.3157 17.194 12.9732 17.0406 13.4028C16.7644 14.2006 16.9792 14.5601 17.3869 14.6434C17.571 14.6828 17.834 14.5952 18.0269 14.5119C18.2724 14.433 18.5617 14.2971 18.8379 14.0954C19.3069 13.7491 19.7584 13.2669 19.7321 12.6137C19.719 12.3157 19.6401 12.0219 19.5305 11.737C20.1223 11.4915 20.8851 11.3556 21.8582 11.4696C23.9449 11.7151 24.3569 13.017 24.278 13.565C24.1991 14.113 23.7608 14.4111 23.6161 14.5031C23.4714 14.5952 23.4232 14.6259 23.4364 14.6916C23.4539 14.7881 23.524 14.7837 23.6468 14.7661C23.8177 14.7355 24.7427 14.3234 24.7822 13.3151C24.8479 12.0263 23.6205 10.6192 21.4505 10.6323ZM5.35363 16.0593C4.661 16.8133 3.69659 17.0983 3.28014 16.8572C2.833 16.5985 3.00835 15.4851 3.85879 14.6872C4.37606 14.2006 5.04238 13.7491 5.48514 13.4729C5.58596 13.4116 5.73501 13.3239 5.91474 13.2143C5.94542 13.1968 5.96296 13.188 5.96296 13.188C5.99803 13.1661 6.0331 13.1442 6.06817 13.1223C6.37941 14.262 6.08132 15.2659 5.35363 16.0593ZM10.3949 12.6313C10.1538 13.2187 9.64964 14.7223 9.34279 14.639C9.07976 14.5689 8.91757 13.4291 9.29018 12.3025C9.47868 11.737 9.8776 11.0619 10.1099 10.7989C10.4869 10.3781 10.9034 10.2378 11.0042 10.4087C11.1313 10.6323 10.5439 12.263 10.3949 12.6313ZM14.555 14.6215C14.4542 14.6741 14.3577 14.7091 14.3139 14.6828C14.2832 14.6653 14.3577 14.5952 14.3577 14.5952C14.3577 14.5952 14.8794 14.0341 15.0854 13.7798C15.2038 13.6308 15.3441 13.4554 15.4931 13.2581C15.4931 13.2757 15.4931 13.2976 15.4931 13.3151C15.4931 13.9858 14.8443 14.4374 14.555 14.6215ZM17.7639 13.8894C17.6893 13.8368 17.7025 13.6614 17.9524 13.1135C18.0488 12.8987 18.2768 12.5392 18.6669 12.1929C18.7107 12.3332 18.7414 12.4691 18.737 12.5962C18.7327 13.4423 18.1277 13.7579 17.7639 13.8894Z" fill="#CD6799"/>
</svg>

