<svg width="29" height="29" viewBox="0 0 29 29" fill="none" xmlns="http://www.w3.org/2000/svg">
<g clip-path="url(#clip0_1072_6432)">
<path d="M28.2495 4.66516L15.3368 27.7552C15.0702 28.232 14.3852 28.2348 14.1147 27.7604L0.945971 4.66731C0.651114 4.1504 1.09318 3.52418 1.67903 3.62898L14.6056 5.9394C14.6881 5.95414 14.7725 5.95399 14.8549 5.93897L27.5111 3.6322C28.095 3.52579 28.5391 4.14718 28.2495 4.66516V4.66516Z" fill="url(#paint0_linear_1072_6432)"/>
<path d="M20.7631 0.598268L11.2074 2.4707C11.1311 2.48566 11.0618 2.52557 11.0106 2.58415C10.9595 2.64274 10.9292 2.71667 10.9246 2.79434L10.3368 12.722C10.3336 12.7764 10.3431 12.8309 10.3646 12.881C10.386 12.9311 10.4189 12.9756 10.4606 13.0108C10.5022 13.046 10.5515 13.071 10.6045 13.0838C10.6576 13.0966 10.7128 13.0969 10.766 13.0847L13.4265 12.4707C13.6754 12.4133 13.9003 12.6325 13.8491 12.8828L13.0587 16.7534C13.0055 17.0139 13.25 17.2366 13.5044 17.1593L15.1477 16.6601C15.4024 16.5828 15.6472 16.8061 15.5933 17.0669L14.3372 23.1466C14.2586 23.527 14.7645 23.7343 14.9754 23.4083L15.1164 23.1906L22.9029 7.65099C23.0333 7.39081 22.8084 7.09413 22.5228 7.14932L19.7841 7.67783C19.5269 7.72744 19.3079 7.48778 19.3805 7.23608L21.1679 1.03991C21.2406 0.787574 21.0208 0.547801 20.7632 0.598268H20.7631Z" fill="url(#paint1_linear_1072_6432)"/>
</g>
<defs>
<linearGradient id="paint0_linear_1072_6432" x1="0.624447" y1="5.4919" x2="14.5507" y2="24.4049" gradientUnits="userSpaceOnUse">
<stop stop-color="#41D1FF"/>
<stop offset="1" stop-color="#BD34FE"/>
</linearGradient>
<linearGradient id="paint1_linear_1072_6432" x1="15.8036" y1="1.10667" x2="18.6685" y2="20.7592" gradientUnits="userSpaceOnUse">
<stop stop-color="#FFEA83"/>
<stop offset="0.083" stop-color="#FFDD35"/>
<stop offset="1" stop-color="#FFA800"/>
</linearGradient>
<clipPath id="clip0_1072_6432">
<rect width="27.888" height="28" fill="white" transform="translate(0.651123 0.391296)"/>
</clipPath>
</defs>
</svg>
