<svg width="29" height="29" viewBox="0 0 29 29" fill="none" xmlns="http://www.w3.org/2000/svg">
<path d="M14.2561 3.78098e-06C21.9071 0.0150284 28.0487 6.10231 28.2452 13.6216C28.4532 21.6979 21.8736 28.1827 13.929 27.999C6.50111 27.8302 0.59181 21.9024 0.264736 14.6502C-0.0993222 6.61315 6.33006 -0.00577492 14.2561 3.78098e-06Z" fill="#3398C2"/>
<path d="M9.09935 9.80531C9.19066 9.45049 9.32241 9.10724 9.49115 8.78016C9.65642 8.46465 9.89219 8.22888 10.2343 8.11561C10.4793 8.03587 10.6839 7.89487 10.8676 7.70879C11.516 7.05696 12.3031 6.67787 13.2184 6.57617C13.3687 6.56114 13.4449 6.50567 13.5027 6.36467C13.6403 6.03066 13.8113 5.70936 14.0378 5.42505C14.3372 5.04828 14.6954 4.76743 15.2132 4.79748C15.5403 4.81598 15.813 4.95351 16.0118 5.21702C16.2349 5.51058 16.4002 5.83881 16.5597 6.16935C16.6117 6.27683 16.6544 6.31613 16.7862 6.28839C17.2693 6.1809 17.6611 6.3924 17.8691 6.84199C18.1107 7.36785 18.2274 7.92492 18.2852 8.4947C18.4077 9.67933 18.3279 10.8455 17.9269 11.9804C17.6911 12.6473 17.3606 13.2656 16.9572 13.8469C16.9087 13.9174 16.896 13.9637 16.963 14.0365C18.0436 15.2488 18.573 16.6623 18.5117 18.2907V18.4075C18.588 18.4109 18.6469 18.3647 18.7047 18.3335C19.182 18.0885 19.6166 17.7764 20.0974 17.5349C20.7735 17.1951 21.4808 16.957 22.2482 16.9628C23.3831 16.972 24.1124 18.0769 23.6374 19.0616C23.4502 19.45 23.1451 19.7262 22.7255 19.8175C21.9604 19.9885 21.2809 20.3353 20.6325 20.7606C19.5646 21.4702 18.395 21.9972 17.171 22.4006C17.089 22.4283 17.0115 22.4618 16.941 22.5173C16.614 22.7623 16.2314 22.8629 15.8327 22.9183C14.6238 23.0871 13.4091 23.1599 12.191 23.2119C11.6894 23.2338 11.1901 23.1657 10.7463 22.8998C10.6272 22.8259 10.5232 22.6883 10.4007 22.6675C10.2817 22.649 10.1465 22.7588 10.0147 22.79C9.23458 22.9646 8.50299 22.8178 7.82688 22.4075C7.42584 22.1659 7.2363 21.7834 7.2571 21.3119C7.26288 21.1859 7.22706 21.0946 7.15309 20.994C6.82832 20.541 6.66999 20.0244 6.581 19.4788C6.40648 18.4052 6.78903 17.5176 7.49865 16.7397C7.56569 16.6658 7.58996 16.593 7.58996 16.4947C7.58996 15.421 7.79452 14.3982 8.34581 13.4621C8.65439 12.9385 9.05312 12.4889 9.49693 12.0821C9.58245 12.0058 9.5917 11.9538 9.53391 11.8556C9.34668 11.5435 9.23111 11.2003 9.1294 10.8513C9.04388 10.79 9.09935 10.6952 9.06468 10.6189C9.0589 10.5612 9.06468 10.5022 9.04619 10.4444V10.0619C9.06121 10.0064 9.06121 9.94862 9.06121 9.89083C9.07508 9.86309 9.0693 9.82611 9.09935 9.80531Z" fill="#FEFEFE"/>
<path d="M9.08993 10.6166C9.1142 10.6929 9.08415 10.7784 9.12922 10.8524C9.11651 10.8616 9.11651 10.9229 9.09918 10.8801C9.06566 10.7981 9.04139 10.7056 9.04139 10.6166C9.03561 10.3231 9.00787 10.026 9.08993 9.7348C9.0934 9.75907 9.09571 9.78334 9.10264 9.8053C9.09918 9.83304 9.09686 9.86078 9.0934 9.88505C9.06566 9.93706 9.09686 9.99831 9.06913 10.0503V10.4514C9.08993 10.5034 9.06335 10.5646 9.08993 10.6166Z" fill="#3298C3"/>
<path d="M17.6898 18.4502C17.6898 18.7322 17.6251 19.0073 17.5893 19.2824C17.5592 19.5239 17.5835 19.5517 17.8285 19.5089C18.3798 19.4141 18.8779 19.1818 19.3587 18.9091C19.873 18.6155 20.3631 18.2815 20.9132 18.0619C21.3385 17.8909 21.7731 17.7776 22.2353 17.7776C22.6364 17.7776 22.9149 17.9949 22.9635 18.3381C23.0097 18.656 22.8352 18.9599 22.5162 19.0269C21.6043 19.22 20.8173 19.6695 20.0498 20.1688C19.0212 20.8334 17.9013 21.313 16.7352 21.6805C16.6924 21.6932 16.6369 21.7025 16.6092 21.7291C16.3341 22.0203 15.9701 22.0689 15.6026 22.1174C14.5716 22.2526 13.5338 22.3127 12.4936 22.374C12.1943 22.3925 11.8938 22.4017 11.5945 22.3439C11.1171 22.2491 10.9149 22.0712 10.8421 21.6794C10.7773 21.3269 10.9426 20.994 11.2951 20.764C11.3321 20.7398 11.3714 20.7155 11.4303 20.6785C11.2408 20.5618 11.0848 20.4242 10.9657 20.2532C10.9079 20.1734 10.8767 20.2231 10.8582 20.2902C10.8005 20.5109 10.7415 20.734 10.6837 20.9547C10.6444 21.1015 10.5947 21.246 10.5335 21.3858C10.3555 21.7926 10.0319 21.9891 9.60311 22.0284C9.16509 22.0677 8.75249 21.9706 8.36069 21.7776C8.0914 21.6459 8.01166 21.4471 8.10065 21.1558C8.14688 20.9998 8.23587 20.8646 8.3422 20.6993C7.97236 20.7733 7.8094 20.5583 7.68112 20.2983C7.39334 19.7285 7.2951 19.1263 7.41183 18.5022C7.5066 18.0064 7.79785 17.6031 8.14688 17.254C8.35145 17.0495 8.4127 16.853 8.40692 16.5652C8.36069 14.9033 8.98826 13.5383 10.2804 12.4831C10.3936 12.3884 10.5069 12.2901 10.6259 12.2046C10.6999 12.1526 10.708 12.1191 10.6479 12.0428C10.3139 11.6233 10.0539 11.1679 9.93481 10.6386C9.79959 10.0422 10.0018 9.52445 10.3023 9.02864C10.3451 8.96161 10.4121 8.92809 10.4861 8.90035C10.8629 8.76513 11.1807 8.56056 11.4685 8.27278C12.1168 7.62441 12.9189 7.32739 13.8366 7.36668C13.9533 7.37246 14.0053 7.33895 14.0412 7.22915C14.1787 6.82811 14.3497 6.44209 14.5797 6.08497C14.6653 5.94975 14.76 5.82493 14.8825 5.72438C15.1091 5.53715 15.3021 5.56488 15.4546 5.81337C15.7366 6.26295 15.9539 6.74721 16.1735 7.23031C16.229 7.35281 16.2717 7.39558 16.4 7.31236C16.5503 7.21759 16.7178 7.15056 16.8866 7.09162C17.0218 7.04539 17.1004 7.07659 17.1593 7.21759C17.3304 7.63019 17.4228 8.06244 17.4749 8.50624C17.4899 8.62875 17.5176 8.74779 17.5026 8.8703C17.4933 9.13612 17.5061 9.4031 17.5084 9.67239C17.5084 9.79143 17.4656 9.91162 17.5026 10.033C17.4749 10.7611 17.2818 11.4499 17.001 12.1168C16.7375 12.7409 16.3549 13.2945 15.9724 13.8492C15.8221 14.063 15.8256 14.0665 16.0209 14.241C16.9756 15.1009 17.5026 16.1815 17.6794 17.4424C17.6852 17.491 17.6829 17.543 17.6829 17.595C17.6436 17.7117 17.6864 17.825 17.6887 17.9382C17.6991 18.1104 17.6598 18.2826 17.6898 18.4502Z" fill="#3398C2"/>
<path d="M17.5063 10.0353C17.4693 10.0052 17.4786 9.96133 17.4786 9.92203V8.98819C17.4786 8.9489 17.4693 8.90614 17.5063 8.87493C17.5468 9.26095 17.5491 9.64928 17.5063 10.0353Z" fill="#2B95C1"/>
<path d="M17.6896 18.4502C17.6283 18.2145 17.6769 17.9764 17.6618 17.7406C17.6584 17.6921 17.6433 17.6366 17.6896 17.5973C17.7289 17.8816 17.7231 18.1659 17.6896 18.4502Z" fill="#2693BF"/>
<path d="M9.06583 10.0503C9.06929 9.99484 9.04156 9.93358 9.0901 9.88504C9.0901 9.93936 9.09356 9.9983 9.06583 10.0503ZM9.0901 10.6166C9.04387 10.5681 9.06814 10.5068 9.06583 10.4514C9.09703 10.5034 9.0901 10.5611 9.0901 10.6166Z" fill="#3398C2"/>
</svg>
